G04 #@! TF.GenerationSoftware,KiCad,Pcbnew,(5.0.0-3-g5ebb6b6)*
G04 #@! TF.CreationDate,2018-11-09T10:28:32+01:00*
G04 #@! TF.ProjectId,WifiModem_IIC+,576966694D6F64656D5F4949432B2E6B,rev?*
G04 #@! TF.SameCoordinates,Original*
G04 #@! TF.FileFunction,Legend,Top*
G04 #@! TF.FilePolarity,Positive*
%FSLAX46Y46*%
G04 Gerber Fmt 4.6, Leading zero omitted, Abs format (unit mm)*
G04 Created by KiCad (PCBNEW (5.0.0-3-g5ebb6b6)) date Friday, 09 November 2018 at 10:28:32*
%MOMM*%
%LPD*%
G01*
G04 APERTURE LIST*
%ADD10C,0.125000*%
%ADD11C,0.200000*%
%ADD12C,0.100000*%
%ADD13C,0.175000*%
%ADD14C,0.250000*%
%ADD15C,0.120000*%
%ADD16C,0.127000*%
%ADD17C,0.150000*%
%ADD18C,0.050000*%
G04 APERTURE END LIST*
D10*
X113708000Y-68884000D02*
X114241333Y-68884000D01*
X113974666Y-69150666D02*
X113974666Y-68617333D01*
X114508000Y-68450666D02*
X114941333Y-68450666D01*
X114708000Y-68717333D01*
X114808000Y-68717333D01*
X114874666Y-68750666D01*
X114908000Y-68784000D01*
X114941333Y-68850666D01*
X114941333Y-69017333D01*
X114908000Y-69084000D01*
X114874666Y-69117333D01*
X114808000Y-69150666D01*
X114608000Y-69150666D01*
X114541333Y-69117333D01*
X114508000Y-69084000D01*
X115241333Y-69084000D02*
X115274666Y-69117333D01*
X115241333Y-69150666D01*
X115208000Y-69117333D01*
X115241333Y-69084000D01*
X115241333Y-69150666D01*
X115508000Y-68450666D02*
X115941333Y-68450666D01*
X115708000Y-68717333D01*
X115808000Y-68717333D01*
X115874666Y-68750666D01*
X115908000Y-68784000D01*
X115941333Y-68850666D01*
X115941333Y-69017333D01*
X115908000Y-69084000D01*
X115874666Y-69117333D01*
X115808000Y-69150666D01*
X115608000Y-69150666D01*
X115541333Y-69117333D01*
X115508000Y-69084000D01*
D11*
X110744000Y-67310000D02*
X110744000Y-65278000D01*
X115316000Y-67310000D02*
X110744000Y-67310000D01*
X115316000Y-65278000D02*
X115316000Y-67310000D01*
X110744000Y-65278000D02*
X115316000Y-65278000D01*
D12*
X141224000Y-55626000D02*
X141224000Y-54102000D01*
X138684000Y-55626000D02*
X138684000Y-54102000D01*
X144018000Y-55626000D02*
X138684000Y-55626000D01*
X144018000Y-54102000D02*
X144018000Y-55626000D01*
X138684000Y-54102000D02*
X144018000Y-54102000D01*
D10*
X142214666Y-54514000D02*
X142148000Y-54480666D01*
X142048000Y-54480666D01*
X141948000Y-54514000D01*
X141881333Y-54580666D01*
X141848000Y-54647333D01*
X141814666Y-54780666D01*
X141814666Y-54880666D01*
X141848000Y-55014000D01*
X141881333Y-55080666D01*
X141948000Y-55147333D01*
X142048000Y-55180666D01*
X142114666Y-55180666D01*
X142214666Y-55147333D01*
X142248000Y-55114000D01*
X142248000Y-54880666D01*
X142114666Y-54880666D01*
X142548000Y-55180666D02*
X142548000Y-54480666D01*
X142948000Y-55180666D01*
X142948000Y-54480666D01*
X143281333Y-55180666D02*
X143281333Y-54480666D01*
X143448000Y-54480666D01*
X143548000Y-54514000D01*
X143614666Y-54580666D01*
X143648000Y-54647333D01*
X143681333Y-54780666D01*
X143681333Y-54880666D01*
X143648000Y-55014000D01*
X143614666Y-55080666D01*
X143548000Y-55147333D01*
X143448000Y-55180666D01*
X143281333Y-55180666D01*
D11*
X134366000Y-61214000D02*
X134366000Y-55880000D01*
X137414000Y-61214000D02*
X134366000Y-61214000D01*
X137414000Y-55880000D02*
X137414000Y-61214000D01*
X134366000Y-55880000D02*
X137414000Y-55880000D01*
D13*
X135594166Y-58981083D02*
X135260833Y-59214416D01*
X135594166Y-59381083D02*
X134894166Y-59381083D01*
X134894166Y-59114416D01*
X134927500Y-59047750D01*
X134960833Y-59014416D01*
X135027500Y-58981083D01*
X135127500Y-58981083D01*
X135194166Y-59014416D01*
X135227500Y-59047750D01*
X135260833Y-59114416D01*
X135260833Y-59381083D01*
X135560833Y-58414416D02*
X135594166Y-58481083D01*
X135594166Y-58614416D01*
X135560833Y-58681083D01*
X135494166Y-58714416D01*
X135227500Y-58714416D01*
X135160833Y-58681083D01*
X135127500Y-58614416D01*
X135127500Y-58481083D01*
X135160833Y-58414416D01*
X135227500Y-58381083D01*
X135294166Y-58381083D01*
X135360833Y-58714416D01*
X135127500Y-58147750D02*
X135594166Y-57981083D01*
X135127500Y-57814416D01*
X135527500Y-57547750D02*
X135560833Y-57514416D01*
X135594166Y-57547750D01*
X135560833Y-57581083D01*
X135527500Y-57547750D01*
X135594166Y-57547750D01*
X135394166Y-56714416D02*
X135394166Y-56381083D01*
X135594166Y-56781083D02*
X134894166Y-56547750D01*
X135594166Y-56314416D01*
X136819166Y-60447750D02*
X136819166Y-60847750D01*
X136819166Y-60647750D02*
X136119166Y-60647750D01*
X136219166Y-60714416D01*
X136285833Y-60781083D01*
X136319166Y-60847750D01*
X136819166Y-59781083D02*
X136819166Y-60181083D01*
X136819166Y-59981083D02*
X136119166Y-59981083D01*
X136219166Y-60047750D01*
X136285833Y-60114416D01*
X136319166Y-60181083D01*
X136085833Y-58981083D02*
X136985833Y-59581083D01*
X136185833Y-58781083D02*
X136152500Y-58747750D01*
X136119166Y-58681083D01*
X136119166Y-58514416D01*
X136152500Y-58447750D01*
X136185833Y-58414416D01*
X136252500Y-58381083D01*
X136319166Y-58381083D01*
X136419166Y-58414416D01*
X136819166Y-58814416D01*
X136819166Y-58381083D01*
X136119166Y-57947750D02*
X136119166Y-57881083D01*
X136152500Y-57814416D01*
X136185833Y-57781083D01*
X136252500Y-57747750D01*
X136385833Y-57714416D01*
X136552500Y-57714416D01*
X136685833Y-57747750D01*
X136752500Y-57781083D01*
X136785833Y-57814416D01*
X136819166Y-57881083D01*
X136819166Y-57947750D01*
X136785833Y-58014416D01*
X136752500Y-58047750D01*
X136685833Y-58081083D01*
X136552500Y-58114416D01*
X136385833Y-58114416D01*
X136252500Y-58081083D01*
X136185833Y-58047750D01*
X136152500Y-58014416D01*
X136119166Y-57947750D01*
X136819166Y-57047750D02*
X136819166Y-57447750D01*
X136819166Y-57247750D02*
X136119166Y-57247750D01*
X136219166Y-57314416D01*
X136285833Y-57381083D01*
X136319166Y-57447750D01*
X136419166Y-56647750D02*
X136385833Y-56714416D01*
X136352500Y-56747750D01*
X136285833Y-56781083D01*
X136252500Y-56781083D01*
X136185833Y-56747750D01*
X136152500Y-56714416D01*
X136119166Y-56647750D01*
X136119166Y-56514416D01*
X136152500Y-56447750D01*
X136185833Y-56414416D01*
X136252500Y-56381083D01*
X136285833Y-56381083D01*
X136352500Y-56414416D01*
X136385833Y-56447750D01*
X136419166Y-56514416D01*
X136419166Y-56647750D01*
X136452500Y-56714416D01*
X136485833Y-56747750D01*
X136552500Y-56781083D01*
X136685833Y-56781083D01*
X136752500Y-56747750D01*
X136785833Y-56714416D01*
X136819166Y-56647750D01*
X136819166Y-56514416D01*
X136785833Y-56447750D01*
X136752500Y-56414416D01*
X136685833Y-56381083D01*
X136552500Y-56381083D01*
X136485833Y-56414416D01*
X136452500Y-56447750D01*
X136419166Y-56514416D01*
D11*
X139954000Y-49276000D02*
X139954000Y-50800000D01*
D10*
X139769333Y-72452666D02*
X139769333Y-71752666D01*
X139769333Y-72086000D02*
X140169333Y-72086000D01*
X140169333Y-72452666D02*
X140169333Y-71752666D01*
X140436000Y-71752666D02*
X140602666Y-72452666D01*
X140736000Y-71952666D01*
X140869333Y-72452666D01*
X141036000Y-71752666D01*
X142069333Y-72086000D02*
X141836000Y-72086000D01*
X141836000Y-72452666D02*
X141836000Y-71752666D01*
X142169333Y-71752666D01*
X142769333Y-72452666D02*
X142436000Y-72452666D01*
X142436000Y-71752666D01*
X143136000Y-71752666D02*
X143269333Y-71752666D01*
X143336000Y-71786000D01*
X143402666Y-71852666D01*
X143436000Y-71986000D01*
X143436000Y-72219333D01*
X143402666Y-72352666D01*
X143336000Y-72419333D01*
X143269333Y-72452666D01*
X143136000Y-72452666D01*
X143069333Y-72419333D01*
X143002666Y-72352666D01*
X142969333Y-72219333D01*
X142969333Y-71986000D01*
X143002666Y-71852666D01*
X143069333Y-71786000D01*
X143136000Y-71752666D01*
X143669333Y-71752666D02*
X143836000Y-72452666D01*
X143969333Y-71952666D01*
X144102666Y-72452666D01*
X144269333Y-71752666D01*
X139762666Y-60706666D02*
X139429333Y-60940000D01*
X139762666Y-61106666D02*
X139062666Y-61106666D01*
X139062666Y-60840000D01*
X139096000Y-60773333D01*
X139129333Y-60740000D01*
X139196000Y-60706666D01*
X139296000Y-60706666D01*
X139362666Y-60740000D01*
X139396000Y-60773333D01*
X139429333Y-60840000D01*
X139429333Y-61106666D01*
X139396000Y-60406666D02*
X139396000Y-60173333D01*
X139762666Y-60073333D02*
X139762666Y-60406666D01*
X139062666Y-60406666D01*
X139062666Y-60073333D01*
X139729333Y-59806666D02*
X139762666Y-59706666D01*
X139762666Y-59540000D01*
X139729333Y-59473333D01*
X139696000Y-59440000D01*
X139629333Y-59406666D01*
X139562666Y-59406666D01*
X139496000Y-59440000D01*
X139462666Y-59473333D01*
X139429333Y-59540000D01*
X139396000Y-59673333D01*
X139362666Y-59740000D01*
X139329333Y-59773333D01*
X139262666Y-59806666D01*
X139196000Y-59806666D01*
X139129333Y-59773333D01*
X139096000Y-59740000D01*
X139062666Y-59673333D01*
X139062666Y-59506666D01*
X139096000Y-59406666D01*
X139396000Y-59106666D02*
X139396000Y-58873333D01*
X139762666Y-58773333D02*
X139762666Y-59106666D01*
X139062666Y-59106666D01*
X139062666Y-58773333D01*
X139062666Y-58573333D02*
X139062666Y-58173333D01*
X139762666Y-58373333D02*
X139062666Y-58373333D01*
X138800000Y-54914000D02*
X139333333Y-54914000D01*
X139066666Y-55180666D02*
X139066666Y-54647333D01*
X140000000Y-54480666D02*
X139666666Y-54480666D01*
X139633333Y-54814000D01*
X139666666Y-54780666D01*
X139733333Y-54747333D01*
X139900000Y-54747333D01*
X139966666Y-54780666D01*
X140000000Y-54814000D01*
X140033333Y-54880666D01*
X140033333Y-55047333D01*
X140000000Y-55114000D01*
X139966666Y-55147333D01*
X139900000Y-55180666D01*
X139733333Y-55180666D01*
X139666666Y-55147333D01*
X139633333Y-55114000D01*
X140233333Y-54480666D02*
X140466666Y-55180666D01*
X140700000Y-54480666D01*
D14*
X124619333Y-49728380D02*
X124619333Y-48728380D01*
X124952666Y-49442666D01*
X125286000Y-48728380D01*
X125286000Y-49728380D01*
X125952666Y-48728380D02*
X126143142Y-48728380D01*
X126238380Y-48776000D01*
X126333619Y-48871238D01*
X126381238Y-49061714D01*
X126381238Y-49395047D01*
X126333619Y-49585523D01*
X126238380Y-49680761D01*
X126143142Y-49728380D01*
X125952666Y-49728380D01*
X125857428Y-49680761D01*
X125762190Y-49585523D01*
X125714571Y-49395047D01*
X125714571Y-49061714D01*
X125762190Y-48871238D01*
X125857428Y-48776000D01*
X125952666Y-48728380D01*
X126809809Y-49728380D02*
X126809809Y-48728380D01*
X127047904Y-48728380D01*
X127190761Y-48776000D01*
X127286000Y-48871238D01*
X127333619Y-48966476D01*
X127381238Y-49156952D01*
X127381238Y-49299809D01*
X127333619Y-49490285D01*
X127286000Y-49585523D01*
X127190761Y-49680761D01*
X127047904Y-49728380D01*
X126809809Y-49728380D01*
X127809809Y-49204571D02*
X128143142Y-49204571D01*
X128286000Y-49728380D02*
X127809809Y-49728380D01*
X127809809Y-48728380D01*
X128286000Y-48728380D01*
X128714571Y-49728380D02*
X128714571Y-48728380D01*
X129047904Y-49442666D01*
X129381238Y-48728380D01*
X129381238Y-49728380D01*
X130619333Y-49728380D02*
X130619333Y-48728380D01*
X131000285Y-48728380D01*
X131095523Y-48776000D01*
X131143142Y-48823619D01*
X131190761Y-48918857D01*
X131190761Y-49061714D01*
X131143142Y-49156952D01*
X131095523Y-49204571D01*
X131000285Y-49252190D01*
X130619333Y-49252190D01*
X131809809Y-48728380D02*
X132000285Y-48728380D01*
X132095523Y-48776000D01*
X132190761Y-48871238D01*
X132238380Y-49061714D01*
X132238380Y-49395047D01*
X132190761Y-49585523D01*
X132095523Y-49680761D01*
X132000285Y-49728380D01*
X131809809Y-49728380D01*
X131714571Y-49680761D01*
X131619333Y-49585523D01*
X131571714Y-49395047D01*
X131571714Y-49061714D01*
X131619333Y-48871238D01*
X131714571Y-48776000D01*
X131809809Y-48728380D01*
X133238380Y-49728380D02*
X132905047Y-49252190D01*
X132666952Y-49728380D02*
X132666952Y-48728380D01*
X133047904Y-48728380D01*
X133143142Y-48776000D01*
X133190761Y-48823619D01*
X133238380Y-48918857D01*
X133238380Y-49061714D01*
X133190761Y-49156952D01*
X133143142Y-49204571D01*
X133047904Y-49252190D01*
X132666952Y-49252190D01*
X133524095Y-48728380D02*
X134095523Y-48728380D01*
X133809809Y-49728380D02*
X133809809Y-48728380D01*
D11*
X111244285Y-66746380D02*
X111244285Y-65746380D01*
X111625238Y-65746380D01*
X111720476Y-65794000D01*
X111768095Y-65841619D01*
X111815714Y-65936857D01*
X111815714Y-66079714D01*
X111768095Y-66174952D01*
X111720476Y-66222571D01*
X111625238Y-66270190D01*
X111244285Y-66270190D01*
X112815714Y-66746380D02*
X112482380Y-66270190D01*
X112244285Y-66746380D02*
X112244285Y-65746380D01*
X112625238Y-65746380D01*
X112720476Y-65794000D01*
X112768095Y-65841619D01*
X112815714Y-65936857D01*
X112815714Y-66079714D01*
X112768095Y-66174952D01*
X112720476Y-66222571D01*
X112625238Y-66270190D01*
X112244285Y-66270190D01*
X113434761Y-65746380D02*
X113625238Y-65746380D01*
X113720476Y-65794000D01*
X113815714Y-65889238D01*
X113863333Y-66079714D01*
X113863333Y-66413047D01*
X113815714Y-66603523D01*
X113720476Y-66698761D01*
X113625238Y-66746380D01*
X113434761Y-66746380D01*
X113339523Y-66698761D01*
X113244285Y-66603523D01*
X113196666Y-66413047D01*
X113196666Y-66079714D01*
X113244285Y-65889238D01*
X113339523Y-65794000D01*
X113434761Y-65746380D01*
X114815714Y-65794000D02*
X114720476Y-65746380D01*
X114577619Y-65746380D01*
X114434761Y-65794000D01*
X114339523Y-65889238D01*
X114291904Y-65984476D01*
X114244285Y-66174952D01*
X114244285Y-66317809D01*
X114291904Y-66508285D01*
X114339523Y-66603523D01*
X114434761Y-66698761D01*
X114577619Y-66746380D01*
X114672857Y-66746380D01*
X114815714Y-66698761D01*
X114863333Y-66651142D01*
X114863333Y-66317809D01*
X114672857Y-66317809D01*
D10*
X135986000Y-53314666D02*
X136019333Y-53248000D01*
X136019333Y-53148000D01*
X135986000Y-53048000D01*
X135919333Y-52981333D01*
X135852666Y-52948000D01*
X135719333Y-52914666D01*
X135619333Y-52914666D01*
X135486000Y-52948000D01*
X135419333Y-52981333D01*
X135352666Y-53048000D01*
X135319333Y-53148000D01*
X135319333Y-53214666D01*
X135352666Y-53314666D01*
X135386000Y-53348000D01*
X135619333Y-53348000D01*
X135619333Y-53214666D01*
X135319333Y-53648000D02*
X136019333Y-53648000D01*
X135319333Y-54048000D01*
X136019333Y-54048000D01*
X135319333Y-54381333D02*
X136019333Y-54381333D01*
X136019333Y-54548000D01*
X135986000Y-54648000D01*
X135919333Y-54714666D01*
X135852666Y-54748000D01*
X135719333Y-54781333D01*
X135619333Y-54781333D01*
X135486000Y-54748000D01*
X135419333Y-54714666D01*
X135352666Y-54648000D01*
X135319333Y-54548000D01*
X135319333Y-54381333D01*
X132779333Y-52981333D02*
X133479333Y-52981333D01*
X133479333Y-53148000D01*
X133446000Y-53248000D01*
X133379333Y-53314666D01*
X133312666Y-53348000D01*
X133179333Y-53381333D01*
X133079333Y-53381333D01*
X132946000Y-53348000D01*
X132879333Y-53314666D01*
X132812666Y-53248000D01*
X132779333Y-53148000D01*
X132779333Y-52981333D01*
X132812666Y-53648000D02*
X132779333Y-53748000D01*
X132779333Y-53914666D01*
X132812666Y-53981333D01*
X132846000Y-54014666D01*
X132912666Y-54048000D01*
X132979333Y-54048000D01*
X133046000Y-54014666D01*
X133079333Y-53981333D01*
X133112666Y-53914666D01*
X133146000Y-53781333D01*
X133179333Y-53714666D01*
X133212666Y-53681333D01*
X133279333Y-53648000D01*
X133346000Y-53648000D01*
X133412666Y-53681333D01*
X133446000Y-53714666D01*
X133479333Y-53781333D01*
X133479333Y-53948000D01*
X133446000Y-54048000D01*
X132779333Y-54748000D02*
X133112666Y-54514666D01*
X132779333Y-54348000D02*
X133479333Y-54348000D01*
X133479333Y-54614666D01*
X133446000Y-54681333D01*
X133412666Y-54714666D01*
X133346000Y-54748000D01*
X133246000Y-54748000D01*
X133179333Y-54714666D01*
X133146000Y-54681333D01*
X133112666Y-54614666D01*
X133112666Y-54348000D01*
X130239333Y-53048000D02*
X130939333Y-53048000D01*
X130939333Y-53214666D01*
X130906000Y-53314666D01*
X130839333Y-53381333D01*
X130772666Y-53414666D01*
X130639333Y-53448000D01*
X130539333Y-53448000D01*
X130406000Y-53414666D01*
X130339333Y-53381333D01*
X130272666Y-53314666D01*
X130239333Y-53214666D01*
X130239333Y-53048000D01*
X130939333Y-53648000D02*
X130939333Y-54048000D01*
X130239333Y-53848000D02*
X130939333Y-53848000D01*
X130239333Y-54681333D02*
X130572666Y-54448000D01*
X130239333Y-54281333D02*
X130939333Y-54281333D01*
X130939333Y-54548000D01*
X130906000Y-54614666D01*
X130872666Y-54648000D01*
X130806000Y-54681333D01*
X130706000Y-54681333D01*
X130639333Y-54648000D01*
X130606000Y-54614666D01*
X130572666Y-54548000D01*
X130572666Y-54281333D01*
X127699333Y-52964666D02*
X128399333Y-52964666D01*
X128399333Y-53131333D01*
X128366000Y-53231333D01*
X128299333Y-53298000D01*
X128232666Y-53331333D01*
X128099333Y-53364666D01*
X127999333Y-53364666D01*
X127866000Y-53331333D01*
X127799333Y-53298000D01*
X127732666Y-53231333D01*
X127699333Y-53131333D01*
X127699333Y-52964666D01*
X127766000Y-54064666D02*
X127732666Y-54031333D01*
X127699333Y-53931333D01*
X127699333Y-53864666D01*
X127732666Y-53764666D01*
X127799333Y-53698000D01*
X127866000Y-53664666D01*
X127999333Y-53631333D01*
X128099333Y-53631333D01*
X128232666Y-53664666D01*
X128299333Y-53698000D01*
X128366000Y-53764666D01*
X128399333Y-53864666D01*
X128399333Y-53931333D01*
X128366000Y-54031333D01*
X128332666Y-54064666D01*
X127699333Y-54364666D02*
X128399333Y-54364666D01*
X128399333Y-54531333D01*
X128366000Y-54631333D01*
X128299333Y-54698000D01*
X128232666Y-54731333D01*
X128099333Y-54764666D01*
X127999333Y-54764666D01*
X127866000Y-54731333D01*
X127799333Y-54698000D01*
X127732666Y-54631333D01*
X127699333Y-54531333D01*
X127699333Y-54364666D01*
X122619333Y-53223333D02*
X122952666Y-52990000D01*
X122619333Y-52823333D02*
X123319333Y-52823333D01*
X123319333Y-53090000D01*
X123286000Y-53156666D01*
X123252666Y-53190000D01*
X123186000Y-53223333D01*
X123086000Y-53223333D01*
X123019333Y-53190000D01*
X122986000Y-53156666D01*
X122952666Y-53090000D01*
X122952666Y-52823333D01*
X123319333Y-53456666D02*
X122619333Y-53923333D01*
X123319333Y-53923333D02*
X122619333Y-53456666D01*
X125859333Y-52806666D02*
X125859333Y-53206666D01*
X125159333Y-53006666D02*
X125859333Y-53006666D01*
X125859333Y-53373333D02*
X125159333Y-53840000D01*
X125859333Y-53840000D02*
X125159333Y-53373333D01*
X114274666Y-71024000D02*
X114208000Y-70990666D01*
X114108000Y-70990666D01*
X114008000Y-71024000D01*
X113941333Y-71090666D01*
X113908000Y-71157333D01*
X113874666Y-71290666D01*
X113874666Y-71390666D01*
X113908000Y-71524000D01*
X113941333Y-71590666D01*
X114008000Y-71657333D01*
X114108000Y-71690666D01*
X114174666Y-71690666D01*
X114274666Y-71657333D01*
X114308000Y-71624000D01*
X114308000Y-71390666D01*
X114174666Y-71390666D01*
X114608000Y-71690666D02*
X114608000Y-70990666D01*
X115008000Y-71690666D01*
X115008000Y-70990666D01*
X115341333Y-71690666D02*
X115341333Y-70990666D01*
X115508000Y-70990666D01*
X115608000Y-71024000D01*
X115674666Y-71090666D01*
X115708000Y-71157333D01*
X115741333Y-71290666D01*
X115741333Y-71390666D01*
X115708000Y-71524000D01*
X115674666Y-71590666D01*
X115608000Y-71657333D01*
X115508000Y-71690666D01*
X115341333Y-71690666D01*
X114424666Y-79310666D02*
X114191333Y-78977333D01*
X114024666Y-79310666D02*
X114024666Y-78610666D01*
X114291333Y-78610666D01*
X114358000Y-78644000D01*
X114391333Y-78677333D01*
X114424666Y-78744000D01*
X114424666Y-78844000D01*
X114391333Y-78910666D01*
X114358000Y-78944000D01*
X114291333Y-78977333D01*
X114024666Y-78977333D01*
X114624666Y-78610666D02*
X115024666Y-78610666D01*
X114824666Y-79310666D02*
X114824666Y-78610666D01*
X115224666Y-79277333D02*
X115324666Y-79310666D01*
X115491333Y-79310666D01*
X115558000Y-79277333D01*
X115591333Y-79244000D01*
X115624666Y-79177333D01*
X115624666Y-79110666D01*
X115591333Y-79044000D01*
X115558000Y-79010666D01*
X115491333Y-78977333D01*
X115358000Y-78944000D01*
X115291333Y-78910666D01*
X115258000Y-78877333D01*
X115224666Y-78810666D01*
X115224666Y-78744000D01*
X115258000Y-78677333D01*
X115291333Y-78644000D01*
X115358000Y-78610666D01*
X115524666Y-78610666D01*
X115624666Y-78644000D01*
X114008000Y-82104666D02*
X114008000Y-81404666D01*
X114174666Y-81404666D01*
X114274666Y-81438000D01*
X114341333Y-81504666D01*
X114374666Y-81571333D01*
X114408000Y-81704666D01*
X114408000Y-81804666D01*
X114374666Y-81938000D01*
X114341333Y-82004666D01*
X114274666Y-82071333D01*
X114174666Y-82104666D01*
X114008000Y-82104666D01*
X114608000Y-81404666D02*
X115008000Y-81404666D01*
X114808000Y-82104666D02*
X114808000Y-81404666D01*
X115641333Y-82104666D02*
X115408000Y-81771333D01*
X115241333Y-82104666D02*
X115241333Y-81404666D01*
X115508000Y-81404666D01*
X115574666Y-81438000D01*
X115608000Y-81471333D01*
X115641333Y-81538000D01*
X115641333Y-81638000D01*
X115608000Y-81704666D01*
X115574666Y-81738000D01*
X115508000Y-81771333D01*
X115241333Y-81771333D01*
X114437333Y-76770666D02*
X114204000Y-76437333D01*
X114037333Y-76770666D02*
X114037333Y-76070666D01*
X114304000Y-76070666D01*
X114370666Y-76104000D01*
X114404000Y-76137333D01*
X114437333Y-76204000D01*
X114437333Y-76304000D01*
X114404000Y-76370666D01*
X114370666Y-76404000D01*
X114304000Y-76437333D01*
X114037333Y-76437333D01*
X114670666Y-76070666D02*
X115137333Y-76770666D01*
X115137333Y-76070666D02*
X114670666Y-76770666D01*
X114020666Y-73530666D02*
X114420666Y-73530666D01*
X114220666Y-74230666D02*
X114220666Y-73530666D01*
X114587333Y-73530666D02*
X115054000Y-74230666D01*
X115054000Y-73530666D02*
X114587333Y-74230666D01*
D15*
G04 #@! TO.C,U1*
X136624000Y-83200000D02*
X137234000Y-83200000D01*
X136624000Y-83200000D02*
X136624000Y-90820000D01*
X136624000Y-66580000D02*
X136624000Y-67200000D01*
X134504000Y-66580000D02*
X136624000Y-66580000D01*
X120384000Y-66580000D02*
X122504000Y-66580000D01*
X120384000Y-67200000D02*
X120384000Y-66580000D01*
X120384000Y-90820000D02*
X120384000Y-83200000D01*
X136624000Y-90820000D02*
X120384000Y-90820000D01*
G04 #@! TO.C,J2*
X110938000Y-67504000D02*
X112268000Y-67504000D01*
X110938000Y-68834000D02*
X110938000Y-67504000D01*
X110938000Y-70104000D02*
X113598000Y-70104000D01*
X113598000Y-70104000D02*
X113598000Y-82864000D01*
X110938000Y-70104000D02*
X110938000Y-82864000D01*
X110938000Y-82864000D02*
X113598000Y-82864000D01*
G04 #@! TO.C,D1*
X138720000Y-49038000D02*
X142620000Y-49038000D01*
X138720000Y-51038000D02*
X142620000Y-51038000D01*
X138720000Y-49038000D02*
X138720000Y-51038000D01*
G04 #@! TO.C,SW2*
X142621000Y-77978000D02*
X141351000Y-77978000D01*
X142621000Y-80008000D02*
X142621000Y-75948000D01*
X141351000Y-80008000D02*
X142621000Y-80008000D01*
X141351000Y-75948000D02*
X141351000Y-80008000D01*
X142621000Y-75948000D02*
X141351000Y-75948000D01*
X139506000Y-72968000D02*
X144466000Y-72968000D01*
X139506000Y-82988000D02*
X139506000Y-72968000D01*
X144466000Y-82988000D02*
X139506000Y-82988000D01*
X144466000Y-72968000D02*
X144466000Y-82988000D01*
X144666000Y-72768000D02*
X144666000Y-75308000D01*
X144666000Y-72768000D02*
X143396000Y-72768000D01*
G04 #@! TO.C,SW3*
X143836000Y-62950000D02*
X143836000Y-56750000D01*
X140136000Y-56750000D02*
X140136000Y-62950000D01*
X140136000Y-62950000D02*
X140786000Y-62950000D01*
X143186000Y-62950000D02*
X143836000Y-62950000D01*
X143836000Y-56750000D02*
X143186000Y-56750000D01*
X140136000Y-56750000D02*
X140786000Y-56750000D01*
G04 #@! TO.C,J5*
X143824000Y-53908000D02*
X143824000Y-51248000D01*
X141224000Y-53908000D02*
X143824000Y-53908000D01*
X141224000Y-51248000D02*
X143824000Y-51248000D01*
X141224000Y-53908000D02*
X141224000Y-51248000D01*
X139954000Y-53908000D02*
X138624000Y-53908000D01*
X138624000Y-53908000D02*
X138624000Y-52578000D01*
D16*
G04 #@! TO.C,U3*
X131723000Y-56877000D02*
X131723000Y-63377000D01*
X131723000Y-63377000D02*
X127323000Y-63377000D01*
X127323000Y-63377000D02*
X127323000Y-57181380D01*
X127323000Y-57181380D02*
X127627380Y-56877000D01*
X127627380Y-56877000D02*
X131723000Y-56877000D01*
D12*
X127364000Y-56317000D02*
G75*
G03X127364000Y-56317000I-381000J0D01*
G01*
D15*
G04 #@! TO.C,R4*
X141452000Y-69478000D02*
X142652000Y-69478000D01*
X142652000Y-71238000D02*
X141452000Y-71238000D01*
G04 #@! TO.C,J3*
X119066000Y-52638000D02*
X119066000Y-51308000D01*
X120396000Y-52638000D02*
X119066000Y-52638000D01*
X121666000Y-52638000D02*
X121666000Y-49978000D01*
X121666000Y-49978000D02*
X136966000Y-49978000D01*
X121666000Y-52638000D02*
X136966000Y-52638000D01*
X136966000Y-52638000D02*
X136966000Y-49978000D01*
G04 #@! TO.C,U2*
X119314000Y-60560000D02*
X113304000Y-60560000D01*
X117064000Y-53740000D02*
X113304000Y-53740000D01*
X113304000Y-60560000D02*
X113304000Y-59300000D01*
X113304000Y-53740000D02*
X113304000Y-55000000D01*
G04 #@! TO.C,C5*
X122452000Y-63842000D02*
X123452000Y-63842000D01*
X123452000Y-62142000D02*
X122452000Y-62142000D01*
G04 #@! TO.C,C6*
X116337000Y-52958000D02*
X116337000Y-49658000D01*
X116337000Y-49658000D02*
X111787000Y-49658000D01*
X116337000Y-52958000D02*
X111787000Y-52958000D01*
G04 #@! TO.C,C7*
X136740000Y-64746000D02*
X136740000Y-63746000D01*
X135040000Y-63746000D02*
X135040000Y-64746000D01*
G04 #@! TO.C,C8*
X116337000Y-64388000D02*
X111787000Y-64388000D01*
X116337000Y-61088000D02*
X111787000Y-61088000D01*
X116337000Y-64388000D02*
X116337000Y-61088000D01*
G04 #@! TO.C,R1*
X141452000Y-64398000D02*
X142652000Y-64398000D01*
X142652000Y-66158000D02*
X141452000Y-66158000D01*
G04 #@! TO.C,R2*
X141452000Y-66938000D02*
X142652000Y-66938000D01*
X142652000Y-68698000D02*
X141452000Y-68698000D01*
G04 #@! TO.C,R3*
X116560000Y-68970000D02*
X117760000Y-68970000D01*
X117760000Y-70730000D02*
X116560000Y-70730000D01*
G04 #@! TO.C,R5*
X116428000Y-73288000D02*
X117628000Y-73288000D01*
X117628000Y-75048000D02*
X116428000Y-75048000D01*
G04 #@! TO.C,R6*
X116814000Y-79130000D02*
X118014000Y-79130000D01*
X118014000Y-80890000D02*
X116814000Y-80890000D01*
G04 #@! TO.C,U1*
D17*
X120650095Y-65238380D02*
X120650095Y-66047904D01*
X120697714Y-66143142D01*
X120745333Y-66190761D01*
X120840571Y-66238380D01*
X121031047Y-66238380D01*
X121126285Y-66190761D01*
X121173904Y-66143142D01*
X121221523Y-66047904D01*
X121221523Y-65238380D01*
X122221523Y-66238380D02*
X121650095Y-66238380D01*
X121935809Y-66238380D02*
X121935809Y-65238380D01*
X121840571Y-65381238D01*
X121745333Y-65476476D01*
X121650095Y-65524095D01*
G04 #@! TO.C,D1*
X144334666Y-50554666D02*
X143634666Y-50554666D01*
X143634666Y-50388000D01*
X143668000Y-50288000D01*
X143734666Y-50221333D01*
X143801333Y-50188000D01*
X143934666Y-50154666D01*
X144034666Y-50154666D01*
X144168000Y-50188000D01*
X144234666Y-50221333D01*
X144301333Y-50288000D01*
X144334666Y-50388000D01*
X144334666Y-50554666D01*
X144334666Y-49488000D02*
X144334666Y-49888000D01*
X144334666Y-49688000D02*
X143634666Y-49688000D01*
X143734666Y-49754666D01*
X143801333Y-49821333D01*
X143834666Y-49888000D01*
G04 #@! TO.C,U3*
X129006529Y-55750568D02*
X129006529Y-56317380D01*
X129039871Y-56384064D01*
X129073213Y-56417406D01*
X129139897Y-56450748D01*
X129273264Y-56450748D01*
X129339948Y-56417406D01*
X129373290Y-56384064D01*
X129406632Y-56317380D01*
X129406632Y-55750568D01*
X129673367Y-55750568D02*
X130106812Y-55750568D01*
X129873419Y-56017303D01*
X129973444Y-56017303D01*
X130040128Y-56050645D01*
X130073470Y-56083987D01*
X130106812Y-56150670D01*
X130106812Y-56317380D01*
X130073470Y-56384064D01*
X130040128Y-56417406D01*
X129973444Y-56450748D01*
X129773393Y-56450748D01*
X129706709Y-56417406D01*
X129673367Y-56384064D01*
D18*
X128948612Y-62778726D02*
X128948612Y-62378340D01*
X129649288Y-62578533D02*
X128948612Y-62578533D01*
X128948612Y-62211512D02*
X129649288Y-61744395D01*
X128948612Y-61744395D02*
X129649288Y-62211512D01*
X129282267Y-61243912D02*
X129315633Y-61143815D01*
X129348998Y-61110450D01*
X129415729Y-61077084D01*
X129515826Y-61077084D01*
X129582557Y-61110450D01*
X129615922Y-61143815D01*
X129649288Y-61210547D01*
X129649288Y-61477471D01*
X128948612Y-61477471D01*
X128948612Y-61243912D01*
X128981978Y-61177181D01*
X129015343Y-61143815D01*
X129082074Y-61110450D01*
X129148805Y-61110450D01*
X129215536Y-61143815D01*
X129248902Y-61177181D01*
X129282267Y-61243912D01*
X129282267Y-61477471D01*
X128948612Y-60643333D02*
X128948612Y-60576602D01*
X128981978Y-60509871D01*
X129015343Y-60476505D01*
X129082074Y-60443139D01*
X129215536Y-60409774D01*
X129382364Y-60409774D01*
X129515826Y-60443139D01*
X129582557Y-60476505D01*
X129615922Y-60509871D01*
X129649288Y-60576602D01*
X129649288Y-60643333D01*
X129615922Y-60710064D01*
X129582557Y-60743429D01*
X129515826Y-60776795D01*
X129382364Y-60810160D01*
X129215536Y-60810160D01*
X129082074Y-60776795D01*
X129015343Y-60743429D01*
X128981978Y-60710064D01*
X128948612Y-60643333D01*
X129649288Y-59742463D02*
X129649288Y-60142850D01*
X129649288Y-59942657D02*
X128948612Y-59942657D01*
X129048709Y-60009388D01*
X129115440Y-60076119D01*
X129148805Y-60142850D01*
X128948612Y-59308712D02*
X128948612Y-59241981D01*
X128981978Y-59175250D01*
X129015343Y-59141884D01*
X129082074Y-59108519D01*
X129215536Y-59075153D01*
X129382364Y-59075153D01*
X129515826Y-59108519D01*
X129582557Y-59141884D01*
X129615922Y-59175250D01*
X129649288Y-59241981D01*
X129649288Y-59308712D01*
X129615922Y-59375443D01*
X129582557Y-59408808D01*
X129515826Y-59442174D01*
X129382364Y-59475539D01*
X129215536Y-59475539D01*
X129082074Y-59442174D01*
X129015343Y-59408808D01*
X128981978Y-59375443D01*
X128948612Y-59308712D01*
X129248902Y-58674767D02*
X129215536Y-58741498D01*
X129182171Y-58774863D01*
X129115440Y-58808229D01*
X129082074Y-58808229D01*
X129015343Y-58774863D01*
X128981978Y-58741498D01*
X128948612Y-58674767D01*
X128948612Y-58541305D01*
X128981978Y-58474574D01*
X129015343Y-58441208D01*
X129082074Y-58407843D01*
X129115440Y-58407843D01*
X129182171Y-58441208D01*
X129215536Y-58474574D01*
X129248902Y-58541305D01*
X129248902Y-58674767D01*
X129282267Y-58741498D01*
X129315633Y-58774863D01*
X129382364Y-58808229D01*
X129515826Y-58808229D01*
X129582557Y-58774863D01*
X129615922Y-58741498D01*
X129649288Y-58674767D01*
X129649288Y-58541305D01*
X129615922Y-58474574D01*
X129582557Y-58441208D01*
X129515826Y-58407843D01*
X129382364Y-58407843D01*
X129315633Y-58441208D01*
X129282267Y-58474574D01*
X129248902Y-58541305D01*
X129649288Y-58107553D02*
X128948612Y-58107553D01*
X128948612Y-57840629D01*
X128981978Y-57773898D01*
X129015343Y-57740532D01*
X129082074Y-57707167D01*
X129182171Y-57707167D01*
X129248902Y-57740532D01*
X129282267Y-57773898D01*
X129315633Y-57840629D01*
X129315633Y-58107553D01*
X128948612Y-57473608D02*
X129649288Y-57306780D01*
X129148805Y-57173318D01*
X129649288Y-57039856D01*
X128948612Y-56873028D01*
G04 #@! TO.C,R4*
D17*
X140016666Y-70474666D02*
X139683333Y-70708000D01*
X140016666Y-70874666D02*
X139316666Y-70874666D01*
X139316666Y-70608000D01*
X139350000Y-70541333D01*
X139383333Y-70508000D01*
X139450000Y-70474666D01*
X139550000Y-70474666D01*
X139616666Y-70508000D01*
X139650000Y-70541333D01*
X139683333Y-70608000D01*
X139683333Y-70874666D01*
X139550000Y-69874666D02*
X140016666Y-69874666D01*
X139283333Y-70041333D02*
X139783333Y-70208000D01*
X139783333Y-69774666D01*
G04 #@! TO.C,U2*
X120520666Y-57683333D02*
X121087333Y-57683333D01*
X121154000Y-57650000D01*
X121187333Y-57616666D01*
X121220666Y-57550000D01*
X121220666Y-57416666D01*
X121187333Y-57350000D01*
X121154000Y-57316666D01*
X121087333Y-57283333D01*
X120520666Y-57283333D01*
X120587333Y-56983333D02*
X120554000Y-56950000D01*
X120520666Y-56883333D01*
X120520666Y-56716666D01*
X120554000Y-56650000D01*
X120587333Y-56616666D01*
X120654000Y-56583333D01*
X120720666Y-56583333D01*
X120820666Y-56616666D01*
X121220666Y-57016666D01*
X121220666Y-56583333D01*
G04 #@! TO.C,C5*
X122785333Y-61571142D02*
X122737714Y-61618761D01*
X122594857Y-61666380D01*
X122499619Y-61666380D01*
X122356761Y-61618761D01*
X122261523Y-61523523D01*
X122213904Y-61428285D01*
X122166285Y-61237809D01*
X122166285Y-61094952D01*
X122213904Y-60904476D01*
X122261523Y-60809238D01*
X122356761Y-60714000D01*
X122499619Y-60666380D01*
X122594857Y-60666380D01*
X122737714Y-60714000D01*
X122785333Y-60761619D01*
X123690095Y-60666380D02*
X123213904Y-60666380D01*
X123166285Y-61142571D01*
X123213904Y-61094952D01*
X123309142Y-61047333D01*
X123547238Y-61047333D01*
X123642476Y-61094952D01*
X123690095Y-61142571D01*
X123737714Y-61237809D01*
X123737714Y-61475904D01*
X123690095Y-61571142D01*
X123642476Y-61618761D01*
X123547238Y-61666380D01*
X123309142Y-61666380D01*
X123213904Y-61618761D01*
X123166285Y-61571142D01*
G04 #@! TO.C,C6*
X117598000Y-51424666D02*
X117631333Y-51458000D01*
X117664666Y-51558000D01*
X117664666Y-51624666D01*
X117631333Y-51724666D01*
X117564666Y-51791333D01*
X117498000Y-51824666D01*
X117364666Y-51858000D01*
X117264666Y-51858000D01*
X117131333Y-51824666D01*
X117064666Y-51791333D01*
X116998000Y-51724666D01*
X116964666Y-51624666D01*
X116964666Y-51558000D01*
X116998000Y-51458000D01*
X117031333Y-51424666D01*
X116964666Y-50824666D02*
X116964666Y-50958000D01*
X116998000Y-51024666D01*
X117031333Y-51058000D01*
X117131333Y-51124666D01*
X117264666Y-51158000D01*
X117531333Y-51158000D01*
X117598000Y-51124666D01*
X117631333Y-51091333D01*
X117664666Y-51024666D01*
X117664666Y-50891333D01*
X117631333Y-50824666D01*
X117598000Y-50791333D01*
X117531333Y-50758000D01*
X117364666Y-50758000D01*
X117298000Y-50791333D01*
X117264666Y-50824666D01*
X117231333Y-50891333D01*
X117231333Y-51024666D01*
X117264666Y-51091333D01*
X117298000Y-51124666D01*
X117364666Y-51158000D01*
G04 #@! TO.C,C7*
X137918000Y-64378666D02*
X137951333Y-64412000D01*
X137984666Y-64512000D01*
X137984666Y-64578666D01*
X137951333Y-64678666D01*
X137884666Y-64745333D01*
X137818000Y-64778666D01*
X137684666Y-64812000D01*
X137584666Y-64812000D01*
X137451333Y-64778666D01*
X137384666Y-64745333D01*
X137318000Y-64678666D01*
X137284666Y-64578666D01*
X137284666Y-64512000D01*
X137318000Y-64412000D01*
X137351333Y-64378666D01*
X137284666Y-64145333D02*
X137284666Y-63678666D01*
X137984666Y-63978666D01*
G04 #@! TO.C,C8*
X117598000Y-63108666D02*
X117631333Y-63142000D01*
X117664666Y-63242000D01*
X117664666Y-63308666D01*
X117631333Y-63408666D01*
X117564666Y-63475333D01*
X117498000Y-63508666D01*
X117364666Y-63542000D01*
X117264666Y-63542000D01*
X117131333Y-63508666D01*
X117064666Y-63475333D01*
X116998000Y-63408666D01*
X116964666Y-63308666D01*
X116964666Y-63242000D01*
X116998000Y-63142000D01*
X117031333Y-63108666D01*
X117264666Y-62708666D02*
X117231333Y-62775333D01*
X117198000Y-62808666D01*
X117131333Y-62842000D01*
X117098000Y-62842000D01*
X117031333Y-62808666D01*
X116998000Y-62775333D01*
X116964666Y-62708666D01*
X116964666Y-62575333D01*
X116998000Y-62508666D01*
X117031333Y-62475333D01*
X117098000Y-62442000D01*
X117131333Y-62442000D01*
X117198000Y-62475333D01*
X117231333Y-62508666D01*
X117264666Y-62575333D01*
X117264666Y-62708666D01*
X117298000Y-62775333D01*
X117331333Y-62808666D01*
X117398000Y-62842000D01*
X117531333Y-62842000D01*
X117598000Y-62808666D01*
X117631333Y-62775333D01*
X117664666Y-62708666D01*
X117664666Y-62575333D01*
X117631333Y-62508666D01*
X117598000Y-62475333D01*
X117531333Y-62442000D01*
X117398000Y-62442000D01*
X117331333Y-62475333D01*
X117298000Y-62508666D01*
X117264666Y-62575333D01*
G04 #@! TO.C,R1*
X140016666Y-65394666D02*
X139683333Y-65628000D01*
X140016666Y-65794666D02*
X139316666Y-65794666D01*
X139316666Y-65528000D01*
X139350000Y-65461333D01*
X139383333Y-65428000D01*
X139450000Y-65394666D01*
X139550000Y-65394666D01*
X139616666Y-65428000D01*
X139650000Y-65461333D01*
X139683333Y-65528000D01*
X139683333Y-65794666D01*
X140016666Y-64728000D02*
X140016666Y-65128000D01*
X140016666Y-64928000D02*
X139316666Y-64928000D01*
X139416666Y-64994666D01*
X139483333Y-65061333D01*
X139516666Y-65128000D01*
G04 #@! TO.C,R2*
X140016666Y-68188666D02*
X139683333Y-68422000D01*
X140016666Y-68588666D02*
X139316666Y-68588666D01*
X139316666Y-68322000D01*
X139350000Y-68255333D01*
X139383333Y-68222000D01*
X139450000Y-68188666D01*
X139550000Y-68188666D01*
X139616666Y-68222000D01*
X139650000Y-68255333D01*
X139683333Y-68322000D01*
X139683333Y-68588666D01*
X139383333Y-67922000D02*
X139350000Y-67888666D01*
X139316666Y-67822000D01*
X139316666Y-67655333D01*
X139350000Y-67588666D01*
X139383333Y-67555333D01*
X139450000Y-67522000D01*
X139516666Y-67522000D01*
X139616666Y-67555333D01*
X140016666Y-67955333D01*
X140016666Y-67522000D01*
G04 #@! TO.C,R3*
X116977333Y-71690666D02*
X116744000Y-71357333D01*
X116577333Y-71690666D02*
X116577333Y-70990666D01*
X116844000Y-70990666D01*
X116910666Y-71024000D01*
X116944000Y-71057333D01*
X116977333Y-71124000D01*
X116977333Y-71224000D01*
X116944000Y-71290666D01*
X116910666Y-71324000D01*
X116844000Y-71357333D01*
X116577333Y-71357333D01*
X117210666Y-70990666D02*
X117644000Y-70990666D01*
X117410666Y-71257333D01*
X117510666Y-71257333D01*
X117577333Y-71290666D01*
X117610666Y-71324000D01*
X117644000Y-71390666D01*
X117644000Y-71557333D01*
X117610666Y-71624000D01*
X117577333Y-71657333D01*
X117510666Y-71690666D01*
X117310666Y-71690666D01*
X117244000Y-71657333D01*
X117210666Y-71624000D01*
G04 #@! TO.C,R5*
X116911333Y-76134666D02*
X116678000Y-75801333D01*
X116511333Y-76134666D02*
X116511333Y-75434666D01*
X116778000Y-75434666D01*
X116844666Y-75468000D01*
X116878000Y-75501333D01*
X116911333Y-75568000D01*
X116911333Y-75668000D01*
X116878000Y-75734666D01*
X116844666Y-75768000D01*
X116778000Y-75801333D01*
X116511333Y-75801333D01*
X117544666Y-75434666D02*
X117211333Y-75434666D01*
X117178000Y-75768000D01*
X117211333Y-75734666D01*
X117278000Y-75701333D01*
X117444666Y-75701333D01*
X117511333Y-75734666D01*
X117544666Y-75768000D01*
X117578000Y-75834666D01*
X117578000Y-76001333D01*
X117544666Y-76068000D01*
X117511333Y-76101333D01*
X117444666Y-76134666D01*
X117278000Y-76134666D01*
X117211333Y-76101333D01*
X117178000Y-76068000D01*
G04 #@! TO.C,R6*
X117297333Y-78676666D02*
X117064000Y-78343333D01*
X116897333Y-78676666D02*
X116897333Y-77976666D01*
X117164000Y-77976666D01*
X117230666Y-78010000D01*
X117264000Y-78043333D01*
X117297333Y-78110000D01*
X117297333Y-78210000D01*
X117264000Y-78276666D01*
X117230666Y-78310000D01*
X117164000Y-78343333D01*
X116897333Y-78343333D01*
X117897333Y-77976666D02*
X117764000Y-77976666D01*
X117697333Y-78010000D01*
X117664000Y-78043333D01*
X117597333Y-78143333D01*
X117564000Y-78276666D01*
X117564000Y-78543333D01*
X117597333Y-78610000D01*
X117630666Y-78643333D01*
X117697333Y-78676666D01*
X117830666Y-78676666D01*
X117897333Y-78643333D01*
X117930666Y-78610000D01*
X117964000Y-78543333D01*
X117964000Y-78376666D01*
X117930666Y-78310000D01*
X117897333Y-78276666D01*
X117830666Y-78243333D01*
X117697333Y-78243333D01*
X117630666Y-78276666D01*
X117597333Y-78310000D01*
X117564000Y-78376666D01*
G04 #@! TD*
M02*
