G04 #@! TF.GenerationSoftware,KiCad,Pcbnew,(5.0.0-3-g5ebb6b6)*
G04 #@! TF.CreationDate,2018-11-09T10:28:32+01:00*
G04 #@! TF.ProjectId,WifiModem_IIC+,576966694D6F64656D5F4949432B2E6B,rev?*
G04 #@! TF.SameCoordinates,Original*
G04 #@! TF.FileFunction,Paste,Top*
G04 #@! TF.FilePolarity,Positive*
%FSLAX46Y46*%
G04 Gerber Fmt 4.6, Leading zero omitted, Abs format (unit mm)*
G04 Created by KiCad (PCBNEW (5.0.0-3-g5ebb6b6)) date Friday, 09 November 2018 at 10:28:32*
%MOMM*%
%LPD*%
G01*
G04 APERTURE LIST*
%ADD10R,2.500000X1.000000*%
%ADD11R,1.000000X1.800000*%
%ADD12R,0.900000X1.200000*%
%ADD13R,1.600000X2.000000*%
%ADD14R,1.500000X0.350000*%
%ADD15R,0.700000X1.300000*%
%ADD16R,2.000000X1.500000*%
%ADD17R,2.000000X3.800000*%
%ADD18R,1.000000X1.250000*%
%ADD19R,1.950000X2.500000*%
%ADD20R,1.250000X1.000000*%
G04 APERTURE END LIST*
D10*
G04 #@! TO.C,U1*
X120904000Y-82200000D03*
X120904000Y-80200000D03*
X120904000Y-78200000D03*
X120904000Y-76200000D03*
X120904000Y-74200000D03*
X120904000Y-72200000D03*
X120904000Y-70200000D03*
X120904000Y-68200000D03*
D11*
X123504000Y-66700000D03*
X125504000Y-66700000D03*
X127504000Y-66700000D03*
X129504000Y-66700000D03*
X131504000Y-66700000D03*
X133504000Y-66700000D03*
D10*
X136104000Y-68200000D03*
X136104000Y-70200000D03*
X136104000Y-72200000D03*
X136104000Y-74200000D03*
X136104000Y-76200000D03*
X136104000Y-78200000D03*
X136104000Y-80200000D03*
X136104000Y-82200000D03*
G04 #@! TD*
D12*
G04 #@! TO.C,D1*
X142620000Y-50038000D03*
X139320000Y-50038000D03*
G04 #@! TD*
D13*
G04 #@! TO.C,SW3*
X141986000Y-62550000D03*
X141986000Y-57150000D03*
G04 #@! TD*
D14*
G04 #@! TO.C,U3*
X126458000Y-57202000D03*
X126458000Y-57852000D03*
X126458000Y-58502000D03*
X126458000Y-59152000D03*
X126458000Y-59802000D03*
X126458000Y-60452000D03*
X126458000Y-61102000D03*
X126458000Y-61752000D03*
X126458000Y-62402000D03*
X126458000Y-63052000D03*
X132588000Y-63037000D03*
X132588000Y-62387000D03*
X132588000Y-61737000D03*
X132588000Y-61087000D03*
X132588000Y-60452000D03*
X132588000Y-59802000D03*
X132588000Y-59152000D03*
X132588000Y-58502000D03*
X132588000Y-57852000D03*
X132588000Y-57202000D03*
G04 #@! TD*
D15*
G04 #@! TO.C,R4*
X143002000Y-70358000D03*
X141102000Y-70358000D03*
G04 #@! TD*
D16*
G04 #@! TO.C,U2*
X118364000Y-59450000D03*
X118364000Y-54850000D03*
X118364000Y-57150000D03*
D17*
X112064000Y-57150000D03*
G04 #@! TD*
D18*
G04 #@! TO.C,C5*
X123952000Y-62992000D03*
X121952000Y-62992000D03*
G04 #@! TD*
D19*
G04 #@! TO.C,C6*
X112012000Y-51308000D03*
X115062000Y-51308000D03*
G04 #@! TD*
D20*
G04 #@! TO.C,C7*
X135890000Y-63246000D03*
X135890000Y-65246000D03*
G04 #@! TD*
D19*
G04 #@! TO.C,C8*
X115062000Y-62738000D03*
X112012000Y-62738000D03*
G04 #@! TD*
D15*
G04 #@! TO.C,R1*
X143002000Y-65278000D03*
X141102000Y-65278000D03*
G04 #@! TD*
G04 #@! TO.C,R2*
X143002000Y-67818000D03*
X141102000Y-67818000D03*
G04 #@! TD*
G04 #@! TO.C,R3*
X118110000Y-69850000D03*
X116210000Y-69850000D03*
G04 #@! TD*
G04 #@! TO.C,R5*
X117978000Y-74168000D03*
X116078000Y-74168000D03*
G04 #@! TD*
G04 #@! TO.C,R6*
X118364000Y-80010000D03*
X116464000Y-80010000D03*
G04 #@! TD*
M02*
