M48
;DRILL file {KiCad (5.0.0-3-g5ebb6b6)} date Friday, 09 November 2018 at 10:28:41
;FORMAT={-:-/ absolute / inch / decimal}
FMAT,2
INCH,TZ
T1C0.0157
T2C0.0315
T3C0.0394
%
G90
G05
M72
T1
X4.41Y-2.13
X4.41Y-2.37
X4.51Y-3.16
X4.53Y-2.6
X4.5598Y-3.0402
X4.67Y-2.44
X4.68Y-2.92
X4.69Y-2.6
X4.75Y-2.34
X4.78Y-2.55
X4.88Y-3.08
X4.91Y-2.31
X4.91Y-3.
X4.9104Y-2.252
X4.95Y-3.16
X4.99Y-2.1
X5.04Y-2.2776
X5.09Y-2.39
X5.21Y-2.75
X5.22Y-2.19
X5.25Y-2.92
X5.26Y-3.24
X5.4487Y-2.5713
X5.4487Y-3.0787
X5.46Y-2.25
X5.46Y-2.46
T2
X5.59Y-2.92
X5.59Y-3.22
T3
X4.42Y-2.71
X4.42Y-2.81
X4.42Y-2.91
X4.42Y-3.01
X4.42Y-3.11
X4.42Y-3.21
X5.51Y-2.07
X5.61Y-2.07
X4.74Y-2.02
X4.84Y-2.02
X4.94Y-2.02
X5.04Y-2.02
X5.14Y-2.02
X5.24Y-2.02
X5.34Y-2.02
T0
M30
