G04 #@! TF.GenerationSoftware,KiCad,Pcbnew,(5.0.0-3-g5ebb6b6)*
G04 #@! TF.CreationDate,2018-11-09T10:28:32+01:00*
G04 #@! TF.ProjectId,WifiModem_IIC+,576966694D6F64656D5F4949432B2E6B,rev?*
G04 #@! TF.SameCoordinates,Original*
G04 #@! TF.FileFunction,Copper,L1,Top,Signal*
G04 #@! TF.FilePolarity,Positive*
%FSLAX46Y46*%
G04 Gerber Fmt 4.6, Leading zero omitted, Abs format (unit mm)*
G04 Created by KiCad (PCBNEW (5.0.0-3-g5ebb6b6)) date Friday, 09 November 2018 at 10:28:32*
%MOMM*%
%LPD*%
G01*
G04 APERTURE LIST*
G04 #@! TA.AperFunction,SMDPad,CuDef*
%ADD10R,2.500000X1.000000*%
G04 #@! TD*
G04 #@! TA.AperFunction,SMDPad,CuDef*
%ADD11R,1.000000X1.800000*%
G04 #@! TD*
G04 #@! TA.AperFunction,ComponentPad*
%ADD12O,1.700000X1.700000*%
G04 #@! TD*
G04 #@! TA.AperFunction,ComponentPad*
%ADD13R,1.700000X1.700000*%
G04 #@! TD*
G04 #@! TA.AperFunction,SMDPad,CuDef*
%ADD14R,0.900000X1.200000*%
G04 #@! TD*
G04 #@! TA.AperFunction,ComponentPad*
%ADD15O,1.600000X1.600000*%
G04 #@! TD*
G04 #@! TA.AperFunction,ComponentPad*
%ADD16R,1.600000X1.600000*%
G04 #@! TD*
G04 #@! TA.AperFunction,SMDPad,CuDef*
%ADD17R,1.600000X2.000000*%
G04 #@! TD*
G04 #@! TA.AperFunction,SMDPad,CuDef*
%ADD18R,1.500000X0.350000*%
G04 #@! TD*
G04 #@! TA.AperFunction,SMDPad,CuDef*
%ADD19R,0.700000X1.300000*%
G04 #@! TD*
G04 #@! TA.AperFunction,SMDPad,CuDef*
%ADD20R,2.000000X1.500000*%
G04 #@! TD*
G04 #@! TA.AperFunction,SMDPad,CuDef*
%ADD21R,2.000000X3.800000*%
G04 #@! TD*
G04 #@! TA.AperFunction,SMDPad,CuDef*
%ADD22R,1.000000X1.250000*%
G04 #@! TD*
G04 #@! TA.AperFunction,SMDPad,CuDef*
%ADD23R,1.950000X2.500000*%
G04 #@! TD*
G04 #@! TA.AperFunction,SMDPad,CuDef*
%ADD24R,1.250000X1.000000*%
G04 #@! TD*
G04 #@! TA.AperFunction,ViaPad*
%ADD25C,0.800000*%
G04 #@! TD*
G04 #@! TA.AperFunction,Conductor*
%ADD26C,0.350000*%
G04 #@! TD*
G04 #@! TA.AperFunction,Conductor*
%ADD27C,0.250000*%
G04 #@! TD*
G04 #@! TA.AperFunction,Conductor*
%ADD28C,0.508000*%
G04 #@! TD*
G04 #@! TA.AperFunction,Conductor*
%ADD29C,0.500000*%
G04 #@! TD*
G04 #@! TA.AperFunction,Conductor*
%ADD30C,0.450000*%
G04 #@! TD*
G04 #@! TA.AperFunction,Conductor*
%ADD31C,0.254000*%
G04 #@! TD*
G04 APERTURE END LIST*
D10*
G04 #@! TO.P,U1,22*
G04 #@! TO.N,TXD0*
X120904000Y-82200000D03*
G04 #@! TO.P,U1,21*
G04 #@! TO.N,RXD0*
X120904000Y-80200000D03*
G04 #@! TO.P,U1,20*
G04 #@! TO.N,GPIO5*
X120904000Y-78200000D03*
G04 #@! TO.P,U1,19*
G04 #@! TO.N,GPIO4*
X120904000Y-76200000D03*
G04 #@! TO.P,U1,18*
G04 #@! TO.N,iDTR*
X120904000Y-74200000D03*
G04 #@! TO.P,U1,17*
G04 #@! TO.N,Net-(U1-Pad17)*
X120904000Y-72200000D03*
G04 #@! TO.P,U1,16*
G04 #@! TO.N,GPIO15*
X120904000Y-70200000D03*
G04 #@! TO.P,U1,15*
G04 #@! TO.N,GND*
X120904000Y-68200000D03*
D11*
G04 #@! TO.P,U1,14*
G04 #@! TO.N,Net-(U1-Pad14)*
X123504000Y-66700000D03*
G04 #@! TO.P,U1,13*
G04 #@! TO.N,Net-(U1-Pad13)*
X125504000Y-66700000D03*
G04 #@! TO.P,U1,12*
G04 #@! TO.N,Net-(U1-Pad12)*
X127504000Y-66700000D03*
G04 #@! TO.P,U1,11*
G04 #@! TO.N,Net-(U1-Pad11)*
X129504000Y-66700000D03*
G04 #@! TO.P,U1,10*
G04 #@! TO.N,Net-(U1-Pad10)*
X131504000Y-66700000D03*
G04 #@! TO.P,U1,9*
G04 #@! TO.N,Net-(U1-Pad9)*
X133504000Y-66700000D03*
D10*
G04 #@! TO.P,U1,8*
G04 #@! TO.N,+3V3*
X136104000Y-68200000D03*
G04 #@! TO.P,U1,7*
G04 #@! TO.N,GPIO13*
X136104000Y-70200000D03*
G04 #@! TO.P,U1,6*
G04 #@! TO.N,GPIO12*
X136104000Y-72200000D03*
G04 #@! TO.P,U1,5*
G04 #@! TO.N,GPIO14*
X136104000Y-74200000D03*
G04 #@! TO.P,U1,4*
G04 #@! TO.N,GPIO16*
X136104000Y-76200000D03*
G04 #@! TO.P,U1,3*
G04 #@! TO.N,Net-(R1-Pad2)*
X136104000Y-78200000D03*
G04 #@! TO.P,U1,2*
G04 #@! TO.N,Net-(U1-Pad2)*
X136104000Y-80200000D03*
G04 #@! TO.P,U1,1*
G04 #@! TO.N,RESET*
X136104000Y-82200000D03*
G04 #@! TD*
D12*
G04 #@! TO.P,J2,6*
G04 #@! TO.N,iDTR*
X112268000Y-81534000D03*
G04 #@! TO.P,J2,5*
G04 #@! TO.N,RESET*
X112268000Y-78994000D03*
G04 #@! TO.P,J2,4*
G04 #@! TO.N,TXD0*
X112268000Y-76454000D03*
G04 #@! TO.P,J2,3*
G04 #@! TO.N,RXD0*
X112268000Y-73914000D03*
G04 #@! TO.P,J2,2*
G04 #@! TO.N,GND*
X112268000Y-71374000D03*
D13*
G04 #@! TO.P,J2,1*
G04 #@! TO.N,+3V3*
X112268000Y-68834000D03*
G04 #@! TD*
D14*
G04 #@! TO.P,D1,2*
G04 #@! TO.N,Net-(D1-Pad2)*
X142620000Y-50038000D03*
G04 #@! TO.P,D1,1*
G04 #@! TO.N,+5V*
X139320000Y-50038000D03*
G04 #@! TD*
D15*
G04 #@! TO.P,SW2,2*
G04 #@! TO.N,GND*
X141986000Y-81788000D03*
D16*
G04 #@! TO.P,SW2,1*
G04 #@! TO.N,GPIO16*
X141986000Y-74168000D03*
G04 #@! TD*
D17*
G04 #@! TO.P,SW3,1*
G04 #@! TO.N,RESET*
X141986000Y-62550000D03*
G04 #@! TO.P,SW3,2*
G04 #@! TO.N,GND*
X141986000Y-57150000D03*
G04 #@! TD*
D13*
G04 #@! TO.P,J5,1*
G04 #@! TO.N,Net-(D1-Pad2)*
X139954000Y-52578000D03*
D12*
G04 #@! TO.P,J5,2*
G04 #@! TO.N,GND*
X142494000Y-52578000D03*
G04 #@! TD*
D18*
G04 #@! TO.P,U3,1*
G04 #@! TO.N,GPIO5*
X126458000Y-57202000D03*
G04 #@! TO.P,U3,2*
G04 #@! TO.N,+3V3*
X126458000Y-57852000D03*
G04 #@! TO.P,U3,3*
G04 #@! TO.N,GPIO4*
X126458000Y-58502000D03*
G04 #@! TO.P,U3,4*
G04 #@! TO.N,GPIO14*
X126458000Y-59152000D03*
G04 #@! TO.P,U3,5*
G04 #@! TO.N,TXD0*
X126458000Y-59802000D03*
G04 #@! TO.P,U3,6*
G04 #@! TO.N,RXD0A*
X126458000Y-60452000D03*
G04 #@! TO.P,U3,7*
G04 #@! TO.N,Net-(U3-Pad7)*
X126458000Y-61102000D03*
G04 #@! TO.P,U3,8*
G04 #@! TO.N,Net-(U3-Pad8)*
X126458000Y-61752000D03*
G04 #@! TO.P,U3,9*
G04 #@! TO.N,Net-(U3-Pad9)*
X126458000Y-62402000D03*
G04 #@! TO.P,U3,10*
G04 #@! TO.N,+3V3*
X126458000Y-63052000D03*
G04 #@! TO.P,U3,11*
G04 #@! TO.N,GND*
X132588000Y-63037000D03*
G04 #@! TO.P,U3,12*
G04 #@! TO.N,Net-(U3-Pad12)*
X132588000Y-62387000D03*
G04 #@! TO.P,U3,13*
G04 #@! TO.N,Net-(U3-Pad13)*
X132588000Y-61737000D03*
G04 #@! TO.P,U3,14*
G04 #@! TO.N,Net-(U3-Pad14)*
X132588000Y-61087000D03*
G04 #@! TO.P,U3,15*
G04 #@! TO.N,Tx*
X132588000Y-60452000D03*
G04 #@! TO.P,U3,16*
G04 #@! TO.N,Rx*
X132588000Y-59802000D03*
G04 #@! TO.P,U3,17*
G04 #@! TO.N,DTR*
X132588000Y-59152000D03*
G04 #@! TO.P,U3,18*
G04 #@! TO.N,DSR*
X132588000Y-58502000D03*
G04 #@! TO.P,U3,19*
G04 #@! TO.N,+5V*
X132588000Y-57852000D03*
G04 #@! TO.P,U3,20*
G04 #@! TO.N,DCD*
X132588000Y-57202000D03*
G04 #@! TD*
D19*
G04 #@! TO.P,R4,2*
G04 #@! TO.N,+3V3*
X143002000Y-70358000D03*
G04 #@! TO.P,R4,1*
G04 #@! TO.N,RESET*
X141102000Y-70358000D03*
G04 #@! TD*
D12*
G04 #@! TO.P,J3,7*
G04 #@! TO.N,GND*
X135636000Y-51308000D03*
G04 #@! TO.P,J3,6*
G04 #@! TO.N,DSR*
X133096000Y-51308000D03*
G04 #@! TO.P,J3,5*
G04 #@! TO.N,DTR*
X130556000Y-51308000D03*
G04 #@! TO.P,J3,4*
G04 #@! TO.N,DCD*
X128016000Y-51308000D03*
G04 #@! TO.P,J3,3*
G04 #@! TO.N,Tx*
X125476000Y-51308000D03*
G04 #@! TO.P,J3,2*
G04 #@! TO.N,Rx*
X122936000Y-51308000D03*
D13*
G04 #@! TO.P,J3,1*
G04 #@! TO.N,Net-(J3-Pad1)*
X120396000Y-51308000D03*
G04 #@! TD*
D20*
G04 #@! TO.P,U2,1*
G04 #@! TO.N,GND*
X118364000Y-59450000D03*
G04 #@! TO.P,U2,3*
G04 #@! TO.N,+5V*
X118364000Y-54850000D03*
G04 #@! TO.P,U2,2*
G04 #@! TO.N,+3V3*
X118364000Y-57150000D03*
D21*
G04 #@! TO.P,U2,4*
G04 #@! TO.N,N/C*
X112064000Y-57150000D03*
G04 #@! TD*
D22*
G04 #@! TO.P,C5,1*
G04 #@! TO.N,+3V3*
X123952000Y-62992000D03*
G04 #@! TO.P,C5,2*
G04 #@! TO.N,GND*
X121952000Y-62992000D03*
G04 #@! TD*
D23*
G04 #@! TO.P,C6,2*
G04 #@! TO.N,GND*
X112012000Y-51308000D03*
G04 #@! TO.P,C6,1*
G04 #@! TO.N,+5V*
X115062000Y-51308000D03*
G04 #@! TD*
D24*
G04 #@! TO.P,C7,2*
G04 #@! TO.N,GND*
X135890000Y-63246000D03*
G04 #@! TO.P,C7,1*
G04 #@! TO.N,+3V3*
X135890000Y-65246000D03*
G04 #@! TD*
D23*
G04 #@! TO.P,C8,1*
G04 #@! TO.N,+3V3*
X115062000Y-62738000D03*
G04 #@! TO.P,C8,2*
G04 #@! TO.N,GND*
X112012000Y-62738000D03*
G04 #@! TD*
D19*
G04 #@! TO.P,R1,1*
G04 #@! TO.N,+3V3*
X143002000Y-65278000D03*
G04 #@! TO.P,R1,2*
G04 #@! TO.N,Net-(R1-Pad2)*
X141102000Y-65278000D03*
G04 #@! TD*
G04 #@! TO.P,R2,1*
G04 #@! TO.N,+3V3*
X143002000Y-67818000D03*
G04 #@! TO.P,R2,2*
G04 #@! TO.N,GPIO16*
X141102000Y-67818000D03*
G04 #@! TD*
G04 #@! TO.P,R3,2*
G04 #@! TO.N,GPIO15*
X118110000Y-69850000D03*
G04 #@! TO.P,R3,1*
G04 #@! TO.N,GND*
X116210000Y-69850000D03*
G04 #@! TD*
G04 #@! TO.P,R5,1*
G04 #@! TO.N,iDTR*
X117978000Y-74168000D03*
G04 #@! TO.P,R5,2*
G04 #@! TO.N,+3V3*
X116078000Y-74168000D03*
G04 #@! TD*
G04 #@! TO.P,R6,2*
G04 #@! TO.N,RXD0A*
X118364000Y-80010000D03*
G04 #@! TO.P,R6,1*
G04 #@! TO.N,RXD0*
X116464000Y-80010000D03*
G04 #@! TD*
D25*
G04 #@! TO.N,+3V3*
X128016000Y-57852000D03*
X115061988Y-66040000D03*
X119125984Y-66040000D03*
G04 #@! TO.N,GND*
X121412000Y-64770000D03*
X120650000Y-59436000D03*
X112014000Y-54102000D03*
X112014000Y-60198000D03*
X132334000Y-69850000D03*
X118618000Y-61976000D03*
X138684000Y-57150000D03*
X138684000Y-62484000D03*
X125730000Y-80264000D03*
G04 #@! TO.N,iDTR*
X118871998Y-74168000D03*
X114554004Y-80264000D03*
G04 #@! TO.N,DCD*
X132588014Y-55626000D03*
G04 #@! TO.N,Rx*
X126745998Y-53340000D03*
G04 #@! TO.N,Net-(R1-Pad2)*
X138398000Y-78200000D03*
X138398000Y-65310000D03*
G04 #@! TO.N,RESET*
X133603992Y-82296000D03*
G04 #@! TO.N,RXD0*
X115819347Y-77220653D03*
G04 #@! TO.N,GPIO5*
X123952000Y-78232000D03*
X124724303Y-57200441D03*
G04 #@! TO.N,GPIO4*
X124714000Y-58674000D03*
X124714000Y-76200000D03*
G04 #@! TO.N,GPIO14*
X133349994Y-74168000D03*
X129285984Y-60706000D03*
G04 #@! TD*
D26*
G04 #@! TO.N,+3V3*
X126458000Y-57852000D02*
X127458000Y-57852000D01*
D27*
X136104000Y-65460000D02*
X135890000Y-65246000D01*
D28*
X136104000Y-68200000D02*
X136104000Y-65460000D01*
D27*
X126398000Y-62992000D02*
X126458000Y-63052000D01*
X137140000Y-68240000D02*
X137160000Y-68220000D01*
X136166000Y-68138000D02*
X136104000Y-68200000D01*
D29*
X128972000Y-63052000D02*
X126458000Y-63052000D01*
D27*
X124012000Y-63052000D02*
X123952000Y-62992000D01*
D28*
X126458000Y-63052000D02*
X124012000Y-63052000D01*
D26*
X127762000Y-57852000D02*
X128016000Y-57852000D01*
X128210000Y-57852000D02*
X127762000Y-57852000D01*
X127762000Y-57852000D02*
X127458000Y-57852000D01*
D27*
X115316000Y-62992000D02*
X115062000Y-62738000D01*
X118364000Y-57150000D02*
X118114000Y-57150000D01*
D28*
X115062000Y-58674000D02*
X115062000Y-62738000D01*
X116586000Y-57150000D02*
X115062000Y-58674000D01*
X118114000Y-57150000D02*
X116586000Y-57150000D01*
D30*
X143002000Y-69458000D02*
X143002000Y-67818000D01*
X143002000Y-70358000D02*
X143002000Y-69458000D01*
X143002000Y-67818000D02*
X143002000Y-66918000D01*
D27*
X136104000Y-68200000D02*
X137343002Y-68200000D01*
D30*
X143002000Y-66548000D02*
X143002000Y-65278000D01*
X143002000Y-66918000D02*
X143002000Y-66548000D01*
X139446000Y-66548000D02*
X143002000Y-66548000D01*
X137794000Y-68200000D02*
X139446000Y-66548000D01*
X137343002Y-68200000D02*
X137794000Y-68200000D01*
D28*
X130394010Y-60036010D02*
X128210000Y-57852000D01*
X130394010Y-62992000D02*
X130394010Y-60036010D01*
D30*
X112268000Y-67534000D02*
X113762000Y-66040000D01*
X112268000Y-68834000D02*
X112268000Y-67534000D01*
X115062000Y-62738000D02*
X115062000Y-66040000D01*
X113762000Y-66040000D02*
X115062000Y-66040000D01*
D27*
X130334010Y-63052000D02*
X130394010Y-62992000D01*
D29*
X128972000Y-63052000D02*
X130334010Y-63052000D01*
D28*
X132080000Y-64770000D02*
X130302000Y-62992000D01*
X135414000Y-64770000D02*
X132080000Y-64770000D01*
X135890000Y-65246000D02*
X135414000Y-64770000D01*
X123190000Y-57150000D02*
X124206000Y-56134000D01*
X127451156Y-56134000D02*
X128016000Y-56698844D01*
X128016000Y-56698844D02*
X128016000Y-57286315D01*
X118364000Y-57150000D02*
X123190000Y-57150000D01*
X124206000Y-56134000D02*
X127451156Y-56134000D01*
X128016000Y-57286315D02*
X128016000Y-57852000D01*
X115062000Y-66040000D02*
X115061988Y-66040000D01*
X114821022Y-69525279D02*
X118306301Y-66040000D01*
X116078000Y-73782000D02*
X114821022Y-72525022D01*
X114821022Y-72525022D02*
X114821022Y-69525279D01*
X118306301Y-66040000D02*
X118560299Y-66040000D01*
X118560299Y-66040000D02*
X119125984Y-66040000D01*
D27*
G04 #@! TO.N,GND*
X135681000Y-63037000D02*
X135890000Y-63246000D01*
D26*
X132588000Y-63037000D02*
X135681000Y-63037000D01*
D27*
X121952000Y-62992000D02*
X121952000Y-64230000D01*
X121952000Y-64230000D02*
X121412000Y-64770000D01*
X119614000Y-59450000D02*
X119628000Y-59436000D01*
X118364000Y-59450000D02*
X119614000Y-59450000D01*
X119628000Y-59436000D02*
X120650000Y-59436000D01*
D28*
G04 #@! TO.N,+5V*
X119126000Y-49276000D02*
X118364000Y-50038000D01*
X116287000Y-51308000D02*
X118364000Y-51308000D01*
D29*
X115062000Y-51308000D02*
X116287000Y-51308000D01*
D28*
X118364000Y-51308000D02*
X118364000Y-54850000D01*
X118364000Y-50038000D02*
X118364000Y-51308000D01*
D26*
X132588000Y-57852000D02*
X133588000Y-57852000D01*
D28*
X137668000Y-49276000D02*
X119126000Y-49276000D01*
X137668000Y-50038000D02*
X137668000Y-49276000D01*
X139412000Y-50038000D02*
X137668000Y-50038000D01*
X137668000Y-55626000D02*
X137668000Y-49276000D01*
X135442000Y-57852000D02*
X137668000Y-55626000D01*
X133588000Y-57852000D02*
X135442000Y-57852000D01*
D29*
G04 #@! TO.N,Net-(D1-Pad2)*
X141732000Y-50038000D02*
X142620000Y-50038000D01*
D28*
X141478000Y-50038000D02*
X141732000Y-50038000D01*
X139954000Y-51562000D02*
X141478000Y-50038000D01*
X139954000Y-52578000D02*
X139954000Y-51562000D01*
D27*
G04 #@! TO.N,DSR*
X133096000Y-53086000D02*
X133096000Y-51054000D01*
X131318000Y-54864000D02*
X133096000Y-53086000D01*
X131318000Y-58166000D02*
X131318000Y-54864000D01*
X131654000Y-58502000D02*
X131318000Y-58166000D01*
X132588000Y-58502000D02*
X131654000Y-58502000D01*
G04 #@! TO.N,iDTR*
X118010000Y-74200000D02*
X117978000Y-74168000D01*
X118872000Y-74200000D02*
X118010000Y-74200000D01*
X120904000Y-74200000D02*
X118872000Y-74200000D01*
X118872000Y-74200000D02*
X118871998Y-74199998D01*
X118871998Y-74199998D02*
X118871998Y-74168000D01*
X114554004Y-81025996D02*
X114554004Y-80264000D01*
X114046000Y-81534000D02*
X114554004Y-81025996D01*
X112268000Y-81534000D02*
X114046000Y-81534000D01*
G04 #@! TO.N,DCD*
X132588000Y-55626014D02*
X132588014Y-55626000D01*
X132588000Y-57202000D02*
X132588000Y-55626014D01*
G04 #@! TO.N,Tx*
X125476000Y-52510081D02*
X125476000Y-51308000D01*
X129540000Y-58297230D02*
X129540000Y-57404000D01*
X129540000Y-57404000D02*
X125476000Y-53340000D01*
X132588000Y-60452000D02*
X131694770Y-60452000D01*
X131694770Y-60452000D02*
X129540000Y-58297230D01*
X125476000Y-53340000D02*
X125476000Y-52510081D01*
G04 #@! TO.N,Rx*
X130048000Y-58168820D02*
X130048000Y-56642002D01*
X131681180Y-59802000D02*
X130048000Y-58168820D01*
X132588000Y-59802000D02*
X131681180Y-59802000D01*
X130048000Y-56642002D02*
X127145997Y-53739999D01*
X127145997Y-53739999D02*
X126745998Y-53340000D01*
G04 #@! TO.N,GPIO16*
X136104000Y-76200000D02*
X141478000Y-76200000D01*
X141986000Y-75692000D02*
X141986000Y-74168000D01*
X141478000Y-76200000D02*
X141986000Y-75692000D01*
X140208000Y-67818000D02*
X141102000Y-67818000D01*
X139700000Y-73406000D02*
X139700000Y-68326000D01*
X139700000Y-68326000D02*
X140208000Y-67818000D01*
X140462000Y-74168000D02*
X139700000Y-73406000D01*
X141986000Y-74168000D02*
X140462000Y-74168000D01*
G04 #@! TO.N,Net-(R1-Pad2)*
X137148000Y-78232000D02*
X137140000Y-78240000D01*
X136104000Y-78200000D02*
X138398000Y-78200000D01*
X141070000Y-65310000D02*
X141102000Y-65278000D01*
X138398000Y-65310000D02*
X141070000Y-65310000D01*
G04 #@! TO.N,GPIO15*
X121940000Y-70240000D02*
X121822000Y-70358000D01*
X119060000Y-70200000D02*
X120904000Y-70200000D01*
X118710000Y-69850000D02*
X119060000Y-70200000D01*
X118110000Y-69850000D02*
X118710000Y-69850000D01*
G04 #@! TO.N,RESET*
X137196000Y-82296000D02*
X137140000Y-82240000D01*
X141510000Y-63238000D02*
X141510000Y-63335691D01*
X142240000Y-62484000D02*
X141478000Y-62550000D01*
X138526000Y-82200000D02*
X136104000Y-82200000D01*
X144272000Y-76454000D02*
X138526000Y-82200000D01*
X144272000Y-72390000D02*
X144272000Y-76454000D01*
X141986000Y-72390000D02*
X144272000Y-72390000D01*
X141102000Y-71506000D02*
X141986000Y-72390000D01*
X141102000Y-70358000D02*
X141102000Y-71506000D01*
X143510000Y-62484000D02*
X141986000Y-62484000D01*
X144272000Y-63246000D02*
X143510000Y-62484000D01*
X144272000Y-72390000D02*
X144272000Y-63246000D01*
X136104000Y-82200000D02*
X133699992Y-82200000D01*
X133699992Y-82200000D02*
X133603992Y-82296000D01*
G04 #@! TO.N,RXD0A*
X118364000Y-79110000D02*
X118364000Y-80010000D01*
X118364000Y-78486000D02*
X118364000Y-79110000D01*
X114242011Y-74364011D02*
X118364000Y-78486000D01*
X122867413Y-60452000D02*
X114242011Y-69077402D01*
X126458000Y-60452000D02*
X122867413Y-60452000D01*
X114242011Y-69077402D02*
X114242011Y-74364011D01*
G04 #@! TO.N,RXD0*
X120154000Y-80200000D02*
X118820000Y-81534000D01*
X120904000Y-80200000D02*
X120154000Y-80200000D01*
X118820000Y-81534000D02*
X116840000Y-81534000D01*
X116464000Y-81158000D02*
X116464000Y-80010000D01*
X116840000Y-81534000D02*
X116464000Y-81158000D01*
X116464000Y-80010000D02*
X116464000Y-78110000D01*
X116464000Y-78110000D02*
X116464000Y-77856000D01*
X115828653Y-77220653D02*
X115819347Y-77220653D01*
X116464000Y-77856000D02*
X115828653Y-77220653D01*
G04 #@! TO.N,GPIO5*
X123944000Y-78240000D02*
X123952000Y-78232000D01*
X121940000Y-78240000D02*
X123944000Y-78240000D01*
X126458000Y-57202000D02*
X124725862Y-57202000D01*
X124725862Y-57202000D02*
X124724303Y-57200441D01*
G04 #@! TO.N,GPIO4*
X126458000Y-58502000D02*
X124886000Y-58502000D01*
X124886000Y-58502000D02*
X124714000Y-58674000D01*
X121980000Y-76200000D02*
X121940000Y-76240000D01*
X124714000Y-76200000D02*
X121980000Y-76200000D01*
G04 #@! TO.N,GPIO14*
X137140000Y-74240000D02*
X137068000Y-74168000D01*
X137068000Y-74168000D02*
X133915679Y-74168000D01*
X133915679Y-74168000D02*
X133349994Y-74168000D01*
X129285984Y-60197984D02*
X129285984Y-60706000D01*
X128240000Y-59152000D02*
X129285984Y-60197984D01*
X126458000Y-59152000D02*
X128240000Y-59152000D01*
G04 #@! TO.N,TXD0*
X116869590Y-82200000D02*
X115279005Y-80609415D01*
X115279005Y-80609415D02*
X115279005Y-77941005D01*
X120904000Y-82200000D02*
X116869590Y-82200000D01*
X113792000Y-76454000D02*
X112268000Y-76454000D01*
X115279005Y-77941005D02*
X113792000Y-76454000D01*
X122881002Y-59802000D02*
X113792000Y-68891002D01*
X113792000Y-68891002D02*
X113792000Y-76454000D01*
X126458000Y-59802000D02*
X122881002Y-59802000D01*
G04 #@! TO.N,DTR*
X130556000Y-52510081D02*
X130556000Y-51308000D01*
X130556000Y-58040410D02*
X130556000Y-52510081D01*
X131697590Y-59182000D02*
X130556000Y-58040410D01*
X131826000Y-59182000D02*
X131697590Y-59182000D01*
X131856000Y-59152000D02*
X131826000Y-59182000D01*
X132588000Y-59152000D02*
X131856000Y-59152000D01*
G04 #@! TD*
D31*
G04 #@! TO.N,GND*
G36*
X144532001Y-83039000D02*
X137614010Y-83039000D01*
X137657395Y-83003395D01*
X137710755Y-82938376D01*
X137750405Y-82864196D01*
X137774822Y-82783707D01*
X137777945Y-82752000D01*
X138498894Y-82752000D01*
X138526000Y-82754670D01*
X138553106Y-82752000D01*
X138553109Y-82752000D01*
X138634211Y-82744012D01*
X138738263Y-82712448D01*
X138834158Y-82661191D01*
X138918211Y-82592211D01*
X138935501Y-82571143D01*
X139402292Y-82104352D01*
X140800477Y-82104352D01*
X140884974Y-82329557D01*
X141011782Y-82533951D01*
X141176029Y-82709678D01*
X141371403Y-82849986D01*
X141590395Y-82949482D01*
X141669649Y-82973518D01*
X141859000Y-82901028D01*
X141859000Y-81915000D01*
X142113000Y-81915000D01*
X142113000Y-82901028D01*
X142302351Y-82973518D01*
X142381605Y-82949482D01*
X142600597Y-82849986D01*
X142795971Y-82709678D01*
X142960218Y-82533951D01*
X143087026Y-82329557D01*
X143171523Y-82104352D01*
X143099666Y-81915000D01*
X142113000Y-81915000D01*
X141859000Y-81915000D01*
X140872334Y-81915000D01*
X140800477Y-82104352D01*
X139402292Y-82104352D01*
X140034996Y-81471648D01*
X140800477Y-81471648D01*
X140872334Y-81661000D01*
X141859000Y-81661000D01*
X141859000Y-80674972D01*
X142113000Y-80674972D01*
X142113000Y-81661000D01*
X143099666Y-81661000D01*
X143171523Y-81471648D01*
X143087026Y-81246443D01*
X142960218Y-81042049D01*
X142795971Y-80866322D01*
X142600597Y-80726014D01*
X142381605Y-80626518D01*
X142302351Y-80602482D01*
X142113000Y-80674972D01*
X141859000Y-80674972D01*
X141669649Y-80602482D01*
X141590395Y-80626518D01*
X141371403Y-80726014D01*
X141176029Y-80866322D01*
X141011782Y-81042049D01*
X140884974Y-81246443D01*
X140800477Y-81471648D01*
X140034996Y-81471648D01*
X144532001Y-76974645D01*
X144532001Y-83039000D01*
X144532001Y-83039000D01*
G37*
X144532001Y-83039000D02*
X137614010Y-83039000D01*
X137657395Y-83003395D01*
X137710755Y-82938376D01*
X137750405Y-82864196D01*
X137774822Y-82783707D01*
X137777945Y-82752000D01*
X138498894Y-82752000D01*
X138526000Y-82754670D01*
X138553106Y-82752000D01*
X138553109Y-82752000D01*
X138634211Y-82744012D01*
X138738263Y-82712448D01*
X138834158Y-82661191D01*
X138918211Y-82592211D01*
X138935501Y-82571143D01*
X139402292Y-82104352D01*
X140800477Y-82104352D01*
X140884974Y-82329557D01*
X141011782Y-82533951D01*
X141176029Y-82709678D01*
X141371403Y-82849986D01*
X141590395Y-82949482D01*
X141669649Y-82973518D01*
X141859000Y-82901028D01*
X141859000Y-81915000D01*
X142113000Y-81915000D01*
X142113000Y-82901028D01*
X142302351Y-82973518D01*
X142381605Y-82949482D01*
X142600597Y-82849986D01*
X142795971Y-82709678D01*
X142960218Y-82533951D01*
X143087026Y-82329557D01*
X143171523Y-82104352D01*
X143099666Y-81915000D01*
X142113000Y-81915000D01*
X141859000Y-81915000D01*
X140872334Y-81915000D01*
X140800477Y-82104352D01*
X139402292Y-82104352D01*
X140034996Y-81471648D01*
X140800477Y-81471648D01*
X140872334Y-81661000D01*
X141859000Y-81661000D01*
X141859000Y-80674972D01*
X142113000Y-80674972D01*
X142113000Y-81661000D01*
X143099666Y-81661000D01*
X143171523Y-81471648D01*
X143087026Y-81246443D01*
X142960218Y-81042049D01*
X142795971Y-80866322D01*
X142600597Y-80726014D01*
X142381605Y-80626518D01*
X142302351Y-80602482D01*
X142113000Y-80674972D01*
X141859000Y-80674972D01*
X141669649Y-80602482D01*
X141590395Y-80626518D01*
X141371403Y-80726014D01*
X141176029Y-80866322D01*
X141011782Y-81042049D01*
X140884974Y-81246443D01*
X140800477Y-81471648D01*
X140034996Y-81471648D01*
X144532001Y-76974645D01*
X144532001Y-83039000D01*
G36*
X117906122Y-49532800D02*
X117880130Y-49554131D01*
X117795030Y-49657827D01*
X117731794Y-49776133D01*
X117710913Y-49844970D01*
X117692854Y-49904502D01*
X117679705Y-50038000D01*
X117683000Y-50071452D01*
X117683000Y-50627000D01*
X116466066Y-50627000D01*
X116466066Y-50058000D01*
X116457822Y-49974293D01*
X116433405Y-49893804D01*
X116393755Y-49819624D01*
X116340395Y-49754605D01*
X116275376Y-49701245D01*
X116201196Y-49661595D01*
X116120707Y-49637178D01*
X116037000Y-49628934D01*
X114087000Y-49628934D01*
X114003293Y-49637178D01*
X113922804Y-49661595D01*
X113848624Y-49701245D01*
X113783605Y-49754605D01*
X113730245Y-49819624D01*
X113690595Y-49893804D01*
X113666178Y-49974293D01*
X113657934Y-50058000D01*
X113657934Y-52558000D01*
X113666178Y-52641707D01*
X113690595Y-52722196D01*
X113730245Y-52796376D01*
X113783605Y-52861395D01*
X113848624Y-52914755D01*
X113922804Y-52954405D01*
X114003293Y-52978822D01*
X114087000Y-52987066D01*
X116037000Y-52987066D01*
X116120707Y-52978822D01*
X116201196Y-52954405D01*
X116275376Y-52914755D01*
X116340395Y-52861395D01*
X116393755Y-52796376D01*
X116433405Y-52722196D01*
X116457822Y-52641707D01*
X116466066Y-52558000D01*
X116466066Y-51989000D01*
X117683000Y-51989000D01*
X117683001Y-53670934D01*
X117364000Y-53670934D01*
X117280293Y-53679178D01*
X117199804Y-53703595D01*
X117125624Y-53743245D01*
X117060605Y-53796605D01*
X117007245Y-53861624D01*
X116967595Y-53935804D01*
X116943178Y-54016293D01*
X116934934Y-54100000D01*
X116934934Y-55600000D01*
X116943178Y-55683707D01*
X116967595Y-55764196D01*
X117007245Y-55838376D01*
X117060605Y-55903395D01*
X117125624Y-55956755D01*
X117199804Y-55996405D01*
X117211655Y-56000000D01*
X117199804Y-56003595D01*
X117125624Y-56043245D01*
X117060605Y-56096605D01*
X117007245Y-56161624D01*
X116967595Y-56235804D01*
X116943178Y-56316293D01*
X116934934Y-56400000D01*
X116934934Y-56469000D01*
X116619450Y-56469000D01*
X116585999Y-56465705D01*
X116552548Y-56469000D01*
X116552547Y-56469000D01*
X116452501Y-56478854D01*
X116324132Y-56517794D01*
X116205826Y-56581030D01*
X116102130Y-56666130D01*
X116080804Y-56692116D01*
X114604122Y-58168800D01*
X114578130Y-58190131D01*
X114493030Y-58293827D01*
X114429794Y-58412133D01*
X114396119Y-58523146D01*
X114390854Y-58540502D01*
X114377705Y-58674000D01*
X114381000Y-58707453D01*
X114381001Y-61058934D01*
X114087000Y-61058934D01*
X114003293Y-61067178D01*
X113922804Y-61091595D01*
X113848624Y-61131245D01*
X113783605Y-61184605D01*
X113730245Y-61249624D01*
X113690595Y-61323804D01*
X113666178Y-61404293D01*
X113657934Y-61488000D01*
X113657934Y-63988000D01*
X113666178Y-64071707D01*
X113690595Y-64152196D01*
X113730245Y-64226376D01*
X113783605Y-64291395D01*
X113848624Y-64344755D01*
X113922804Y-64384405D01*
X114003293Y-64408822D01*
X114087000Y-64417066D01*
X114410001Y-64417066D01*
X114410001Y-65388000D01*
X113794021Y-65388000D01*
X113761999Y-65384846D01*
X113634185Y-65397435D01*
X113565696Y-65418211D01*
X113511283Y-65434717D01*
X113398016Y-65495259D01*
X113298736Y-65576736D01*
X113278320Y-65601613D01*
X111829614Y-67050320D01*
X111804737Y-67070736D01*
X111723260Y-67170016D01*
X111705548Y-67203154D01*
X111662717Y-67283284D01*
X111625435Y-67406186D01*
X111612846Y-67534000D01*
X111614908Y-67554934D01*
X111418000Y-67554934D01*
X111334293Y-67563178D01*
X111253804Y-67587595D01*
X111179624Y-67627245D01*
X111114605Y-67680605D01*
X111061245Y-67745624D01*
X111021595Y-67819804D01*
X110997178Y-67900293D01*
X110988934Y-67984000D01*
X110988934Y-69684000D01*
X110997178Y-69767707D01*
X111021595Y-69848196D01*
X111061245Y-69922376D01*
X111114605Y-69987395D01*
X111179624Y-70040755D01*
X111253804Y-70080405D01*
X111334293Y-70104822D01*
X111418000Y-70113066D01*
X112140998Y-70113066D01*
X112140998Y-70210074D01*
X111943786Y-70138836D01*
X111709047Y-70225820D01*
X111495788Y-70356928D01*
X111312205Y-70527122D01*
X111165353Y-70729861D01*
X111060875Y-70957354D01*
X111032842Y-71049787D01*
X111104662Y-71247000D01*
X112141000Y-71247000D01*
X112141000Y-71227000D01*
X112395000Y-71227000D01*
X112395000Y-71247000D01*
X112415000Y-71247000D01*
X112415000Y-71501000D01*
X112395000Y-71501000D01*
X112395000Y-71521000D01*
X112141000Y-71521000D01*
X112141000Y-71501000D01*
X111104662Y-71501000D01*
X111032842Y-71698213D01*
X111060875Y-71790646D01*
X111165353Y-72018139D01*
X111312205Y-72220878D01*
X111495788Y-72391072D01*
X111709047Y-72522180D01*
X111943786Y-72609164D01*
X112140998Y-72537926D01*
X112140998Y-72643331D01*
X112017664Y-72655478D01*
X111776949Y-72728498D01*
X111555104Y-72847076D01*
X111360656Y-73006656D01*
X111201076Y-73201104D01*
X111082498Y-73422949D01*
X111009478Y-73663664D01*
X110984822Y-73914000D01*
X111009478Y-74164336D01*
X111082498Y-74405051D01*
X111201076Y-74626896D01*
X111360656Y-74821344D01*
X111555104Y-74980924D01*
X111776949Y-75099502D01*
X112017664Y-75172522D01*
X112134202Y-75184000D01*
X112017664Y-75195478D01*
X111776949Y-75268498D01*
X111555104Y-75387076D01*
X111360656Y-75546656D01*
X111201076Y-75741104D01*
X111082498Y-75962949D01*
X111009478Y-76203664D01*
X110984822Y-76454000D01*
X111009478Y-76704336D01*
X111082498Y-76945051D01*
X111201076Y-77166896D01*
X111360656Y-77361344D01*
X111555104Y-77520924D01*
X111776949Y-77639502D01*
X112017664Y-77712522D01*
X112134202Y-77724000D01*
X112017664Y-77735478D01*
X111776949Y-77808498D01*
X111555104Y-77927076D01*
X111360656Y-78086656D01*
X111201076Y-78281104D01*
X111082498Y-78502949D01*
X111009478Y-78743664D01*
X110984822Y-78994000D01*
X111009478Y-79244336D01*
X111082498Y-79485051D01*
X111201076Y-79706896D01*
X111360656Y-79901344D01*
X111555104Y-80060924D01*
X111776949Y-80179502D01*
X112017664Y-80252522D01*
X112134202Y-80264000D01*
X112017664Y-80275478D01*
X111776949Y-80348498D01*
X111555104Y-80467076D01*
X111360656Y-80626656D01*
X111201076Y-80821104D01*
X111082498Y-81042949D01*
X111009478Y-81283664D01*
X110984822Y-81534000D01*
X111009478Y-81784336D01*
X111082498Y-82025051D01*
X111201076Y-82246896D01*
X111360656Y-82441344D01*
X111555104Y-82600924D01*
X111776949Y-82719502D01*
X112017664Y-82792522D01*
X112205274Y-82811000D01*
X112330726Y-82811000D01*
X112518336Y-82792522D01*
X112759051Y-82719502D01*
X112980896Y-82600924D01*
X113175344Y-82441344D01*
X113334924Y-82246896D01*
X113420924Y-82086000D01*
X114018894Y-82086000D01*
X114046000Y-82088670D01*
X114073106Y-82086000D01*
X114073109Y-82086000D01*
X114154211Y-82078012D01*
X114258263Y-82046448D01*
X114354158Y-81995191D01*
X114438211Y-81926211D01*
X114455500Y-81905144D01*
X114925158Y-81435488D01*
X114946215Y-81418207D01*
X115015195Y-81334154D01*
X115066452Y-81238259D01*
X115080592Y-81191646D01*
X116460094Y-82571149D01*
X116477379Y-82592211D01*
X116561432Y-82661191D01*
X116657327Y-82712448D01*
X116761379Y-82744012D01*
X116842481Y-82752000D01*
X116842484Y-82752000D01*
X116869590Y-82754670D01*
X116896696Y-82752000D01*
X119230055Y-82752000D01*
X119233178Y-82783707D01*
X119257595Y-82864196D01*
X119297245Y-82938376D01*
X119350605Y-83003395D01*
X119393990Y-83039000D01*
X110484000Y-83039000D01*
X110484000Y-62971750D01*
X110610000Y-62971750D01*
X110610000Y-64030056D01*
X110626409Y-64112551D01*
X110658597Y-64190260D01*
X110705327Y-64260197D01*
X110764803Y-64319672D01*
X110834739Y-64366402D01*
X110912449Y-64398591D01*
X110994944Y-64415000D01*
X111778250Y-64415000D01*
X111885000Y-64308250D01*
X111885000Y-62865000D01*
X112139000Y-62865000D01*
X112139000Y-64308250D01*
X112245750Y-64415000D01*
X113029056Y-64415000D01*
X113111551Y-64398591D01*
X113189261Y-64366402D01*
X113259197Y-64319672D01*
X113318673Y-64260197D01*
X113365403Y-64190260D01*
X113397591Y-64112551D01*
X113414000Y-64030056D01*
X113414000Y-62971750D01*
X113307250Y-62865000D01*
X112139000Y-62865000D01*
X111885000Y-62865000D01*
X110716750Y-62865000D01*
X110610000Y-62971750D01*
X110484000Y-62971750D01*
X110484000Y-61445944D01*
X110610000Y-61445944D01*
X110610000Y-62504250D01*
X110716750Y-62611000D01*
X111885000Y-62611000D01*
X111885000Y-61167750D01*
X112139000Y-61167750D01*
X112139000Y-62611000D01*
X113307250Y-62611000D01*
X113414000Y-62504250D01*
X113414000Y-61445944D01*
X113397591Y-61363449D01*
X113365403Y-61285740D01*
X113318673Y-61215803D01*
X113259197Y-61156328D01*
X113189261Y-61109598D01*
X113111551Y-61077409D01*
X113029056Y-61061000D01*
X112245750Y-61061000D01*
X112139000Y-61167750D01*
X111885000Y-61167750D01*
X111778250Y-61061000D01*
X110994944Y-61061000D01*
X110912449Y-61077409D01*
X110834739Y-61109598D01*
X110764803Y-61156328D01*
X110705327Y-61215803D01*
X110658597Y-61285740D01*
X110626409Y-61363449D01*
X110610000Y-61445944D01*
X110484000Y-61445944D01*
X110484000Y-55250000D01*
X110634934Y-55250000D01*
X110634934Y-59050000D01*
X110643178Y-59133707D01*
X110667595Y-59214196D01*
X110707245Y-59288376D01*
X110760605Y-59353395D01*
X110825624Y-59406755D01*
X110899804Y-59446405D01*
X110980293Y-59470822D01*
X111064000Y-59479066D01*
X113064000Y-59479066D01*
X113147707Y-59470822D01*
X113228196Y-59446405D01*
X113302376Y-59406755D01*
X113367395Y-59353395D01*
X113420755Y-59288376D01*
X113460405Y-59214196D01*
X113484822Y-59133707D01*
X113493066Y-59050000D01*
X113493066Y-55250000D01*
X113484822Y-55166293D01*
X113460405Y-55085804D01*
X113420755Y-55011624D01*
X113367395Y-54946605D01*
X113302376Y-54893245D01*
X113228196Y-54853595D01*
X113147707Y-54829178D01*
X113064000Y-54820934D01*
X111064000Y-54820934D01*
X110980293Y-54829178D01*
X110899804Y-54853595D01*
X110825624Y-54893245D01*
X110760605Y-54946605D01*
X110707245Y-55011624D01*
X110667595Y-55085804D01*
X110643178Y-55166293D01*
X110634934Y-55250000D01*
X110484000Y-55250000D01*
X110484000Y-51541750D01*
X110610000Y-51541750D01*
X110610000Y-52600056D01*
X110626409Y-52682551D01*
X110658597Y-52760260D01*
X110705327Y-52830197D01*
X110764803Y-52889672D01*
X110834739Y-52936402D01*
X110912449Y-52968591D01*
X110994944Y-52985000D01*
X111778250Y-52985000D01*
X111885000Y-52878250D01*
X111885000Y-51435000D01*
X112139000Y-51435000D01*
X112139000Y-52878250D01*
X112245750Y-52985000D01*
X113029056Y-52985000D01*
X113111551Y-52968591D01*
X113189261Y-52936402D01*
X113259197Y-52889672D01*
X113318673Y-52830197D01*
X113365403Y-52760260D01*
X113397591Y-52682551D01*
X113414000Y-52600056D01*
X113414000Y-51541750D01*
X113307250Y-51435000D01*
X112139000Y-51435000D01*
X111885000Y-51435000D01*
X110716750Y-51435000D01*
X110610000Y-51541750D01*
X110484000Y-51541750D01*
X110484000Y-50015944D01*
X110610000Y-50015944D01*
X110610000Y-51074250D01*
X110716750Y-51181000D01*
X111885000Y-51181000D01*
X111885000Y-49737750D01*
X112139000Y-49737750D01*
X112139000Y-51181000D01*
X113307250Y-51181000D01*
X113414000Y-51074250D01*
X113414000Y-50015944D01*
X113397591Y-49933449D01*
X113365403Y-49855740D01*
X113318673Y-49785803D01*
X113259197Y-49726328D01*
X113189261Y-49679598D01*
X113111551Y-49647409D01*
X113029056Y-49631000D01*
X112245750Y-49631000D01*
X112139000Y-49737750D01*
X111885000Y-49737750D01*
X111778250Y-49631000D01*
X110994944Y-49631000D01*
X110912449Y-49647409D01*
X110834739Y-49679598D01*
X110764803Y-49726328D01*
X110705327Y-49785803D01*
X110658597Y-49855740D01*
X110626409Y-49933449D01*
X110610000Y-50015944D01*
X110484000Y-50015944D01*
X110484000Y-49041000D01*
X118397921Y-49041000D01*
X117906122Y-49532800D01*
X117906122Y-49532800D01*
G37*
X117906122Y-49532800D02*
X117880130Y-49554131D01*
X117795030Y-49657827D01*
X117731794Y-49776133D01*
X117710913Y-49844970D01*
X117692854Y-49904502D01*
X117679705Y-50038000D01*
X117683000Y-50071452D01*
X117683000Y-50627000D01*
X116466066Y-50627000D01*
X116466066Y-50058000D01*
X116457822Y-49974293D01*
X116433405Y-49893804D01*
X116393755Y-49819624D01*
X116340395Y-49754605D01*
X116275376Y-49701245D01*
X116201196Y-49661595D01*
X116120707Y-49637178D01*
X116037000Y-49628934D01*
X114087000Y-49628934D01*
X114003293Y-49637178D01*
X113922804Y-49661595D01*
X113848624Y-49701245D01*
X113783605Y-49754605D01*
X113730245Y-49819624D01*
X113690595Y-49893804D01*
X113666178Y-49974293D01*
X113657934Y-50058000D01*
X113657934Y-52558000D01*
X113666178Y-52641707D01*
X113690595Y-52722196D01*
X113730245Y-52796376D01*
X113783605Y-52861395D01*
X113848624Y-52914755D01*
X113922804Y-52954405D01*
X114003293Y-52978822D01*
X114087000Y-52987066D01*
X116037000Y-52987066D01*
X116120707Y-52978822D01*
X116201196Y-52954405D01*
X116275376Y-52914755D01*
X116340395Y-52861395D01*
X116393755Y-52796376D01*
X116433405Y-52722196D01*
X116457822Y-52641707D01*
X116466066Y-52558000D01*
X116466066Y-51989000D01*
X117683000Y-51989000D01*
X117683001Y-53670934D01*
X117364000Y-53670934D01*
X117280293Y-53679178D01*
X117199804Y-53703595D01*
X117125624Y-53743245D01*
X117060605Y-53796605D01*
X117007245Y-53861624D01*
X116967595Y-53935804D01*
X116943178Y-54016293D01*
X116934934Y-54100000D01*
X116934934Y-55600000D01*
X116943178Y-55683707D01*
X116967595Y-55764196D01*
X117007245Y-55838376D01*
X117060605Y-55903395D01*
X117125624Y-55956755D01*
X117199804Y-55996405D01*
X117211655Y-56000000D01*
X117199804Y-56003595D01*
X117125624Y-56043245D01*
X117060605Y-56096605D01*
X117007245Y-56161624D01*
X116967595Y-56235804D01*
X116943178Y-56316293D01*
X116934934Y-56400000D01*
X116934934Y-56469000D01*
X116619450Y-56469000D01*
X116585999Y-56465705D01*
X116552548Y-56469000D01*
X116552547Y-56469000D01*
X116452501Y-56478854D01*
X116324132Y-56517794D01*
X116205826Y-56581030D01*
X116102130Y-56666130D01*
X116080804Y-56692116D01*
X114604122Y-58168800D01*
X114578130Y-58190131D01*
X114493030Y-58293827D01*
X114429794Y-58412133D01*
X114396119Y-58523146D01*
X114390854Y-58540502D01*
X114377705Y-58674000D01*
X114381000Y-58707453D01*
X114381001Y-61058934D01*
X114087000Y-61058934D01*
X114003293Y-61067178D01*
X113922804Y-61091595D01*
X113848624Y-61131245D01*
X113783605Y-61184605D01*
X113730245Y-61249624D01*
X113690595Y-61323804D01*
X113666178Y-61404293D01*
X113657934Y-61488000D01*
X113657934Y-63988000D01*
X113666178Y-64071707D01*
X113690595Y-64152196D01*
X113730245Y-64226376D01*
X113783605Y-64291395D01*
X113848624Y-64344755D01*
X113922804Y-64384405D01*
X114003293Y-64408822D01*
X114087000Y-64417066D01*
X114410001Y-64417066D01*
X114410001Y-65388000D01*
X113794021Y-65388000D01*
X113761999Y-65384846D01*
X113634185Y-65397435D01*
X113565696Y-65418211D01*
X113511283Y-65434717D01*
X113398016Y-65495259D01*
X113298736Y-65576736D01*
X113278320Y-65601613D01*
X111829614Y-67050320D01*
X111804737Y-67070736D01*
X111723260Y-67170016D01*
X111705548Y-67203154D01*
X111662717Y-67283284D01*
X111625435Y-67406186D01*
X111612846Y-67534000D01*
X111614908Y-67554934D01*
X111418000Y-67554934D01*
X111334293Y-67563178D01*
X111253804Y-67587595D01*
X111179624Y-67627245D01*
X111114605Y-67680605D01*
X111061245Y-67745624D01*
X111021595Y-67819804D01*
X110997178Y-67900293D01*
X110988934Y-67984000D01*
X110988934Y-69684000D01*
X110997178Y-69767707D01*
X111021595Y-69848196D01*
X111061245Y-69922376D01*
X111114605Y-69987395D01*
X111179624Y-70040755D01*
X111253804Y-70080405D01*
X111334293Y-70104822D01*
X111418000Y-70113066D01*
X112140998Y-70113066D01*
X112140998Y-70210074D01*
X111943786Y-70138836D01*
X111709047Y-70225820D01*
X111495788Y-70356928D01*
X111312205Y-70527122D01*
X111165353Y-70729861D01*
X111060875Y-70957354D01*
X111032842Y-71049787D01*
X111104662Y-71247000D01*
X112141000Y-71247000D01*
X112141000Y-71227000D01*
X112395000Y-71227000D01*
X112395000Y-71247000D01*
X112415000Y-71247000D01*
X112415000Y-71501000D01*
X112395000Y-71501000D01*
X112395000Y-71521000D01*
X112141000Y-71521000D01*
X112141000Y-71501000D01*
X111104662Y-71501000D01*
X111032842Y-71698213D01*
X111060875Y-71790646D01*
X111165353Y-72018139D01*
X111312205Y-72220878D01*
X111495788Y-72391072D01*
X111709047Y-72522180D01*
X111943786Y-72609164D01*
X112140998Y-72537926D01*
X112140998Y-72643331D01*
X112017664Y-72655478D01*
X111776949Y-72728498D01*
X111555104Y-72847076D01*
X111360656Y-73006656D01*
X111201076Y-73201104D01*
X111082498Y-73422949D01*
X111009478Y-73663664D01*
X110984822Y-73914000D01*
X111009478Y-74164336D01*
X111082498Y-74405051D01*
X111201076Y-74626896D01*
X111360656Y-74821344D01*
X111555104Y-74980924D01*
X111776949Y-75099502D01*
X112017664Y-75172522D01*
X112134202Y-75184000D01*
X112017664Y-75195478D01*
X111776949Y-75268498D01*
X111555104Y-75387076D01*
X111360656Y-75546656D01*
X111201076Y-75741104D01*
X111082498Y-75962949D01*
X111009478Y-76203664D01*
X110984822Y-76454000D01*
X111009478Y-76704336D01*
X111082498Y-76945051D01*
X111201076Y-77166896D01*
X111360656Y-77361344D01*
X111555104Y-77520924D01*
X111776949Y-77639502D01*
X112017664Y-77712522D01*
X112134202Y-77724000D01*
X112017664Y-77735478D01*
X111776949Y-77808498D01*
X111555104Y-77927076D01*
X111360656Y-78086656D01*
X111201076Y-78281104D01*
X111082498Y-78502949D01*
X111009478Y-78743664D01*
X110984822Y-78994000D01*
X111009478Y-79244336D01*
X111082498Y-79485051D01*
X111201076Y-79706896D01*
X111360656Y-79901344D01*
X111555104Y-80060924D01*
X111776949Y-80179502D01*
X112017664Y-80252522D01*
X112134202Y-80264000D01*
X112017664Y-80275478D01*
X111776949Y-80348498D01*
X111555104Y-80467076D01*
X111360656Y-80626656D01*
X111201076Y-80821104D01*
X111082498Y-81042949D01*
X111009478Y-81283664D01*
X110984822Y-81534000D01*
X111009478Y-81784336D01*
X111082498Y-82025051D01*
X111201076Y-82246896D01*
X111360656Y-82441344D01*
X111555104Y-82600924D01*
X111776949Y-82719502D01*
X112017664Y-82792522D01*
X112205274Y-82811000D01*
X112330726Y-82811000D01*
X112518336Y-82792522D01*
X112759051Y-82719502D01*
X112980896Y-82600924D01*
X113175344Y-82441344D01*
X113334924Y-82246896D01*
X113420924Y-82086000D01*
X114018894Y-82086000D01*
X114046000Y-82088670D01*
X114073106Y-82086000D01*
X114073109Y-82086000D01*
X114154211Y-82078012D01*
X114258263Y-82046448D01*
X114354158Y-81995191D01*
X114438211Y-81926211D01*
X114455500Y-81905144D01*
X114925158Y-81435488D01*
X114946215Y-81418207D01*
X115015195Y-81334154D01*
X115066452Y-81238259D01*
X115080592Y-81191646D01*
X116460094Y-82571149D01*
X116477379Y-82592211D01*
X116561432Y-82661191D01*
X116657327Y-82712448D01*
X116761379Y-82744012D01*
X116842481Y-82752000D01*
X116842484Y-82752000D01*
X116869590Y-82754670D01*
X116896696Y-82752000D01*
X119230055Y-82752000D01*
X119233178Y-82783707D01*
X119257595Y-82864196D01*
X119297245Y-82938376D01*
X119350605Y-83003395D01*
X119393990Y-83039000D01*
X110484000Y-83039000D01*
X110484000Y-62971750D01*
X110610000Y-62971750D01*
X110610000Y-64030056D01*
X110626409Y-64112551D01*
X110658597Y-64190260D01*
X110705327Y-64260197D01*
X110764803Y-64319672D01*
X110834739Y-64366402D01*
X110912449Y-64398591D01*
X110994944Y-64415000D01*
X111778250Y-64415000D01*
X111885000Y-64308250D01*
X111885000Y-62865000D01*
X112139000Y-62865000D01*
X112139000Y-64308250D01*
X112245750Y-64415000D01*
X113029056Y-64415000D01*
X113111551Y-64398591D01*
X113189261Y-64366402D01*
X113259197Y-64319672D01*
X113318673Y-64260197D01*
X113365403Y-64190260D01*
X113397591Y-64112551D01*
X113414000Y-64030056D01*
X113414000Y-62971750D01*
X113307250Y-62865000D01*
X112139000Y-62865000D01*
X111885000Y-62865000D01*
X110716750Y-62865000D01*
X110610000Y-62971750D01*
X110484000Y-62971750D01*
X110484000Y-61445944D01*
X110610000Y-61445944D01*
X110610000Y-62504250D01*
X110716750Y-62611000D01*
X111885000Y-62611000D01*
X111885000Y-61167750D01*
X112139000Y-61167750D01*
X112139000Y-62611000D01*
X113307250Y-62611000D01*
X113414000Y-62504250D01*
X113414000Y-61445944D01*
X113397591Y-61363449D01*
X113365403Y-61285740D01*
X113318673Y-61215803D01*
X113259197Y-61156328D01*
X113189261Y-61109598D01*
X113111551Y-61077409D01*
X113029056Y-61061000D01*
X112245750Y-61061000D01*
X112139000Y-61167750D01*
X111885000Y-61167750D01*
X111778250Y-61061000D01*
X110994944Y-61061000D01*
X110912449Y-61077409D01*
X110834739Y-61109598D01*
X110764803Y-61156328D01*
X110705327Y-61215803D01*
X110658597Y-61285740D01*
X110626409Y-61363449D01*
X110610000Y-61445944D01*
X110484000Y-61445944D01*
X110484000Y-55250000D01*
X110634934Y-55250000D01*
X110634934Y-59050000D01*
X110643178Y-59133707D01*
X110667595Y-59214196D01*
X110707245Y-59288376D01*
X110760605Y-59353395D01*
X110825624Y-59406755D01*
X110899804Y-59446405D01*
X110980293Y-59470822D01*
X111064000Y-59479066D01*
X113064000Y-59479066D01*
X113147707Y-59470822D01*
X113228196Y-59446405D01*
X113302376Y-59406755D01*
X113367395Y-59353395D01*
X113420755Y-59288376D01*
X113460405Y-59214196D01*
X113484822Y-59133707D01*
X113493066Y-59050000D01*
X113493066Y-55250000D01*
X113484822Y-55166293D01*
X113460405Y-55085804D01*
X113420755Y-55011624D01*
X113367395Y-54946605D01*
X113302376Y-54893245D01*
X113228196Y-54853595D01*
X113147707Y-54829178D01*
X113064000Y-54820934D01*
X111064000Y-54820934D01*
X110980293Y-54829178D01*
X110899804Y-54853595D01*
X110825624Y-54893245D01*
X110760605Y-54946605D01*
X110707245Y-55011624D01*
X110667595Y-55085804D01*
X110643178Y-55166293D01*
X110634934Y-55250000D01*
X110484000Y-55250000D01*
X110484000Y-51541750D01*
X110610000Y-51541750D01*
X110610000Y-52600056D01*
X110626409Y-52682551D01*
X110658597Y-52760260D01*
X110705327Y-52830197D01*
X110764803Y-52889672D01*
X110834739Y-52936402D01*
X110912449Y-52968591D01*
X110994944Y-52985000D01*
X111778250Y-52985000D01*
X111885000Y-52878250D01*
X111885000Y-51435000D01*
X112139000Y-51435000D01*
X112139000Y-52878250D01*
X112245750Y-52985000D01*
X113029056Y-52985000D01*
X113111551Y-52968591D01*
X113189261Y-52936402D01*
X113259197Y-52889672D01*
X113318673Y-52830197D01*
X113365403Y-52760260D01*
X113397591Y-52682551D01*
X113414000Y-52600056D01*
X113414000Y-51541750D01*
X113307250Y-51435000D01*
X112139000Y-51435000D01*
X111885000Y-51435000D01*
X110716750Y-51435000D01*
X110610000Y-51541750D01*
X110484000Y-51541750D01*
X110484000Y-50015944D01*
X110610000Y-50015944D01*
X110610000Y-51074250D01*
X110716750Y-51181000D01*
X111885000Y-51181000D01*
X111885000Y-49737750D01*
X112139000Y-49737750D01*
X112139000Y-51181000D01*
X113307250Y-51181000D01*
X113414000Y-51074250D01*
X113414000Y-50015944D01*
X113397591Y-49933449D01*
X113365403Y-49855740D01*
X113318673Y-49785803D01*
X113259197Y-49726328D01*
X113189261Y-49679598D01*
X113111551Y-49647409D01*
X113029056Y-49631000D01*
X112245750Y-49631000D01*
X112139000Y-49737750D01*
X111885000Y-49737750D01*
X111778250Y-49631000D01*
X110994944Y-49631000D01*
X110912449Y-49647409D01*
X110834739Y-49679598D01*
X110764803Y-49726328D01*
X110705327Y-49785803D01*
X110658597Y-49855740D01*
X110626409Y-49933449D01*
X110610000Y-50015944D01*
X110484000Y-50015944D01*
X110484000Y-49041000D01*
X118397921Y-49041000D01*
X117906122Y-49532800D01*
G36*
X125278934Y-61277000D02*
X125287178Y-61360707D01*
X125307289Y-61427000D01*
X125287178Y-61493293D01*
X125278934Y-61577000D01*
X125278934Y-61927000D01*
X125287178Y-62010707D01*
X125307289Y-62077000D01*
X125287178Y-62143293D01*
X125278934Y-62227000D01*
X125278934Y-62371000D01*
X124881066Y-62371000D01*
X124881066Y-62367000D01*
X124872822Y-62283293D01*
X124848405Y-62202804D01*
X124808755Y-62128624D01*
X124755395Y-62063605D01*
X124690376Y-62010245D01*
X124616196Y-61970595D01*
X124535707Y-61946178D01*
X124452000Y-61937934D01*
X123452000Y-61937934D01*
X123368293Y-61946178D01*
X123287804Y-61970595D01*
X123213624Y-62010245D01*
X123148605Y-62063605D01*
X123095245Y-62128624D01*
X123055595Y-62202804D01*
X123031178Y-62283293D01*
X123022934Y-62367000D01*
X123022934Y-63617000D01*
X123031178Y-63700707D01*
X123055595Y-63781196D01*
X123095245Y-63855376D01*
X123148605Y-63920395D01*
X123213624Y-63973755D01*
X123287804Y-64013405D01*
X123368293Y-64037822D01*
X123452000Y-64046066D01*
X124452000Y-64046066D01*
X124535707Y-64037822D01*
X124616196Y-64013405D01*
X124690376Y-63973755D01*
X124755395Y-63920395D01*
X124808755Y-63855376D01*
X124848405Y-63781196D01*
X124863026Y-63733000D01*
X126491453Y-63733000D01*
X126532064Y-63729000D01*
X130075922Y-63729000D01*
X131574800Y-65227879D01*
X131596130Y-65253870D01*
X131699826Y-65338970D01*
X131759626Y-65370934D01*
X131004000Y-65370934D01*
X130920293Y-65379178D01*
X130839804Y-65403595D01*
X130765624Y-65443245D01*
X130700605Y-65496605D01*
X130647245Y-65561624D01*
X130607595Y-65635804D01*
X130583178Y-65716293D01*
X130574934Y-65800000D01*
X130574934Y-67600000D01*
X130583178Y-67683707D01*
X130607595Y-67764196D01*
X130647245Y-67838376D01*
X130700605Y-67903395D01*
X130765624Y-67956755D01*
X130839804Y-67996405D01*
X130920293Y-68020822D01*
X131004000Y-68029066D01*
X132004000Y-68029066D01*
X132087707Y-68020822D01*
X132168196Y-67996405D01*
X132242376Y-67956755D01*
X132307395Y-67903395D01*
X132360755Y-67838376D01*
X132400405Y-67764196D01*
X132424822Y-67683707D01*
X132433066Y-67600000D01*
X132433066Y-65800000D01*
X132424822Y-65716293D01*
X132400405Y-65635804D01*
X132360755Y-65561624D01*
X132307395Y-65496605D01*
X132251825Y-65451000D01*
X132756175Y-65451000D01*
X132700605Y-65496605D01*
X132647245Y-65561624D01*
X132607595Y-65635804D01*
X132583178Y-65716293D01*
X132574934Y-65800000D01*
X132574934Y-67600000D01*
X132583178Y-67683707D01*
X132607595Y-67764196D01*
X132647245Y-67838376D01*
X132700605Y-67903395D01*
X132765624Y-67956755D01*
X132839804Y-67996405D01*
X132920293Y-68020822D01*
X133004000Y-68029066D01*
X134004000Y-68029066D01*
X134087707Y-68020822D01*
X134168196Y-67996405D01*
X134242376Y-67956755D01*
X134307395Y-67903395D01*
X134360755Y-67838376D01*
X134400405Y-67764196D01*
X134424822Y-67683707D01*
X134433066Y-67600000D01*
X134433066Y-65800000D01*
X134424822Y-65716293D01*
X134400405Y-65635804D01*
X134360755Y-65561624D01*
X134307395Y-65496605D01*
X134251825Y-65451000D01*
X134835934Y-65451000D01*
X134835934Y-65746000D01*
X134844178Y-65829707D01*
X134868595Y-65910196D01*
X134908245Y-65984376D01*
X134961605Y-66049395D01*
X135026624Y-66102755D01*
X135100804Y-66142405D01*
X135181293Y-66166822D01*
X135265000Y-66175066D01*
X135423001Y-66175066D01*
X135423000Y-67270934D01*
X134854000Y-67270934D01*
X134770293Y-67279178D01*
X134689804Y-67303595D01*
X134615624Y-67343245D01*
X134550605Y-67396605D01*
X134497245Y-67461624D01*
X134457595Y-67535804D01*
X134433178Y-67616293D01*
X134424934Y-67700000D01*
X134424934Y-68700000D01*
X134433178Y-68783707D01*
X134457595Y-68864196D01*
X134497245Y-68938376D01*
X134550605Y-69003395D01*
X134615624Y-69056755D01*
X134689804Y-69096405D01*
X134770293Y-69120822D01*
X134854000Y-69129066D01*
X137354000Y-69129066D01*
X137437707Y-69120822D01*
X137518196Y-69096405D01*
X137592376Y-69056755D01*
X137657395Y-69003395D01*
X137710755Y-68938376D01*
X137750405Y-68864196D01*
X137754105Y-68852000D01*
X137761978Y-68852000D01*
X137794000Y-68855154D01*
X137826022Y-68852000D01*
X137921814Y-68842565D01*
X138044717Y-68805283D01*
X138157984Y-68744741D01*
X138257264Y-68663264D01*
X138277685Y-68638381D01*
X139716067Y-67200000D01*
X140322934Y-67200000D01*
X140322934Y-67266000D01*
X140235097Y-67266000D01*
X140207999Y-67263331D01*
X140180901Y-67266000D01*
X140180891Y-67266000D01*
X140099789Y-67273988D01*
X139995737Y-67305552D01*
X139899842Y-67356809D01*
X139815789Y-67425789D01*
X139798508Y-67446846D01*
X139328851Y-67916505D01*
X139307790Y-67933789D01*
X139263516Y-67987738D01*
X139238809Y-68017843D01*
X139187552Y-68113738D01*
X139155989Y-68217790D01*
X139145330Y-68326000D01*
X139148001Y-68353116D01*
X139148000Y-73378894D01*
X139145330Y-73406000D01*
X139148000Y-73433106D01*
X139148000Y-73433108D01*
X139155988Y-73514210D01*
X139187552Y-73618262D01*
X139238809Y-73714158D01*
X139307789Y-73798211D01*
X139328856Y-73815500D01*
X140052507Y-74539153D01*
X140069789Y-74560211D01*
X140090845Y-74577491D01*
X140090846Y-74577492D01*
X140153842Y-74629191D01*
X140249737Y-74680448D01*
X140353789Y-74712012D01*
X140462000Y-74722670D01*
X140489108Y-74720000D01*
X140756934Y-74720000D01*
X140756934Y-74968000D01*
X140765178Y-75051707D01*
X140789595Y-75132196D01*
X140829245Y-75206376D01*
X140882605Y-75271395D01*
X140947624Y-75324755D01*
X141021804Y-75364405D01*
X141102293Y-75388822D01*
X141186000Y-75397066D01*
X141434000Y-75397066D01*
X141434000Y-75463354D01*
X141249355Y-75648000D01*
X137777945Y-75648000D01*
X137774822Y-75616293D01*
X137750405Y-75535804D01*
X137710755Y-75461624D01*
X137657395Y-75396605D01*
X137592376Y-75343245D01*
X137518196Y-75303595D01*
X137437707Y-75279178D01*
X137354000Y-75270934D01*
X134854000Y-75270934D01*
X134770293Y-75279178D01*
X134689804Y-75303595D01*
X134615624Y-75343245D01*
X134550605Y-75396605D01*
X134497245Y-75461624D01*
X134457595Y-75535804D01*
X134433178Y-75616293D01*
X134424934Y-75700000D01*
X134424934Y-76700000D01*
X134433178Y-76783707D01*
X134457595Y-76864196D01*
X134497245Y-76938376D01*
X134550605Y-77003395D01*
X134615624Y-77056755D01*
X134689804Y-77096405D01*
X134770293Y-77120822D01*
X134854000Y-77129066D01*
X137354000Y-77129066D01*
X137437707Y-77120822D01*
X137518196Y-77096405D01*
X137592376Y-77056755D01*
X137657395Y-77003395D01*
X137710755Y-76938376D01*
X137750405Y-76864196D01*
X137774822Y-76783707D01*
X137777945Y-76752000D01*
X141450894Y-76752000D01*
X141478000Y-76754670D01*
X141505106Y-76752000D01*
X141505109Y-76752000D01*
X141586211Y-76744012D01*
X141690263Y-76712448D01*
X141786158Y-76661191D01*
X141870211Y-76592211D01*
X141887500Y-76571144D01*
X142357154Y-76101492D01*
X142378211Y-76084211D01*
X142447191Y-76000158D01*
X142498448Y-75904263D01*
X142530012Y-75800211D01*
X142538000Y-75719109D01*
X142538000Y-75719099D01*
X142540669Y-75692001D01*
X142538000Y-75664903D01*
X142538000Y-75397066D01*
X142786000Y-75397066D01*
X142869707Y-75388822D01*
X142950196Y-75364405D01*
X143024376Y-75324755D01*
X143089395Y-75271395D01*
X143142755Y-75206376D01*
X143182405Y-75132196D01*
X143206822Y-75051707D01*
X143215066Y-74968000D01*
X143215066Y-73368000D01*
X143206822Y-73284293D01*
X143182405Y-73203804D01*
X143142755Y-73129624D01*
X143089395Y-73064605D01*
X143024376Y-73011245D01*
X142950196Y-72971595D01*
X142869707Y-72947178D01*
X142817131Y-72942000D01*
X143720000Y-72942000D01*
X143720001Y-76225353D01*
X138297356Y-81648000D01*
X137777945Y-81648000D01*
X137774822Y-81616293D01*
X137750405Y-81535804D01*
X137710755Y-81461624D01*
X137657395Y-81396605D01*
X137592376Y-81343245D01*
X137518196Y-81303595D01*
X137437707Y-81279178D01*
X137354000Y-81270934D01*
X134854000Y-81270934D01*
X134770293Y-81279178D01*
X134689804Y-81303595D01*
X134615624Y-81343245D01*
X134550605Y-81396605D01*
X134497245Y-81461624D01*
X134457595Y-81535804D01*
X134433178Y-81616293D01*
X134430055Y-81648000D01*
X134122750Y-81648000D01*
X133995723Y-81563123D01*
X133845219Y-81500782D01*
X133685444Y-81469000D01*
X133522540Y-81469000D01*
X133362765Y-81500782D01*
X133212261Y-81563123D01*
X133076811Y-81653628D01*
X132961620Y-81768819D01*
X132871115Y-81904269D01*
X132808774Y-82054773D01*
X132776992Y-82214548D01*
X132776992Y-82377452D01*
X132808774Y-82537227D01*
X132871115Y-82687731D01*
X132961620Y-82823181D01*
X133076811Y-82938372D01*
X133212261Y-83028877D01*
X133236700Y-83039000D01*
X122414010Y-83039000D01*
X122457395Y-83003395D01*
X122510755Y-82938376D01*
X122550405Y-82864196D01*
X122574822Y-82783707D01*
X122583066Y-82700000D01*
X122583066Y-81700000D01*
X122574822Y-81616293D01*
X122550405Y-81535804D01*
X122510755Y-81461624D01*
X122457395Y-81396605D01*
X122392376Y-81343245D01*
X122318196Y-81303595D01*
X122237707Y-81279178D01*
X122154000Y-81270934D01*
X119863710Y-81270934D01*
X120005579Y-81129066D01*
X122154000Y-81129066D01*
X122237707Y-81120822D01*
X122318196Y-81096405D01*
X122392376Y-81056755D01*
X122457395Y-81003395D01*
X122510755Y-80938376D01*
X122550405Y-80864196D01*
X122574822Y-80783707D01*
X122583066Y-80700000D01*
X122583066Y-79700000D01*
X134424934Y-79700000D01*
X134424934Y-80700000D01*
X134433178Y-80783707D01*
X134457595Y-80864196D01*
X134497245Y-80938376D01*
X134550605Y-81003395D01*
X134615624Y-81056755D01*
X134689804Y-81096405D01*
X134770293Y-81120822D01*
X134854000Y-81129066D01*
X137354000Y-81129066D01*
X137437707Y-81120822D01*
X137518196Y-81096405D01*
X137592376Y-81056755D01*
X137657395Y-81003395D01*
X137710755Y-80938376D01*
X137750405Y-80864196D01*
X137774822Y-80783707D01*
X137783066Y-80700000D01*
X137783066Y-79700000D01*
X137774822Y-79616293D01*
X137750405Y-79535804D01*
X137710755Y-79461624D01*
X137657395Y-79396605D01*
X137592376Y-79343245D01*
X137518196Y-79303595D01*
X137437707Y-79279178D01*
X137354000Y-79270934D01*
X134854000Y-79270934D01*
X134770293Y-79279178D01*
X134689804Y-79303595D01*
X134615624Y-79343245D01*
X134550605Y-79396605D01*
X134497245Y-79461624D01*
X134457595Y-79535804D01*
X134433178Y-79616293D01*
X134424934Y-79700000D01*
X122583066Y-79700000D01*
X122574822Y-79616293D01*
X122550405Y-79535804D01*
X122510755Y-79461624D01*
X122457395Y-79396605D01*
X122392376Y-79343245D01*
X122318196Y-79303595D01*
X122237707Y-79279178D01*
X122154000Y-79270934D01*
X119654000Y-79270934D01*
X119570293Y-79279178D01*
X119489804Y-79303595D01*
X119415624Y-79343245D01*
X119350605Y-79396605D01*
X119297245Y-79461624D01*
X119257595Y-79535804D01*
X119233178Y-79616293D01*
X119224934Y-79700000D01*
X119224934Y-80348421D01*
X119143066Y-80430289D01*
X119143066Y-79360000D01*
X119134822Y-79276293D01*
X119110405Y-79195804D01*
X119070755Y-79121624D01*
X119017395Y-79056605D01*
X118952376Y-79003245D01*
X118916000Y-78983802D01*
X118916000Y-78513108D01*
X118918670Y-78486000D01*
X118908012Y-78377789D01*
X118876448Y-78273737D01*
X118825191Y-78177842D01*
X118773492Y-78114846D01*
X118773491Y-78114845D01*
X118756211Y-78093789D01*
X118735154Y-78076508D01*
X118358646Y-77700000D01*
X119224934Y-77700000D01*
X119224934Y-78700000D01*
X119233178Y-78783707D01*
X119257595Y-78864196D01*
X119297245Y-78938376D01*
X119350605Y-79003395D01*
X119415624Y-79056755D01*
X119489804Y-79096405D01*
X119570293Y-79120822D01*
X119654000Y-79129066D01*
X122154000Y-79129066D01*
X122237707Y-79120822D01*
X122318196Y-79096405D01*
X122392376Y-79056755D01*
X122457395Y-79003395D01*
X122510755Y-78938376D01*
X122550405Y-78864196D01*
X122572306Y-78792000D01*
X123342447Y-78792000D01*
X123424819Y-78874372D01*
X123560269Y-78964877D01*
X123710773Y-79027218D01*
X123870548Y-79059000D01*
X124033452Y-79059000D01*
X124193227Y-79027218D01*
X124343731Y-78964877D01*
X124479181Y-78874372D01*
X124594372Y-78759181D01*
X124684877Y-78623731D01*
X124747218Y-78473227D01*
X124779000Y-78313452D01*
X124779000Y-78150548D01*
X124747218Y-77990773D01*
X124684877Y-77840269D01*
X124594372Y-77704819D01*
X124589553Y-77700000D01*
X134424934Y-77700000D01*
X134424934Y-78700000D01*
X134433178Y-78783707D01*
X134457595Y-78864196D01*
X134497245Y-78938376D01*
X134550605Y-79003395D01*
X134615624Y-79056755D01*
X134689804Y-79096405D01*
X134770293Y-79120822D01*
X134854000Y-79129066D01*
X137354000Y-79129066D01*
X137437707Y-79120822D01*
X137518196Y-79096405D01*
X137592376Y-79056755D01*
X137657395Y-79003395D01*
X137710755Y-78938376D01*
X137750405Y-78864196D01*
X137774822Y-78783707D01*
X137777945Y-78752000D01*
X137780447Y-78752000D01*
X137870819Y-78842372D01*
X138006269Y-78932877D01*
X138156773Y-78995218D01*
X138316548Y-79027000D01*
X138479452Y-79027000D01*
X138639227Y-78995218D01*
X138789731Y-78932877D01*
X138925181Y-78842372D01*
X139040372Y-78727181D01*
X139130877Y-78591731D01*
X139193218Y-78441227D01*
X139225000Y-78281452D01*
X139225000Y-78118548D01*
X139193218Y-77958773D01*
X139130877Y-77808269D01*
X139040372Y-77672819D01*
X138925181Y-77557628D01*
X138789731Y-77467123D01*
X138639227Y-77404782D01*
X138479452Y-77373000D01*
X138316548Y-77373000D01*
X138156773Y-77404782D01*
X138006269Y-77467123D01*
X137870819Y-77557628D01*
X137780447Y-77648000D01*
X137777945Y-77648000D01*
X137774822Y-77616293D01*
X137750405Y-77535804D01*
X137710755Y-77461624D01*
X137657395Y-77396605D01*
X137592376Y-77343245D01*
X137518196Y-77303595D01*
X137437707Y-77279178D01*
X137354000Y-77270934D01*
X134854000Y-77270934D01*
X134770293Y-77279178D01*
X134689804Y-77303595D01*
X134615624Y-77343245D01*
X134550605Y-77396605D01*
X134497245Y-77461624D01*
X134457595Y-77535804D01*
X134433178Y-77616293D01*
X134424934Y-77700000D01*
X124589553Y-77700000D01*
X124479181Y-77589628D01*
X124343731Y-77499123D01*
X124193227Y-77436782D01*
X124033452Y-77405000D01*
X123870548Y-77405000D01*
X123710773Y-77436782D01*
X123560269Y-77499123D01*
X123424819Y-77589628D01*
X123326447Y-77688000D01*
X122581884Y-77688000D01*
X122574822Y-77616293D01*
X122550405Y-77535804D01*
X122510755Y-77461624D01*
X122457395Y-77396605D01*
X122392376Y-77343245D01*
X122318196Y-77303595D01*
X122237707Y-77279178D01*
X122154000Y-77270934D01*
X119654000Y-77270934D01*
X119570293Y-77279178D01*
X119489804Y-77303595D01*
X119415624Y-77343245D01*
X119350605Y-77396605D01*
X119297245Y-77461624D01*
X119257595Y-77535804D01*
X119233178Y-77616293D01*
X119224934Y-77700000D01*
X118358646Y-77700000D01*
X116358646Y-75700000D01*
X119224934Y-75700000D01*
X119224934Y-76700000D01*
X119233178Y-76783707D01*
X119257595Y-76864196D01*
X119297245Y-76938376D01*
X119350605Y-77003395D01*
X119415624Y-77056755D01*
X119489804Y-77096405D01*
X119570293Y-77120822D01*
X119654000Y-77129066D01*
X122154000Y-77129066D01*
X122237707Y-77120822D01*
X122318196Y-77096405D01*
X122392376Y-77056755D01*
X122457395Y-77003395D01*
X122510755Y-76938376D01*
X122550405Y-76864196D01*
X122574822Y-76783707D01*
X122577945Y-76752000D01*
X124096447Y-76752000D01*
X124186819Y-76842372D01*
X124322269Y-76932877D01*
X124472773Y-76995218D01*
X124632548Y-77027000D01*
X124795452Y-77027000D01*
X124955227Y-76995218D01*
X125105731Y-76932877D01*
X125241181Y-76842372D01*
X125356372Y-76727181D01*
X125446877Y-76591731D01*
X125509218Y-76441227D01*
X125541000Y-76281452D01*
X125541000Y-76118548D01*
X125509218Y-75958773D01*
X125446877Y-75808269D01*
X125356372Y-75672819D01*
X125241181Y-75557628D01*
X125105731Y-75467123D01*
X124955227Y-75404782D01*
X124795452Y-75373000D01*
X124632548Y-75373000D01*
X124472773Y-75404782D01*
X124322269Y-75467123D01*
X124186819Y-75557628D01*
X124096447Y-75648000D01*
X122577945Y-75648000D01*
X122574822Y-75616293D01*
X122550405Y-75535804D01*
X122510755Y-75461624D01*
X122457395Y-75396605D01*
X122392376Y-75343245D01*
X122318196Y-75303595D01*
X122237707Y-75279178D01*
X122154000Y-75270934D01*
X119654000Y-75270934D01*
X119570293Y-75279178D01*
X119489804Y-75303595D01*
X119415624Y-75343245D01*
X119350605Y-75396605D01*
X119297245Y-75461624D01*
X119257595Y-75535804D01*
X119233178Y-75616293D01*
X119224934Y-75700000D01*
X116358646Y-75700000D01*
X115905711Y-75247066D01*
X116428000Y-75247066D01*
X116511707Y-75238822D01*
X116592196Y-75214405D01*
X116666376Y-75174755D01*
X116731395Y-75121395D01*
X116784755Y-75056376D01*
X116824405Y-74982196D01*
X116848822Y-74901707D01*
X116857066Y-74818000D01*
X116857066Y-73518000D01*
X117198934Y-73518000D01*
X117198934Y-74818000D01*
X117207178Y-74901707D01*
X117231595Y-74982196D01*
X117271245Y-75056376D01*
X117324605Y-75121395D01*
X117389624Y-75174755D01*
X117463804Y-75214405D01*
X117544293Y-75238822D01*
X117628000Y-75247066D01*
X118328000Y-75247066D01*
X118411707Y-75238822D01*
X118492196Y-75214405D01*
X118566376Y-75174755D01*
X118631395Y-75121395D01*
X118684755Y-75056376D01*
X118724405Y-74982196D01*
X118724506Y-74981863D01*
X118790546Y-74995000D01*
X118953450Y-74995000D01*
X119113225Y-74963218D01*
X119263729Y-74900877D01*
X119273656Y-74894244D01*
X119297245Y-74938376D01*
X119350605Y-75003395D01*
X119415624Y-75056755D01*
X119489804Y-75096405D01*
X119570293Y-75120822D01*
X119654000Y-75129066D01*
X122154000Y-75129066D01*
X122237707Y-75120822D01*
X122318196Y-75096405D01*
X122392376Y-75056755D01*
X122457395Y-75003395D01*
X122510755Y-74938376D01*
X122550405Y-74864196D01*
X122574822Y-74783707D01*
X122583066Y-74700000D01*
X122583066Y-74086548D01*
X132522994Y-74086548D01*
X132522994Y-74249452D01*
X132554776Y-74409227D01*
X132617117Y-74559731D01*
X132707622Y-74695181D01*
X132822813Y-74810372D01*
X132958263Y-74900877D01*
X133108767Y-74963218D01*
X133268542Y-74995000D01*
X133431446Y-74995000D01*
X133591221Y-74963218D01*
X133741725Y-74900877D01*
X133877175Y-74810372D01*
X133967547Y-74720000D01*
X134426904Y-74720000D01*
X134433178Y-74783707D01*
X134457595Y-74864196D01*
X134497245Y-74938376D01*
X134550605Y-75003395D01*
X134615624Y-75056755D01*
X134689804Y-75096405D01*
X134770293Y-75120822D01*
X134854000Y-75129066D01*
X137354000Y-75129066D01*
X137437707Y-75120822D01*
X137518196Y-75096405D01*
X137592376Y-75056755D01*
X137657395Y-75003395D01*
X137710755Y-74938376D01*
X137750405Y-74864196D01*
X137774822Y-74783707D01*
X137783066Y-74700000D01*
X137783066Y-73700000D01*
X137774822Y-73616293D01*
X137750405Y-73535804D01*
X137710755Y-73461624D01*
X137657395Y-73396605D01*
X137592376Y-73343245D01*
X137518196Y-73303595D01*
X137437707Y-73279178D01*
X137354000Y-73270934D01*
X134854000Y-73270934D01*
X134770293Y-73279178D01*
X134689804Y-73303595D01*
X134615624Y-73343245D01*
X134550605Y-73396605D01*
X134497245Y-73461624D01*
X134457595Y-73535804D01*
X134433267Y-73616000D01*
X133967547Y-73616000D01*
X133877175Y-73525628D01*
X133741725Y-73435123D01*
X133591221Y-73372782D01*
X133431446Y-73341000D01*
X133268542Y-73341000D01*
X133108767Y-73372782D01*
X132958263Y-73435123D01*
X132822813Y-73525628D01*
X132707622Y-73640819D01*
X132617117Y-73776269D01*
X132554776Y-73926773D01*
X132522994Y-74086548D01*
X122583066Y-74086548D01*
X122583066Y-73700000D01*
X122574822Y-73616293D01*
X122550405Y-73535804D01*
X122510755Y-73461624D01*
X122457395Y-73396605D01*
X122392376Y-73343245D01*
X122318196Y-73303595D01*
X122237707Y-73279178D01*
X122154000Y-73270934D01*
X119654000Y-73270934D01*
X119570293Y-73279178D01*
X119489804Y-73303595D01*
X119415624Y-73343245D01*
X119350605Y-73396605D01*
X119299421Y-73458972D01*
X119263729Y-73435123D01*
X119113225Y-73372782D01*
X118953450Y-73341000D01*
X118790546Y-73341000D01*
X118724506Y-73354137D01*
X118724405Y-73353804D01*
X118684755Y-73279624D01*
X118631395Y-73214605D01*
X118566376Y-73161245D01*
X118492196Y-73121595D01*
X118411707Y-73097178D01*
X118328000Y-73088934D01*
X117628000Y-73088934D01*
X117544293Y-73097178D01*
X117463804Y-73121595D01*
X117389624Y-73161245D01*
X117324605Y-73214605D01*
X117271245Y-73279624D01*
X117231595Y-73353804D01*
X117207178Y-73434293D01*
X117198934Y-73518000D01*
X116857066Y-73518000D01*
X116848822Y-73434293D01*
X116824405Y-73353804D01*
X116784755Y-73279624D01*
X116731395Y-73214605D01*
X116666376Y-73161245D01*
X116592196Y-73121595D01*
X116511707Y-73097178D01*
X116428000Y-73088934D01*
X116348014Y-73088934D01*
X115502022Y-72242944D01*
X115502022Y-71700000D01*
X119224934Y-71700000D01*
X119224934Y-72700000D01*
X119233178Y-72783707D01*
X119257595Y-72864196D01*
X119297245Y-72938376D01*
X119350605Y-73003395D01*
X119415624Y-73056755D01*
X119489804Y-73096405D01*
X119570293Y-73120822D01*
X119654000Y-73129066D01*
X122154000Y-73129066D01*
X122237707Y-73120822D01*
X122318196Y-73096405D01*
X122392376Y-73056755D01*
X122457395Y-73003395D01*
X122510755Y-72938376D01*
X122550405Y-72864196D01*
X122574822Y-72783707D01*
X122583066Y-72700000D01*
X122583066Y-71700000D01*
X134424934Y-71700000D01*
X134424934Y-72700000D01*
X134433178Y-72783707D01*
X134457595Y-72864196D01*
X134497245Y-72938376D01*
X134550605Y-73003395D01*
X134615624Y-73056755D01*
X134689804Y-73096405D01*
X134770293Y-73120822D01*
X134854000Y-73129066D01*
X137354000Y-73129066D01*
X137437707Y-73120822D01*
X137518196Y-73096405D01*
X137592376Y-73056755D01*
X137657395Y-73003395D01*
X137710755Y-72938376D01*
X137750405Y-72864196D01*
X137774822Y-72783707D01*
X137783066Y-72700000D01*
X137783066Y-71700000D01*
X137774822Y-71616293D01*
X137750405Y-71535804D01*
X137710755Y-71461624D01*
X137657395Y-71396605D01*
X137592376Y-71343245D01*
X137518196Y-71303595D01*
X137437707Y-71279178D01*
X137354000Y-71270934D01*
X134854000Y-71270934D01*
X134770293Y-71279178D01*
X134689804Y-71303595D01*
X134615624Y-71343245D01*
X134550605Y-71396605D01*
X134497245Y-71461624D01*
X134457595Y-71535804D01*
X134433178Y-71616293D01*
X134424934Y-71700000D01*
X122583066Y-71700000D01*
X122574822Y-71616293D01*
X122550405Y-71535804D01*
X122510755Y-71461624D01*
X122457395Y-71396605D01*
X122392376Y-71343245D01*
X122318196Y-71303595D01*
X122237707Y-71279178D01*
X122154000Y-71270934D01*
X119654000Y-71270934D01*
X119570293Y-71279178D01*
X119489804Y-71303595D01*
X119415624Y-71343245D01*
X119350605Y-71396605D01*
X119297245Y-71461624D01*
X119257595Y-71535804D01*
X119233178Y-71616293D01*
X119224934Y-71700000D01*
X115502022Y-71700000D01*
X115502022Y-70732828D01*
X115528327Y-70772197D01*
X115587803Y-70831672D01*
X115657739Y-70878402D01*
X115735449Y-70910591D01*
X115817944Y-70927000D01*
X115976250Y-70927000D01*
X116083000Y-70820250D01*
X116083000Y-69977000D01*
X116337000Y-69977000D01*
X116337000Y-70820250D01*
X116443750Y-70927000D01*
X116602056Y-70927000D01*
X116684551Y-70910591D01*
X116762261Y-70878402D01*
X116832197Y-70831672D01*
X116891673Y-70772197D01*
X116938403Y-70702260D01*
X116970591Y-70624551D01*
X116987000Y-70542056D01*
X116987000Y-70083750D01*
X116880250Y-69977000D01*
X116337000Y-69977000D01*
X116083000Y-69977000D01*
X116063000Y-69977000D01*
X116063000Y-69723000D01*
X116083000Y-69723000D01*
X116083000Y-69703000D01*
X116337000Y-69703000D01*
X116337000Y-69723000D01*
X116880250Y-69723000D01*
X116987000Y-69616250D01*
X116987000Y-69200000D01*
X117330934Y-69200000D01*
X117330934Y-70500000D01*
X117339178Y-70583707D01*
X117363595Y-70664196D01*
X117403245Y-70738376D01*
X117456605Y-70803395D01*
X117521624Y-70856755D01*
X117595804Y-70896405D01*
X117676293Y-70920822D01*
X117760000Y-70929066D01*
X118460000Y-70929066D01*
X118543707Y-70920822D01*
X118624196Y-70896405D01*
X118698376Y-70856755D01*
X118763395Y-70803395D01*
X118816755Y-70738376D01*
X118834419Y-70705329D01*
X118847737Y-70712448D01*
X118951789Y-70744012D01*
X119060000Y-70754670D01*
X119087108Y-70752000D01*
X119230055Y-70752000D01*
X119233178Y-70783707D01*
X119257595Y-70864196D01*
X119297245Y-70938376D01*
X119350605Y-71003395D01*
X119415624Y-71056755D01*
X119489804Y-71096405D01*
X119570293Y-71120822D01*
X119654000Y-71129066D01*
X122154000Y-71129066D01*
X122237707Y-71120822D01*
X122318196Y-71096405D01*
X122392376Y-71056755D01*
X122457395Y-71003395D01*
X122510755Y-70938376D01*
X122550405Y-70864196D01*
X122574822Y-70783707D01*
X122583066Y-70700000D01*
X122583066Y-69700000D01*
X134424934Y-69700000D01*
X134424934Y-70700000D01*
X134433178Y-70783707D01*
X134457595Y-70864196D01*
X134497245Y-70938376D01*
X134550605Y-71003395D01*
X134615624Y-71056755D01*
X134689804Y-71096405D01*
X134770293Y-71120822D01*
X134854000Y-71129066D01*
X137354000Y-71129066D01*
X137437707Y-71120822D01*
X137518196Y-71096405D01*
X137592376Y-71056755D01*
X137657395Y-71003395D01*
X137710755Y-70938376D01*
X137750405Y-70864196D01*
X137774822Y-70783707D01*
X137783066Y-70700000D01*
X137783066Y-69700000D01*
X137774822Y-69616293D01*
X137750405Y-69535804D01*
X137710755Y-69461624D01*
X137657395Y-69396605D01*
X137592376Y-69343245D01*
X137518196Y-69303595D01*
X137437707Y-69279178D01*
X137354000Y-69270934D01*
X134854000Y-69270934D01*
X134770293Y-69279178D01*
X134689804Y-69303595D01*
X134615624Y-69343245D01*
X134550605Y-69396605D01*
X134497245Y-69461624D01*
X134457595Y-69535804D01*
X134433178Y-69616293D01*
X134424934Y-69700000D01*
X122583066Y-69700000D01*
X122574822Y-69616293D01*
X122550405Y-69535804D01*
X122510755Y-69461624D01*
X122457395Y-69396605D01*
X122392376Y-69343245D01*
X122318196Y-69303595D01*
X122237707Y-69279178D01*
X122154000Y-69270934D01*
X119654000Y-69270934D01*
X119570293Y-69279178D01*
X119489804Y-69303595D01*
X119415624Y-69343245D01*
X119350605Y-69396605D01*
X119297245Y-69461624D01*
X119257595Y-69535804D01*
X119238708Y-69598064D01*
X119119500Y-69478856D01*
X119102211Y-69457789D01*
X119018158Y-69388809D01*
X118922263Y-69337552D01*
X118889066Y-69327482D01*
X118889066Y-69200000D01*
X118880822Y-69116293D01*
X118856405Y-69035804D01*
X118816755Y-68961624D01*
X118763395Y-68896605D01*
X118698376Y-68843245D01*
X118624196Y-68803595D01*
X118543707Y-68779178D01*
X118460000Y-68770934D01*
X117760000Y-68770934D01*
X117676293Y-68779178D01*
X117595804Y-68803595D01*
X117521624Y-68843245D01*
X117456605Y-68896605D01*
X117403245Y-68961624D01*
X117363595Y-69035804D01*
X117339178Y-69116293D01*
X117330934Y-69200000D01*
X116987000Y-69200000D01*
X116987000Y-69157944D01*
X116970591Y-69075449D01*
X116938403Y-68997740D01*
X116891673Y-68927803D01*
X116832197Y-68868328D01*
X116762261Y-68821598D01*
X116684551Y-68789409D01*
X116602056Y-68773000D01*
X116536379Y-68773000D01*
X116875629Y-68433750D01*
X119227000Y-68433750D01*
X119227000Y-68742056D01*
X119243409Y-68824551D01*
X119275597Y-68902260D01*
X119322327Y-68972197D01*
X119381803Y-69031672D01*
X119451739Y-69078402D01*
X119529449Y-69110591D01*
X119611944Y-69127000D01*
X120670250Y-69127000D01*
X120777000Y-69020250D01*
X120777000Y-68327000D01*
X121031000Y-68327000D01*
X121031000Y-69020250D01*
X121137750Y-69127000D01*
X122196056Y-69127000D01*
X122278551Y-69110591D01*
X122356261Y-69078402D01*
X122426197Y-69031672D01*
X122485673Y-68972197D01*
X122532403Y-68902260D01*
X122564591Y-68824551D01*
X122581000Y-68742056D01*
X122581000Y-68433750D01*
X122474250Y-68327000D01*
X121031000Y-68327000D01*
X120777000Y-68327000D01*
X119333750Y-68327000D01*
X119227000Y-68433750D01*
X116875629Y-68433750D01*
X117651435Y-67657944D01*
X119227000Y-67657944D01*
X119227000Y-67966250D01*
X119333750Y-68073000D01*
X120777000Y-68073000D01*
X120777000Y-67379750D01*
X121031000Y-67379750D01*
X121031000Y-68073000D01*
X122474250Y-68073000D01*
X122581000Y-67966250D01*
X122581000Y-67661592D01*
X122583178Y-67683707D01*
X122607595Y-67764196D01*
X122647245Y-67838376D01*
X122700605Y-67903395D01*
X122765624Y-67956755D01*
X122839804Y-67996405D01*
X122920293Y-68020822D01*
X123004000Y-68029066D01*
X124004000Y-68029066D01*
X124087707Y-68020822D01*
X124168196Y-67996405D01*
X124242376Y-67956755D01*
X124307395Y-67903395D01*
X124360755Y-67838376D01*
X124400405Y-67764196D01*
X124424822Y-67683707D01*
X124433066Y-67600000D01*
X124433066Y-65800000D01*
X124574934Y-65800000D01*
X124574934Y-67600000D01*
X124583178Y-67683707D01*
X124607595Y-67764196D01*
X124647245Y-67838376D01*
X124700605Y-67903395D01*
X124765624Y-67956755D01*
X124839804Y-67996405D01*
X124920293Y-68020822D01*
X125004000Y-68029066D01*
X126004000Y-68029066D01*
X126087707Y-68020822D01*
X126168196Y-67996405D01*
X126242376Y-67956755D01*
X126307395Y-67903395D01*
X126360755Y-67838376D01*
X126400405Y-67764196D01*
X126424822Y-67683707D01*
X126433066Y-67600000D01*
X126433066Y-65800000D01*
X126574934Y-65800000D01*
X126574934Y-67600000D01*
X126583178Y-67683707D01*
X126607595Y-67764196D01*
X126647245Y-67838376D01*
X126700605Y-67903395D01*
X126765624Y-67956755D01*
X126839804Y-67996405D01*
X126920293Y-68020822D01*
X127004000Y-68029066D01*
X128004000Y-68029066D01*
X128087707Y-68020822D01*
X128168196Y-67996405D01*
X128242376Y-67956755D01*
X128307395Y-67903395D01*
X128360755Y-67838376D01*
X128400405Y-67764196D01*
X128424822Y-67683707D01*
X128433066Y-67600000D01*
X128433066Y-65800000D01*
X128574934Y-65800000D01*
X128574934Y-67600000D01*
X128583178Y-67683707D01*
X128607595Y-67764196D01*
X128647245Y-67838376D01*
X128700605Y-67903395D01*
X128765624Y-67956755D01*
X128839804Y-67996405D01*
X128920293Y-68020822D01*
X129004000Y-68029066D01*
X130004000Y-68029066D01*
X130087707Y-68020822D01*
X130168196Y-67996405D01*
X130242376Y-67956755D01*
X130307395Y-67903395D01*
X130360755Y-67838376D01*
X130400405Y-67764196D01*
X130424822Y-67683707D01*
X130433066Y-67600000D01*
X130433066Y-65800000D01*
X130424822Y-65716293D01*
X130400405Y-65635804D01*
X130360755Y-65561624D01*
X130307395Y-65496605D01*
X130242376Y-65443245D01*
X130168196Y-65403595D01*
X130087707Y-65379178D01*
X130004000Y-65370934D01*
X129004000Y-65370934D01*
X128920293Y-65379178D01*
X128839804Y-65403595D01*
X128765624Y-65443245D01*
X128700605Y-65496605D01*
X128647245Y-65561624D01*
X128607595Y-65635804D01*
X128583178Y-65716293D01*
X128574934Y-65800000D01*
X128433066Y-65800000D01*
X128424822Y-65716293D01*
X128400405Y-65635804D01*
X128360755Y-65561624D01*
X128307395Y-65496605D01*
X128242376Y-65443245D01*
X128168196Y-65403595D01*
X128087707Y-65379178D01*
X128004000Y-65370934D01*
X127004000Y-65370934D01*
X126920293Y-65379178D01*
X126839804Y-65403595D01*
X126765624Y-65443245D01*
X126700605Y-65496605D01*
X126647245Y-65561624D01*
X126607595Y-65635804D01*
X126583178Y-65716293D01*
X126574934Y-65800000D01*
X126433066Y-65800000D01*
X126424822Y-65716293D01*
X126400405Y-65635804D01*
X126360755Y-65561624D01*
X126307395Y-65496605D01*
X126242376Y-65443245D01*
X126168196Y-65403595D01*
X126087707Y-65379178D01*
X126004000Y-65370934D01*
X125004000Y-65370934D01*
X124920293Y-65379178D01*
X124839804Y-65403595D01*
X124765624Y-65443245D01*
X124700605Y-65496605D01*
X124647245Y-65561624D01*
X124607595Y-65635804D01*
X124583178Y-65716293D01*
X124574934Y-65800000D01*
X124433066Y-65800000D01*
X124424822Y-65716293D01*
X124400405Y-65635804D01*
X124360755Y-65561624D01*
X124307395Y-65496605D01*
X124242376Y-65443245D01*
X124168196Y-65403595D01*
X124087707Y-65379178D01*
X124004000Y-65370934D01*
X123004000Y-65370934D01*
X122920293Y-65379178D01*
X122839804Y-65403595D01*
X122765624Y-65443245D01*
X122700605Y-65496605D01*
X122647245Y-65561624D01*
X122607595Y-65635804D01*
X122583178Y-65716293D01*
X122574934Y-65800000D01*
X122574934Y-67600000D01*
X122580288Y-67654366D01*
X122564591Y-67575449D01*
X122532403Y-67497740D01*
X122485673Y-67427803D01*
X122426197Y-67368328D01*
X122356261Y-67321598D01*
X122278551Y-67289409D01*
X122196056Y-67273000D01*
X121137750Y-67273000D01*
X121031000Y-67379750D01*
X120777000Y-67379750D01*
X120670250Y-67273000D01*
X119611944Y-67273000D01*
X119529449Y-67289409D01*
X119451739Y-67321598D01*
X119381803Y-67368328D01*
X119322327Y-67427803D01*
X119275597Y-67497740D01*
X119243409Y-67575449D01*
X119227000Y-67657944D01*
X117651435Y-67657944D01*
X118588380Y-66721000D01*
X118656614Y-66721000D01*
X118734253Y-66772877D01*
X118884757Y-66835218D01*
X119044532Y-66867000D01*
X119207436Y-66867000D01*
X119367211Y-66835218D01*
X119517715Y-66772877D01*
X119653165Y-66682372D01*
X119768356Y-66567181D01*
X119858861Y-66431731D01*
X119921202Y-66281227D01*
X119952984Y-66121452D01*
X119952984Y-65958548D01*
X119921202Y-65798773D01*
X119858861Y-65648269D01*
X119768356Y-65512819D01*
X119653165Y-65397628D01*
X119517715Y-65307123D01*
X119367211Y-65244782D01*
X119207436Y-65213000D01*
X119044532Y-65213000D01*
X118884757Y-65244782D01*
X118834430Y-65265628D01*
X121025000Y-63075059D01*
X121025000Y-63119002D01*
X121131748Y-63119002D01*
X121025000Y-63225750D01*
X121025000Y-63659056D01*
X121041409Y-63741551D01*
X121073597Y-63819260D01*
X121120327Y-63889197D01*
X121179803Y-63948672D01*
X121249739Y-63995402D01*
X121327449Y-64027591D01*
X121409944Y-64044000D01*
X121718250Y-64044000D01*
X121825000Y-63937250D01*
X121825000Y-63119000D01*
X122079000Y-63119000D01*
X122079000Y-63937250D01*
X122185750Y-64044000D01*
X122494056Y-64044000D01*
X122576551Y-64027591D01*
X122654261Y-63995402D01*
X122724197Y-63948672D01*
X122783673Y-63889197D01*
X122830403Y-63819260D01*
X122862591Y-63741551D01*
X122879000Y-63659056D01*
X122879000Y-63225750D01*
X122772250Y-63119000D01*
X122079000Y-63119000D01*
X121825000Y-63119000D01*
X121805000Y-63119000D01*
X121805000Y-62865000D01*
X121825000Y-62865000D01*
X121825000Y-62845000D01*
X122079000Y-62845000D01*
X122079000Y-62865000D01*
X122772250Y-62865000D01*
X122879000Y-62758250D01*
X122879000Y-62324944D01*
X122862591Y-62242449D01*
X122830403Y-62164740D01*
X122783673Y-62094803D01*
X122724197Y-62035328D01*
X122654261Y-61988598D01*
X122576551Y-61956409D01*
X122494056Y-61940000D01*
X122185750Y-61940000D01*
X122079002Y-62046748D01*
X122079002Y-62021057D01*
X123096059Y-61004000D01*
X125278934Y-61004000D01*
X125278934Y-61277000D01*
X125278934Y-61277000D01*
G37*
X125278934Y-61277000D02*
X125287178Y-61360707D01*
X125307289Y-61427000D01*
X125287178Y-61493293D01*
X125278934Y-61577000D01*
X125278934Y-61927000D01*
X125287178Y-62010707D01*
X125307289Y-62077000D01*
X125287178Y-62143293D01*
X125278934Y-62227000D01*
X125278934Y-62371000D01*
X124881066Y-62371000D01*
X124881066Y-62367000D01*
X124872822Y-62283293D01*
X124848405Y-62202804D01*
X124808755Y-62128624D01*
X124755395Y-62063605D01*
X124690376Y-62010245D01*
X124616196Y-61970595D01*
X124535707Y-61946178D01*
X124452000Y-61937934D01*
X123452000Y-61937934D01*
X123368293Y-61946178D01*
X123287804Y-61970595D01*
X123213624Y-62010245D01*
X123148605Y-62063605D01*
X123095245Y-62128624D01*
X123055595Y-62202804D01*
X123031178Y-62283293D01*
X123022934Y-62367000D01*
X123022934Y-63617000D01*
X123031178Y-63700707D01*
X123055595Y-63781196D01*
X123095245Y-63855376D01*
X123148605Y-63920395D01*
X123213624Y-63973755D01*
X123287804Y-64013405D01*
X123368293Y-64037822D01*
X123452000Y-64046066D01*
X124452000Y-64046066D01*
X124535707Y-64037822D01*
X124616196Y-64013405D01*
X124690376Y-63973755D01*
X124755395Y-63920395D01*
X124808755Y-63855376D01*
X124848405Y-63781196D01*
X124863026Y-63733000D01*
X126491453Y-63733000D01*
X126532064Y-63729000D01*
X130075922Y-63729000D01*
X131574800Y-65227879D01*
X131596130Y-65253870D01*
X131699826Y-65338970D01*
X131759626Y-65370934D01*
X131004000Y-65370934D01*
X130920293Y-65379178D01*
X130839804Y-65403595D01*
X130765624Y-65443245D01*
X130700605Y-65496605D01*
X130647245Y-65561624D01*
X130607595Y-65635804D01*
X130583178Y-65716293D01*
X130574934Y-65800000D01*
X130574934Y-67600000D01*
X130583178Y-67683707D01*
X130607595Y-67764196D01*
X130647245Y-67838376D01*
X130700605Y-67903395D01*
X130765624Y-67956755D01*
X130839804Y-67996405D01*
X130920293Y-68020822D01*
X131004000Y-68029066D01*
X132004000Y-68029066D01*
X132087707Y-68020822D01*
X132168196Y-67996405D01*
X132242376Y-67956755D01*
X132307395Y-67903395D01*
X132360755Y-67838376D01*
X132400405Y-67764196D01*
X132424822Y-67683707D01*
X132433066Y-67600000D01*
X132433066Y-65800000D01*
X132424822Y-65716293D01*
X132400405Y-65635804D01*
X132360755Y-65561624D01*
X132307395Y-65496605D01*
X132251825Y-65451000D01*
X132756175Y-65451000D01*
X132700605Y-65496605D01*
X132647245Y-65561624D01*
X132607595Y-65635804D01*
X132583178Y-65716293D01*
X132574934Y-65800000D01*
X132574934Y-67600000D01*
X132583178Y-67683707D01*
X132607595Y-67764196D01*
X132647245Y-67838376D01*
X132700605Y-67903395D01*
X132765624Y-67956755D01*
X132839804Y-67996405D01*
X132920293Y-68020822D01*
X133004000Y-68029066D01*
X134004000Y-68029066D01*
X134087707Y-68020822D01*
X134168196Y-67996405D01*
X134242376Y-67956755D01*
X134307395Y-67903395D01*
X134360755Y-67838376D01*
X134400405Y-67764196D01*
X134424822Y-67683707D01*
X134433066Y-67600000D01*
X134433066Y-65800000D01*
X134424822Y-65716293D01*
X134400405Y-65635804D01*
X134360755Y-65561624D01*
X134307395Y-65496605D01*
X134251825Y-65451000D01*
X134835934Y-65451000D01*
X134835934Y-65746000D01*
X134844178Y-65829707D01*
X134868595Y-65910196D01*
X134908245Y-65984376D01*
X134961605Y-66049395D01*
X135026624Y-66102755D01*
X135100804Y-66142405D01*
X135181293Y-66166822D01*
X135265000Y-66175066D01*
X135423001Y-66175066D01*
X135423000Y-67270934D01*
X134854000Y-67270934D01*
X134770293Y-67279178D01*
X134689804Y-67303595D01*
X134615624Y-67343245D01*
X134550605Y-67396605D01*
X134497245Y-67461624D01*
X134457595Y-67535804D01*
X134433178Y-67616293D01*
X134424934Y-67700000D01*
X134424934Y-68700000D01*
X134433178Y-68783707D01*
X134457595Y-68864196D01*
X134497245Y-68938376D01*
X134550605Y-69003395D01*
X134615624Y-69056755D01*
X134689804Y-69096405D01*
X134770293Y-69120822D01*
X134854000Y-69129066D01*
X137354000Y-69129066D01*
X137437707Y-69120822D01*
X137518196Y-69096405D01*
X137592376Y-69056755D01*
X137657395Y-69003395D01*
X137710755Y-68938376D01*
X137750405Y-68864196D01*
X137754105Y-68852000D01*
X137761978Y-68852000D01*
X137794000Y-68855154D01*
X137826022Y-68852000D01*
X137921814Y-68842565D01*
X138044717Y-68805283D01*
X138157984Y-68744741D01*
X138257264Y-68663264D01*
X138277685Y-68638381D01*
X139716067Y-67200000D01*
X140322934Y-67200000D01*
X140322934Y-67266000D01*
X140235097Y-67266000D01*
X140207999Y-67263331D01*
X140180901Y-67266000D01*
X140180891Y-67266000D01*
X140099789Y-67273988D01*
X139995737Y-67305552D01*
X139899842Y-67356809D01*
X139815789Y-67425789D01*
X139798508Y-67446846D01*
X139328851Y-67916505D01*
X139307790Y-67933789D01*
X139263516Y-67987738D01*
X139238809Y-68017843D01*
X139187552Y-68113738D01*
X139155989Y-68217790D01*
X139145330Y-68326000D01*
X139148001Y-68353116D01*
X139148000Y-73378894D01*
X139145330Y-73406000D01*
X139148000Y-73433106D01*
X139148000Y-73433108D01*
X139155988Y-73514210D01*
X139187552Y-73618262D01*
X139238809Y-73714158D01*
X139307789Y-73798211D01*
X139328856Y-73815500D01*
X140052507Y-74539153D01*
X140069789Y-74560211D01*
X140090845Y-74577491D01*
X140090846Y-74577492D01*
X140153842Y-74629191D01*
X140249737Y-74680448D01*
X140353789Y-74712012D01*
X140462000Y-74722670D01*
X140489108Y-74720000D01*
X140756934Y-74720000D01*
X140756934Y-74968000D01*
X140765178Y-75051707D01*
X140789595Y-75132196D01*
X140829245Y-75206376D01*
X140882605Y-75271395D01*
X140947624Y-75324755D01*
X141021804Y-75364405D01*
X141102293Y-75388822D01*
X141186000Y-75397066D01*
X141434000Y-75397066D01*
X141434000Y-75463354D01*
X141249355Y-75648000D01*
X137777945Y-75648000D01*
X137774822Y-75616293D01*
X137750405Y-75535804D01*
X137710755Y-75461624D01*
X137657395Y-75396605D01*
X137592376Y-75343245D01*
X137518196Y-75303595D01*
X137437707Y-75279178D01*
X137354000Y-75270934D01*
X134854000Y-75270934D01*
X134770293Y-75279178D01*
X134689804Y-75303595D01*
X134615624Y-75343245D01*
X134550605Y-75396605D01*
X134497245Y-75461624D01*
X134457595Y-75535804D01*
X134433178Y-75616293D01*
X134424934Y-75700000D01*
X134424934Y-76700000D01*
X134433178Y-76783707D01*
X134457595Y-76864196D01*
X134497245Y-76938376D01*
X134550605Y-77003395D01*
X134615624Y-77056755D01*
X134689804Y-77096405D01*
X134770293Y-77120822D01*
X134854000Y-77129066D01*
X137354000Y-77129066D01*
X137437707Y-77120822D01*
X137518196Y-77096405D01*
X137592376Y-77056755D01*
X137657395Y-77003395D01*
X137710755Y-76938376D01*
X137750405Y-76864196D01*
X137774822Y-76783707D01*
X137777945Y-76752000D01*
X141450894Y-76752000D01*
X141478000Y-76754670D01*
X141505106Y-76752000D01*
X141505109Y-76752000D01*
X141586211Y-76744012D01*
X141690263Y-76712448D01*
X141786158Y-76661191D01*
X141870211Y-76592211D01*
X141887500Y-76571144D01*
X142357154Y-76101492D01*
X142378211Y-76084211D01*
X142447191Y-76000158D01*
X142498448Y-75904263D01*
X142530012Y-75800211D01*
X142538000Y-75719109D01*
X142538000Y-75719099D01*
X142540669Y-75692001D01*
X142538000Y-75664903D01*
X142538000Y-75397066D01*
X142786000Y-75397066D01*
X142869707Y-75388822D01*
X142950196Y-75364405D01*
X143024376Y-75324755D01*
X143089395Y-75271395D01*
X143142755Y-75206376D01*
X143182405Y-75132196D01*
X143206822Y-75051707D01*
X143215066Y-74968000D01*
X143215066Y-73368000D01*
X143206822Y-73284293D01*
X143182405Y-73203804D01*
X143142755Y-73129624D01*
X143089395Y-73064605D01*
X143024376Y-73011245D01*
X142950196Y-72971595D01*
X142869707Y-72947178D01*
X142817131Y-72942000D01*
X143720000Y-72942000D01*
X143720001Y-76225353D01*
X138297356Y-81648000D01*
X137777945Y-81648000D01*
X137774822Y-81616293D01*
X137750405Y-81535804D01*
X137710755Y-81461624D01*
X137657395Y-81396605D01*
X137592376Y-81343245D01*
X137518196Y-81303595D01*
X137437707Y-81279178D01*
X137354000Y-81270934D01*
X134854000Y-81270934D01*
X134770293Y-81279178D01*
X134689804Y-81303595D01*
X134615624Y-81343245D01*
X134550605Y-81396605D01*
X134497245Y-81461624D01*
X134457595Y-81535804D01*
X134433178Y-81616293D01*
X134430055Y-81648000D01*
X134122750Y-81648000D01*
X133995723Y-81563123D01*
X133845219Y-81500782D01*
X133685444Y-81469000D01*
X133522540Y-81469000D01*
X133362765Y-81500782D01*
X133212261Y-81563123D01*
X133076811Y-81653628D01*
X132961620Y-81768819D01*
X132871115Y-81904269D01*
X132808774Y-82054773D01*
X132776992Y-82214548D01*
X132776992Y-82377452D01*
X132808774Y-82537227D01*
X132871115Y-82687731D01*
X132961620Y-82823181D01*
X133076811Y-82938372D01*
X133212261Y-83028877D01*
X133236700Y-83039000D01*
X122414010Y-83039000D01*
X122457395Y-83003395D01*
X122510755Y-82938376D01*
X122550405Y-82864196D01*
X122574822Y-82783707D01*
X122583066Y-82700000D01*
X122583066Y-81700000D01*
X122574822Y-81616293D01*
X122550405Y-81535804D01*
X122510755Y-81461624D01*
X122457395Y-81396605D01*
X122392376Y-81343245D01*
X122318196Y-81303595D01*
X122237707Y-81279178D01*
X122154000Y-81270934D01*
X119863710Y-81270934D01*
X120005579Y-81129066D01*
X122154000Y-81129066D01*
X122237707Y-81120822D01*
X122318196Y-81096405D01*
X122392376Y-81056755D01*
X122457395Y-81003395D01*
X122510755Y-80938376D01*
X122550405Y-80864196D01*
X122574822Y-80783707D01*
X122583066Y-80700000D01*
X122583066Y-79700000D01*
X134424934Y-79700000D01*
X134424934Y-80700000D01*
X134433178Y-80783707D01*
X134457595Y-80864196D01*
X134497245Y-80938376D01*
X134550605Y-81003395D01*
X134615624Y-81056755D01*
X134689804Y-81096405D01*
X134770293Y-81120822D01*
X134854000Y-81129066D01*
X137354000Y-81129066D01*
X137437707Y-81120822D01*
X137518196Y-81096405D01*
X137592376Y-81056755D01*
X137657395Y-81003395D01*
X137710755Y-80938376D01*
X137750405Y-80864196D01*
X137774822Y-80783707D01*
X137783066Y-80700000D01*
X137783066Y-79700000D01*
X137774822Y-79616293D01*
X137750405Y-79535804D01*
X137710755Y-79461624D01*
X137657395Y-79396605D01*
X137592376Y-79343245D01*
X137518196Y-79303595D01*
X137437707Y-79279178D01*
X137354000Y-79270934D01*
X134854000Y-79270934D01*
X134770293Y-79279178D01*
X134689804Y-79303595D01*
X134615624Y-79343245D01*
X134550605Y-79396605D01*
X134497245Y-79461624D01*
X134457595Y-79535804D01*
X134433178Y-79616293D01*
X134424934Y-79700000D01*
X122583066Y-79700000D01*
X122574822Y-79616293D01*
X122550405Y-79535804D01*
X122510755Y-79461624D01*
X122457395Y-79396605D01*
X122392376Y-79343245D01*
X122318196Y-79303595D01*
X122237707Y-79279178D01*
X122154000Y-79270934D01*
X119654000Y-79270934D01*
X119570293Y-79279178D01*
X119489804Y-79303595D01*
X119415624Y-79343245D01*
X119350605Y-79396605D01*
X119297245Y-79461624D01*
X119257595Y-79535804D01*
X119233178Y-79616293D01*
X119224934Y-79700000D01*
X119224934Y-80348421D01*
X119143066Y-80430289D01*
X119143066Y-79360000D01*
X119134822Y-79276293D01*
X119110405Y-79195804D01*
X119070755Y-79121624D01*
X119017395Y-79056605D01*
X118952376Y-79003245D01*
X118916000Y-78983802D01*
X118916000Y-78513108D01*
X118918670Y-78486000D01*
X118908012Y-78377789D01*
X118876448Y-78273737D01*
X118825191Y-78177842D01*
X118773492Y-78114846D01*
X118773491Y-78114845D01*
X118756211Y-78093789D01*
X118735154Y-78076508D01*
X118358646Y-77700000D01*
X119224934Y-77700000D01*
X119224934Y-78700000D01*
X119233178Y-78783707D01*
X119257595Y-78864196D01*
X119297245Y-78938376D01*
X119350605Y-79003395D01*
X119415624Y-79056755D01*
X119489804Y-79096405D01*
X119570293Y-79120822D01*
X119654000Y-79129066D01*
X122154000Y-79129066D01*
X122237707Y-79120822D01*
X122318196Y-79096405D01*
X122392376Y-79056755D01*
X122457395Y-79003395D01*
X122510755Y-78938376D01*
X122550405Y-78864196D01*
X122572306Y-78792000D01*
X123342447Y-78792000D01*
X123424819Y-78874372D01*
X123560269Y-78964877D01*
X123710773Y-79027218D01*
X123870548Y-79059000D01*
X124033452Y-79059000D01*
X124193227Y-79027218D01*
X124343731Y-78964877D01*
X124479181Y-78874372D01*
X124594372Y-78759181D01*
X124684877Y-78623731D01*
X124747218Y-78473227D01*
X124779000Y-78313452D01*
X124779000Y-78150548D01*
X124747218Y-77990773D01*
X124684877Y-77840269D01*
X124594372Y-77704819D01*
X124589553Y-77700000D01*
X134424934Y-77700000D01*
X134424934Y-78700000D01*
X134433178Y-78783707D01*
X134457595Y-78864196D01*
X134497245Y-78938376D01*
X134550605Y-79003395D01*
X134615624Y-79056755D01*
X134689804Y-79096405D01*
X134770293Y-79120822D01*
X134854000Y-79129066D01*
X137354000Y-79129066D01*
X137437707Y-79120822D01*
X137518196Y-79096405D01*
X137592376Y-79056755D01*
X137657395Y-79003395D01*
X137710755Y-78938376D01*
X137750405Y-78864196D01*
X137774822Y-78783707D01*
X137777945Y-78752000D01*
X137780447Y-78752000D01*
X137870819Y-78842372D01*
X138006269Y-78932877D01*
X138156773Y-78995218D01*
X138316548Y-79027000D01*
X138479452Y-79027000D01*
X138639227Y-78995218D01*
X138789731Y-78932877D01*
X138925181Y-78842372D01*
X139040372Y-78727181D01*
X139130877Y-78591731D01*
X139193218Y-78441227D01*
X139225000Y-78281452D01*
X139225000Y-78118548D01*
X139193218Y-77958773D01*
X139130877Y-77808269D01*
X139040372Y-77672819D01*
X138925181Y-77557628D01*
X138789731Y-77467123D01*
X138639227Y-77404782D01*
X138479452Y-77373000D01*
X138316548Y-77373000D01*
X138156773Y-77404782D01*
X138006269Y-77467123D01*
X137870819Y-77557628D01*
X137780447Y-77648000D01*
X137777945Y-77648000D01*
X137774822Y-77616293D01*
X137750405Y-77535804D01*
X137710755Y-77461624D01*
X137657395Y-77396605D01*
X137592376Y-77343245D01*
X137518196Y-77303595D01*
X137437707Y-77279178D01*
X137354000Y-77270934D01*
X134854000Y-77270934D01*
X134770293Y-77279178D01*
X134689804Y-77303595D01*
X134615624Y-77343245D01*
X134550605Y-77396605D01*
X134497245Y-77461624D01*
X134457595Y-77535804D01*
X134433178Y-77616293D01*
X134424934Y-77700000D01*
X124589553Y-77700000D01*
X124479181Y-77589628D01*
X124343731Y-77499123D01*
X124193227Y-77436782D01*
X124033452Y-77405000D01*
X123870548Y-77405000D01*
X123710773Y-77436782D01*
X123560269Y-77499123D01*
X123424819Y-77589628D01*
X123326447Y-77688000D01*
X122581884Y-77688000D01*
X122574822Y-77616293D01*
X122550405Y-77535804D01*
X122510755Y-77461624D01*
X122457395Y-77396605D01*
X122392376Y-77343245D01*
X122318196Y-77303595D01*
X122237707Y-77279178D01*
X122154000Y-77270934D01*
X119654000Y-77270934D01*
X119570293Y-77279178D01*
X119489804Y-77303595D01*
X119415624Y-77343245D01*
X119350605Y-77396605D01*
X119297245Y-77461624D01*
X119257595Y-77535804D01*
X119233178Y-77616293D01*
X119224934Y-77700000D01*
X118358646Y-77700000D01*
X116358646Y-75700000D01*
X119224934Y-75700000D01*
X119224934Y-76700000D01*
X119233178Y-76783707D01*
X119257595Y-76864196D01*
X119297245Y-76938376D01*
X119350605Y-77003395D01*
X119415624Y-77056755D01*
X119489804Y-77096405D01*
X119570293Y-77120822D01*
X119654000Y-77129066D01*
X122154000Y-77129066D01*
X122237707Y-77120822D01*
X122318196Y-77096405D01*
X122392376Y-77056755D01*
X122457395Y-77003395D01*
X122510755Y-76938376D01*
X122550405Y-76864196D01*
X122574822Y-76783707D01*
X122577945Y-76752000D01*
X124096447Y-76752000D01*
X124186819Y-76842372D01*
X124322269Y-76932877D01*
X124472773Y-76995218D01*
X124632548Y-77027000D01*
X124795452Y-77027000D01*
X124955227Y-76995218D01*
X125105731Y-76932877D01*
X125241181Y-76842372D01*
X125356372Y-76727181D01*
X125446877Y-76591731D01*
X125509218Y-76441227D01*
X125541000Y-76281452D01*
X125541000Y-76118548D01*
X125509218Y-75958773D01*
X125446877Y-75808269D01*
X125356372Y-75672819D01*
X125241181Y-75557628D01*
X125105731Y-75467123D01*
X124955227Y-75404782D01*
X124795452Y-75373000D01*
X124632548Y-75373000D01*
X124472773Y-75404782D01*
X124322269Y-75467123D01*
X124186819Y-75557628D01*
X124096447Y-75648000D01*
X122577945Y-75648000D01*
X122574822Y-75616293D01*
X122550405Y-75535804D01*
X122510755Y-75461624D01*
X122457395Y-75396605D01*
X122392376Y-75343245D01*
X122318196Y-75303595D01*
X122237707Y-75279178D01*
X122154000Y-75270934D01*
X119654000Y-75270934D01*
X119570293Y-75279178D01*
X119489804Y-75303595D01*
X119415624Y-75343245D01*
X119350605Y-75396605D01*
X119297245Y-75461624D01*
X119257595Y-75535804D01*
X119233178Y-75616293D01*
X119224934Y-75700000D01*
X116358646Y-75700000D01*
X115905711Y-75247066D01*
X116428000Y-75247066D01*
X116511707Y-75238822D01*
X116592196Y-75214405D01*
X116666376Y-75174755D01*
X116731395Y-75121395D01*
X116784755Y-75056376D01*
X116824405Y-74982196D01*
X116848822Y-74901707D01*
X116857066Y-74818000D01*
X116857066Y-73518000D01*
X117198934Y-73518000D01*
X117198934Y-74818000D01*
X117207178Y-74901707D01*
X117231595Y-74982196D01*
X117271245Y-75056376D01*
X117324605Y-75121395D01*
X117389624Y-75174755D01*
X117463804Y-75214405D01*
X117544293Y-75238822D01*
X117628000Y-75247066D01*
X118328000Y-75247066D01*
X118411707Y-75238822D01*
X118492196Y-75214405D01*
X118566376Y-75174755D01*
X118631395Y-75121395D01*
X118684755Y-75056376D01*
X118724405Y-74982196D01*
X118724506Y-74981863D01*
X118790546Y-74995000D01*
X118953450Y-74995000D01*
X119113225Y-74963218D01*
X119263729Y-74900877D01*
X119273656Y-74894244D01*
X119297245Y-74938376D01*
X119350605Y-75003395D01*
X119415624Y-75056755D01*
X119489804Y-75096405D01*
X119570293Y-75120822D01*
X119654000Y-75129066D01*
X122154000Y-75129066D01*
X122237707Y-75120822D01*
X122318196Y-75096405D01*
X122392376Y-75056755D01*
X122457395Y-75003395D01*
X122510755Y-74938376D01*
X122550405Y-74864196D01*
X122574822Y-74783707D01*
X122583066Y-74700000D01*
X122583066Y-74086548D01*
X132522994Y-74086548D01*
X132522994Y-74249452D01*
X132554776Y-74409227D01*
X132617117Y-74559731D01*
X132707622Y-74695181D01*
X132822813Y-74810372D01*
X132958263Y-74900877D01*
X133108767Y-74963218D01*
X133268542Y-74995000D01*
X133431446Y-74995000D01*
X133591221Y-74963218D01*
X133741725Y-74900877D01*
X133877175Y-74810372D01*
X133967547Y-74720000D01*
X134426904Y-74720000D01*
X134433178Y-74783707D01*
X134457595Y-74864196D01*
X134497245Y-74938376D01*
X134550605Y-75003395D01*
X134615624Y-75056755D01*
X134689804Y-75096405D01*
X134770293Y-75120822D01*
X134854000Y-75129066D01*
X137354000Y-75129066D01*
X137437707Y-75120822D01*
X137518196Y-75096405D01*
X137592376Y-75056755D01*
X137657395Y-75003395D01*
X137710755Y-74938376D01*
X137750405Y-74864196D01*
X137774822Y-74783707D01*
X137783066Y-74700000D01*
X137783066Y-73700000D01*
X137774822Y-73616293D01*
X137750405Y-73535804D01*
X137710755Y-73461624D01*
X137657395Y-73396605D01*
X137592376Y-73343245D01*
X137518196Y-73303595D01*
X137437707Y-73279178D01*
X137354000Y-73270934D01*
X134854000Y-73270934D01*
X134770293Y-73279178D01*
X134689804Y-73303595D01*
X134615624Y-73343245D01*
X134550605Y-73396605D01*
X134497245Y-73461624D01*
X134457595Y-73535804D01*
X134433267Y-73616000D01*
X133967547Y-73616000D01*
X133877175Y-73525628D01*
X133741725Y-73435123D01*
X133591221Y-73372782D01*
X133431446Y-73341000D01*
X133268542Y-73341000D01*
X133108767Y-73372782D01*
X132958263Y-73435123D01*
X132822813Y-73525628D01*
X132707622Y-73640819D01*
X132617117Y-73776269D01*
X132554776Y-73926773D01*
X132522994Y-74086548D01*
X122583066Y-74086548D01*
X122583066Y-73700000D01*
X122574822Y-73616293D01*
X122550405Y-73535804D01*
X122510755Y-73461624D01*
X122457395Y-73396605D01*
X122392376Y-73343245D01*
X122318196Y-73303595D01*
X122237707Y-73279178D01*
X122154000Y-73270934D01*
X119654000Y-73270934D01*
X119570293Y-73279178D01*
X119489804Y-73303595D01*
X119415624Y-73343245D01*
X119350605Y-73396605D01*
X119299421Y-73458972D01*
X119263729Y-73435123D01*
X119113225Y-73372782D01*
X118953450Y-73341000D01*
X118790546Y-73341000D01*
X118724506Y-73354137D01*
X118724405Y-73353804D01*
X118684755Y-73279624D01*
X118631395Y-73214605D01*
X118566376Y-73161245D01*
X118492196Y-73121595D01*
X118411707Y-73097178D01*
X118328000Y-73088934D01*
X117628000Y-73088934D01*
X117544293Y-73097178D01*
X117463804Y-73121595D01*
X117389624Y-73161245D01*
X117324605Y-73214605D01*
X117271245Y-73279624D01*
X117231595Y-73353804D01*
X117207178Y-73434293D01*
X117198934Y-73518000D01*
X116857066Y-73518000D01*
X116848822Y-73434293D01*
X116824405Y-73353804D01*
X116784755Y-73279624D01*
X116731395Y-73214605D01*
X116666376Y-73161245D01*
X116592196Y-73121595D01*
X116511707Y-73097178D01*
X116428000Y-73088934D01*
X116348014Y-73088934D01*
X115502022Y-72242944D01*
X115502022Y-71700000D01*
X119224934Y-71700000D01*
X119224934Y-72700000D01*
X119233178Y-72783707D01*
X119257595Y-72864196D01*
X119297245Y-72938376D01*
X119350605Y-73003395D01*
X119415624Y-73056755D01*
X119489804Y-73096405D01*
X119570293Y-73120822D01*
X119654000Y-73129066D01*
X122154000Y-73129066D01*
X122237707Y-73120822D01*
X122318196Y-73096405D01*
X122392376Y-73056755D01*
X122457395Y-73003395D01*
X122510755Y-72938376D01*
X122550405Y-72864196D01*
X122574822Y-72783707D01*
X122583066Y-72700000D01*
X122583066Y-71700000D01*
X134424934Y-71700000D01*
X134424934Y-72700000D01*
X134433178Y-72783707D01*
X134457595Y-72864196D01*
X134497245Y-72938376D01*
X134550605Y-73003395D01*
X134615624Y-73056755D01*
X134689804Y-73096405D01*
X134770293Y-73120822D01*
X134854000Y-73129066D01*
X137354000Y-73129066D01*
X137437707Y-73120822D01*
X137518196Y-73096405D01*
X137592376Y-73056755D01*
X137657395Y-73003395D01*
X137710755Y-72938376D01*
X137750405Y-72864196D01*
X137774822Y-72783707D01*
X137783066Y-72700000D01*
X137783066Y-71700000D01*
X137774822Y-71616293D01*
X137750405Y-71535804D01*
X137710755Y-71461624D01*
X137657395Y-71396605D01*
X137592376Y-71343245D01*
X137518196Y-71303595D01*
X137437707Y-71279178D01*
X137354000Y-71270934D01*
X134854000Y-71270934D01*
X134770293Y-71279178D01*
X134689804Y-71303595D01*
X134615624Y-71343245D01*
X134550605Y-71396605D01*
X134497245Y-71461624D01*
X134457595Y-71535804D01*
X134433178Y-71616293D01*
X134424934Y-71700000D01*
X122583066Y-71700000D01*
X122574822Y-71616293D01*
X122550405Y-71535804D01*
X122510755Y-71461624D01*
X122457395Y-71396605D01*
X122392376Y-71343245D01*
X122318196Y-71303595D01*
X122237707Y-71279178D01*
X122154000Y-71270934D01*
X119654000Y-71270934D01*
X119570293Y-71279178D01*
X119489804Y-71303595D01*
X119415624Y-71343245D01*
X119350605Y-71396605D01*
X119297245Y-71461624D01*
X119257595Y-71535804D01*
X119233178Y-71616293D01*
X119224934Y-71700000D01*
X115502022Y-71700000D01*
X115502022Y-70732828D01*
X115528327Y-70772197D01*
X115587803Y-70831672D01*
X115657739Y-70878402D01*
X115735449Y-70910591D01*
X115817944Y-70927000D01*
X115976250Y-70927000D01*
X116083000Y-70820250D01*
X116083000Y-69977000D01*
X116337000Y-69977000D01*
X116337000Y-70820250D01*
X116443750Y-70927000D01*
X116602056Y-70927000D01*
X116684551Y-70910591D01*
X116762261Y-70878402D01*
X116832197Y-70831672D01*
X116891673Y-70772197D01*
X116938403Y-70702260D01*
X116970591Y-70624551D01*
X116987000Y-70542056D01*
X116987000Y-70083750D01*
X116880250Y-69977000D01*
X116337000Y-69977000D01*
X116083000Y-69977000D01*
X116063000Y-69977000D01*
X116063000Y-69723000D01*
X116083000Y-69723000D01*
X116083000Y-69703000D01*
X116337000Y-69703000D01*
X116337000Y-69723000D01*
X116880250Y-69723000D01*
X116987000Y-69616250D01*
X116987000Y-69200000D01*
X117330934Y-69200000D01*
X117330934Y-70500000D01*
X117339178Y-70583707D01*
X117363595Y-70664196D01*
X117403245Y-70738376D01*
X117456605Y-70803395D01*
X117521624Y-70856755D01*
X117595804Y-70896405D01*
X117676293Y-70920822D01*
X117760000Y-70929066D01*
X118460000Y-70929066D01*
X118543707Y-70920822D01*
X118624196Y-70896405D01*
X118698376Y-70856755D01*
X118763395Y-70803395D01*
X118816755Y-70738376D01*
X118834419Y-70705329D01*
X118847737Y-70712448D01*
X118951789Y-70744012D01*
X119060000Y-70754670D01*
X119087108Y-70752000D01*
X119230055Y-70752000D01*
X119233178Y-70783707D01*
X119257595Y-70864196D01*
X119297245Y-70938376D01*
X119350605Y-71003395D01*
X119415624Y-71056755D01*
X119489804Y-71096405D01*
X119570293Y-71120822D01*
X119654000Y-71129066D01*
X122154000Y-71129066D01*
X122237707Y-71120822D01*
X122318196Y-71096405D01*
X122392376Y-71056755D01*
X122457395Y-71003395D01*
X122510755Y-70938376D01*
X122550405Y-70864196D01*
X122574822Y-70783707D01*
X122583066Y-70700000D01*
X122583066Y-69700000D01*
X134424934Y-69700000D01*
X134424934Y-70700000D01*
X134433178Y-70783707D01*
X134457595Y-70864196D01*
X134497245Y-70938376D01*
X134550605Y-71003395D01*
X134615624Y-71056755D01*
X134689804Y-71096405D01*
X134770293Y-71120822D01*
X134854000Y-71129066D01*
X137354000Y-71129066D01*
X137437707Y-71120822D01*
X137518196Y-71096405D01*
X137592376Y-71056755D01*
X137657395Y-71003395D01*
X137710755Y-70938376D01*
X137750405Y-70864196D01*
X137774822Y-70783707D01*
X137783066Y-70700000D01*
X137783066Y-69700000D01*
X137774822Y-69616293D01*
X137750405Y-69535804D01*
X137710755Y-69461624D01*
X137657395Y-69396605D01*
X137592376Y-69343245D01*
X137518196Y-69303595D01*
X137437707Y-69279178D01*
X137354000Y-69270934D01*
X134854000Y-69270934D01*
X134770293Y-69279178D01*
X134689804Y-69303595D01*
X134615624Y-69343245D01*
X134550605Y-69396605D01*
X134497245Y-69461624D01*
X134457595Y-69535804D01*
X134433178Y-69616293D01*
X134424934Y-69700000D01*
X122583066Y-69700000D01*
X122574822Y-69616293D01*
X122550405Y-69535804D01*
X122510755Y-69461624D01*
X122457395Y-69396605D01*
X122392376Y-69343245D01*
X122318196Y-69303595D01*
X122237707Y-69279178D01*
X122154000Y-69270934D01*
X119654000Y-69270934D01*
X119570293Y-69279178D01*
X119489804Y-69303595D01*
X119415624Y-69343245D01*
X119350605Y-69396605D01*
X119297245Y-69461624D01*
X119257595Y-69535804D01*
X119238708Y-69598064D01*
X119119500Y-69478856D01*
X119102211Y-69457789D01*
X119018158Y-69388809D01*
X118922263Y-69337552D01*
X118889066Y-69327482D01*
X118889066Y-69200000D01*
X118880822Y-69116293D01*
X118856405Y-69035804D01*
X118816755Y-68961624D01*
X118763395Y-68896605D01*
X118698376Y-68843245D01*
X118624196Y-68803595D01*
X118543707Y-68779178D01*
X118460000Y-68770934D01*
X117760000Y-68770934D01*
X117676293Y-68779178D01*
X117595804Y-68803595D01*
X117521624Y-68843245D01*
X117456605Y-68896605D01*
X117403245Y-68961624D01*
X117363595Y-69035804D01*
X117339178Y-69116293D01*
X117330934Y-69200000D01*
X116987000Y-69200000D01*
X116987000Y-69157944D01*
X116970591Y-69075449D01*
X116938403Y-68997740D01*
X116891673Y-68927803D01*
X116832197Y-68868328D01*
X116762261Y-68821598D01*
X116684551Y-68789409D01*
X116602056Y-68773000D01*
X116536379Y-68773000D01*
X116875629Y-68433750D01*
X119227000Y-68433750D01*
X119227000Y-68742056D01*
X119243409Y-68824551D01*
X119275597Y-68902260D01*
X119322327Y-68972197D01*
X119381803Y-69031672D01*
X119451739Y-69078402D01*
X119529449Y-69110591D01*
X119611944Y-69127000D01*
X120670250Y-69127000D01*
X120777000Y-69020250D01*
X120777000Y-68327000D01*
X121031000Y-68327000D01*
X121031000Y-69020250D01*
X121137750Y-69127000D01*
X122196056Y-69127000D01*
X122278551Y-69110591D01*
X122356261Y-69078402D01*
X122426197Y-69031672D01*
X122485673Y-68972197D01*
X122532403Y-68902260D01*
X122564591Y-68824551D01*
X122581000Y-68742056D01*
X122581000Y-68433750D01*
X122474250Y-68327000D01*
X121031000Y-68327000D01*
X120777000Y-68327000D01*
X119333750Y-68327000D01*
X119227000Y-68433750D01*
X116875629Y-68433750D01*
X117651435Y-67657944D01*
X119227000Y-67657944D01*
X119227000Y-67966250D01*
X119333750Y-68073000D01*
X120777000Y-68073000D01*
X120777000Y-67379750D01*
X121031000Y-67379750D01*
X121031000Y-68073000D01*
X122474250Y-68073000D01*
X122581000Y-67966250D01*
X122581000Y-67661592D01*
X122583178Y-67683707D01*
X122607595Y-67764196D01*
X122647245Y-67838376D01*
X122700605Y-67903395D01*
X122765624Y-67956755D01*
X122839804Y-67996405D01*
X122920293Y-68020822D01*
X123004000Y-68029066D01*
X124004000Y-68029066D01*
X124087707Y-68020822D01*
X124168196Y-67996405D01*
X124242376Y-67956755D01*
X124307395Y-67903395D01*
X124360755Y-67838376D01*
X124400405Y-67764196D01*
X124424822Y-67683707D01*
X124433066Y-67600000D01*
X124433066Y-65800000D01*
X124574934Y-65800000D01*
X124574934Y-67600000D01*
X124583178Y-67683707D01*
X124607595Y-67764196D01*
X124647245Y-67838376D01*
X124700605Y-67903395D01*
X124765624Y-67956755D01*
X124839804Y-67996405D01*
X124920293Y-68020822D01*
X125004000Y-68029066D01*
X126004000Y-68029066D01*
X126087707Y-68020822D01*
X126168196Y-67996405D01*
X126242376Y-67956755D01*
X126307395Y-67903395D01*
X126360755Y-67838376D01*
X126400405Y-67764196D01*
X126424822Y-67683707D01*
X126433066Y-67600000D01*
X126433066Y-65800000D01*
X126574934Y-65800000D01*
X126574934Y-67600000D01*
X126583178Y-67683707D01*
X126607595Y-67764196D01*
X126647245Y-67838376D01*
X126700605Y-67903395D01*
X126765624Y-67956755D01*
X126839804Y-67996405D01*
X126920293Y-68020822D01*
X127004000Y-68029066D01*
X128004000Y-68029066D01*
X128087707Y-68020822D01*
X128168196Y-67996405D01*
X128242376Y-67956755D01*
X128307395Y-67903395D01*
X128360755Y-67838376D01*
X128400405Y-67764196D01*
X128424822Y-67683707D01*
X128433066Y-67600000D01*
X128433066Y-65800000D01*
X128574934Y-65800000D01*
X128574934Y-67600000D01*
X128583178Y-67683707D01*
X128607595Y-67764196D01*
X128647245Y-67838376D01*
X128700605Y-67903395D01*
X128765624Y-67956755D01*
X128839804Y-67996405D01*
X128920293Y-68020822D01*
X129004000Y-68029066D01*
X130004000Y-68029066D01*
X130087707Y-68020822D01*
X130168196Y-67996405D01*
X130242376Y-67956755D01*
X130307395Y-67903395D01*
X130360755Y-67838376D01*
X130400405Y-67764196D01*
X130424822Y-67683707D01*
X130433066Y-67600000D01*
X130433066Y-65800000D01*
X130424822Y-65716293D01*
X130400405Y-65635804D01*
X130360755Y-65561624D01*
X130307395Y-65496605D01*
X130242376Y-65443245D01*
X130168196Y-65403595D01*
X130087707Y-65379178D01*
X130004000Y-65370934D01*
X129004000Y-65370934D01*
X128920293Y-65379178D01*
X128839804Y-65403595D01*
X128765624Y-65443245D01*
X128700605Y-65496605D01*
X128647245Y-65561624D01*
X128607595Y-65635804D01*
X128583178Y-65716293D01*
X128574934Y-65800000D01*
X128433066Y-65800000D01*
X128424822Y-65716293D01*
X128400405Y-65635804D01*
X128360755Y-65561624D01*
X128307395Y-65496605D01*
X128242376Y-65443245D01*
X128168196Y-65403595D01*
X128087707Y-65379178D01*
X128004000Y-65370934D01*
X127004000Y-65370934D01*
X126920293Y-65379178D01*
X126839804Y-65403595D01*
X126765624Y-65443245D01*
X126700605Y-65496605D01*
X126647245Y-65561624D01*
X126607595Y-65635804D01*
X126583178Y-65716293D01*
X126574934Y-65800000D01*
X126433066Y-65800000D01*
X126424822Y-65716293D01*
X126400405Y-65635804D01*
X126360755Y-65561624D01*
X126307395Y-65496605D01*
X126242376Y-65443245D01*
X126168196Y-65403595D01*
X126087707Y-65379178D01*
X126004000Y-65370934D01*
X125004000Y-65370934D01*
X124920293Y-65379178D01*
X124839804Y-65403595D01*
X124765624Y-65443245D01*
X124700605Y-65496605D01*
X124647245Y-65561624D01*
X124607595Y-65635804D01*
X124583178Y-65716293D01*
X124574934Y-65800000D01*
X124433066Y-65800000D01*
X124424822Y-65716293D01*
X124400405Y-65635804D01*
X124360755Y-65561624D01*
X124307395Y-65496605D01*
X124242376Y-65443245D01*
X124168196Y-65403595D01*
X124087707Y-65379178D01*
X124004000Y-65370934D01*
X123004000Y-65370934D01*
X122920293Y-65379178D01*
X122839804Y-65403595D01*
X122765624Y-65443245D01*
X122700605Y-65496605D01*
X122647245Y-65561624D01*
X122607595Y-65635804D01*
X122583178Y-65716293D01*
X122574934Y-65800000D01*
X122574934Y-67600000D01*
X122580288Y-67654366D01*
X122564591Y-67575449D01*
X122532403Y-67497740D01*
X122485673Y-67427803D01*
X122426197Y-67368328D01*
X122356261Y-67321598D01*
X122278551Y-67289409D01*
X122196056Y-67273000D01*
X121137750Y-67273000D01*
X121031000Y-67379750D01*
X120777000Y-67379750D01*
X120670250Y-67273000D01*
X119611944Y-67273000D01*
X119529449Y-67289409D01*
X119451739Y-67321598D01*
X119381803Y-67368328D01*
X119322327Y-67427803D01*
X119275597Y-67497740D01*
X119243409Y-67575449D01*
X119227000Y-67657944D01*
X117651435Y-67657944D01*
X118588380Y-66721000D01*
X118656614Y-66721000D01*
X118734253Y-66772877D01*
X118884757Y-66835218D01*
X119044532Y-66867000D01*
X119207436Y-66867000D01*
X119367211Y-66835218D01*
X119517715Y-66772877D01*
X119653165Y-66682372D01*
X119768356Y-66567181D01*
X119858861Y-66431731D01*
X119921202Y-66281227D01*
X119952984Y-66121452D01*
X119952984Y-65958548D01*
X119921202Y-65798773D01*
X119858861Y-65648269D01*
X119768356Y-65512819D01*
X119653165Y-65397628D01*
X119517715Y-65307123D01*
X119367211Y-65244782D01*
X119207436Y-65213000D01*
X119044532Y-65213000D01*
X118884757Y-65244782D01*
X118834430Y-65265628D01*
X121025000Y-63075059D01*
X121025000Y-63119002D01*
X121131748Y-63119002D01*
X121025000Y-63225750D01*
X121025000Y-63659056D01*
X121041409Y-63741551D01*
X121073597Y-63819260D01*
X121120327Y-63889197D01*
X121179803Y-63948672D01*
X121249739Y-63995402D01*
X121327449Y-64027591D01*
X121409944Y-64044000D01*
X121718250Y-64044000D01*
X121825000Y-63937250D01*
X121825000Y-63119000D01*
X122079000Y-63119000D01*
X122079000Y-63937250D01*
X122185750Y-64044000D01*
X122494056Y-64044000D01*
X122576551Y-64027591D01*
X122654261Y-63995402D01*
X122724197Y-63948672D01*
X122783673Y-63889197D01*
X122830403Y-63819260D01*
X122862591Y-63741551D01*
X122879000Y-63659056D01*
X122879000Y-63225750D01*
X122772250Y-63119000D01*
X122079000Y-63119000D01*
X121825000Y-63119000D01*
X121805000Y-63119000D01*
X121805000Y-62865000D01*
X121825000Y-62865000D01*
X121825000Y-62845000D01*
X122079000Y-62845000D01*
X122079000Y-62865000D01*
X122772250Y-62865000D01*
X122879000Y-62758250D01*
X122879000Y-62324944D01*
X122862591Y-62242449D01*
X122830403Y-62164740D01*
X122783673Y-62094803D01*
X122724197Y-62035328D01*
X122654261Y-61988598D01*
X122576551Y-61956409D01*
X122494056Y-61940000D01*
X122185750Y-61940000D01*
X122079002Y-62046748D01*
X122079002Y-62021057D01*
X123096059Y-61004000D01*
X125278934Y-61004000D01*
X125278934Y-61277000D01*
G36*
X144532000Y-62725355D02*
X143919500Y-62112856D01*
X143902211Y-62091789D01*
X143818158Y-62022809D01*
X143722263Y-61971552D01*
X143618211Y-61939988D01*
X143537109Y-61932000D01*
X143537106Y-61932000D01*
X143510000Y-61929330D01*
X143482894Y-61932000D01*
X143215066Y-61932000D01*
X143215066Y-61550000D01*
X143206822Y-61466293D01*
X143182405Y-61385804D01*
X143142755Y-61311624D01*
X143089395Y-61246605D01*
X143024376Y-61193245D01*
X142950196Y-61153595D01*
X142869707Y-61129178D01*
X142786000Y-61120934D01*
X141186000Y-61120934D01*
X141102293Y-61129178D01*
X141021804Y-61153595D01*
X140947624Y-61193245D01*
X140882605Y-61246605D01*
X140829245Y-61311624D01*
X140789595Y-61385804D01*
X140765178Y-61466293D01*
X140756934Y-61550000D01*
X140756934Y-63550000D01*
X140765178Y-63633707D01*
X140789595Y-63714196D01*
X140829245Y-63788376D01*
X140882605Y-63853395D01*
X140947624Y-63906755D01*
X141021804Y-63946405D01*
X141102293Y-63970822D01*
X141186000Y-63979066D01*
X142786000Y-63979066D01*
X142869707Y-63970822D01*
X142950196Y-63946405D01*
X143024376Y-63906755D01*
X143089395Y-63853395D01*
X143142755Y-63788376D01*
X143182405Y-63714196D01*
X143206822Y-63633707D01*
X143215066Y-63550000D01*
X143215066Y-63036000D01*
X143281356Y-63036000D01*
X143720001Y-63474647D01*
X143720001Y-64410664D01*
X143708755Y-64389624D01*
X143655395Y-64324605D01*
X143590376Y-64271245D01*
X143516196Y-64231595D01*
X143435707Y-64207178D01*
X143352000Y-64198934D01*
X142652000Y-64198934D01*
X142568293Y-64207178D01*
X142487804Y-64231595D01*
X142413624Y-64271245D01*
X142348605Y-64324605D01*
X142295245Y-64389624D01*
X142255595Y-64463804D01*
X142231178Y-64544293D01*
X142222934Y-64628000D01*
X142222934Y-65896000D01*
X141881066Y-65896000D01*
X141881066Y-64628000D01*
X141872822Y-64544293D01*
X141848405Y-64463804D01*
X141808755Y-64389624D01*
X141755395Y-64324605D01*
X141690376Y-64271245D01*
X141616196Y-64231595D01*
X141535707Y-64207178D01*
X141452000Y-64198934D01*
X140752000Y-64198934D01*
X140668293Y-64207178D01*
X140587804Y-64231595D01*
X140513624Y-64271245D01*
X140448605Y-64324605D01*
X140395245Y-64389624D01*
X140355595Y-64463804D01*
X140331178Y-64544293D01*
X140322934Y-64628000D01*
X140322934Y-64758000D01*
X139015553Y-64758000D01*
X138925181Y-64667628D01*
X138789731Y-64577123D01*
X138639227Y-64514782D01*
X138479452Y-64483000D01*
X138316548Y-64483000D01*
X138156773Y-64514782D01*
X138006269Y-64577123D01*
X137870819Y-64667628D01*
X137755628Y-64782819D01*
X137665123Y-64918269D01*
X137602782Y-65068773D01*
X137571000Y-65228548D01*
X137571000Y-65391452D01*
X137602782Y-65551227D01*
X137665123Y-65701731D01*
X137755628Y-65837181D01*
X137870819Y-65952372D01*
X138006269Y-66042877D01*
X138156773Y-66105218D01*
X138316548Y-66137000D01*
X138479452Y-66137000D01*
X138639227Y-66105218D01*
X138789731Y-66042877D01*
X138925181Y-65952372D01*
X139015553Y-65862000D01*
X140322934Y-65862000D01*
X140322934Y-65896000D01*
X139478022Y-65896000D01*
X139446000Y-65892846D01*
X139318185Y-65905435D01*
X139266245Y-65921191D01*
X139195283Y-65942717D01*
X139082016Y-66003259D01*
X138982736Y-66084736D01*
X138962320Y-66109613D01*
X137665479Y-67406455D01*
X137657395Y-67396605D01*
X137592376Y-67343245D01*
X137518196Y-67303595D01*
X137437707Y-67279178D01*
X137354000Y-67270934D01*
X136785000Y-67270934D01*
X136785000Y-66076802D01*
X136818395Y-66049395D01*
X136871755Y-65984376D01*
X136911405Y-65910196D01*
X136935822Y-65829707D01*
X136944066Y-65746000D01*
X136944066Y-64746000D01*
X136935822Y-64662293D01*
X136911405Y-64581804D01*
X136871755Y-64507624D01*
X136818395Y-64442605D01*
X136753376Y-64389245D01*
X136679196Y-64349595D01*
X136598707Y-64325178D01*
X136515000Y-64316934D01*
X135924012Y-64316934D01*
X135919204Y-64312126D01*
X135897870Y-64286130D01*
X135794174Y-64201030D01*
X135686026Y-64143224D01*
X135763000Y-64066250D01*
X135763000Y-63373000D01*
X136017000Y-63373000D01*
X136017000Y-64066250D01*
X136123750Y-64173000D01*
X136557056Y-64173000D01*
X136639551Y-64156591D01*
X136717260Y-64124403D01*
X136787197Y-64077673D01*
X136846672Y-64018197D01*
X136893402Y-63948261D01*
X136925591Y-63870551D01*
X136942000Y-63788056D01*
X136942000Y-63479750D01*
X136835250Y-63373000D01*
X136017000Y-63373000D01*
X135763000Y-63373000D01*
X134944750Y-63373000D01*
X134838000Y-63479750D01*
X134838000Y-63788056D01*
X134854409Y-63870551D01*
X134886598Y-63948261D01*
X134933328Y-64018197D01*
X134992803Y-64077673D01*
X135009755Y-64089000D01*
X132362079Y-64089000D01*
X131912079Y-63639000D01*
X132354250Y-63639000D01*
X132461000Y-63532250D01*
X132461000Y-63124500D01*
X132715000Y-63124500D01*
X132715000Y-63532250D01*
X132821750Y-63639000D01*
X133380056Y-63639000D01*
X133462551Y-63622591D01*
X133540261Y-63590402D01*
X133610197Y-63543672D01*
X133669673Y-63484197D01*
X133716403Y-63414260D01*
X133748591Y-63336551D01*
X133765000Y-63254056D01*
X133765000Y-63231250D01*
X133658250Y-63124500D01*
X132715000Y-63124500D01*
X132461000Y-63124500D01*
X131517750Y-63124500D01*
X131457664Y-63184586D01*
X131075010Y-62801932D01*
X131075010Y-60612885D01*
X131285274Y-60823149D01*
X131302559Y-60844211D01*
X131386612Y-60913191D01*
X131408934Y-60925122D01*
X131408934Y-61262000D01*
X131417178Y-61345707D01*
X131437289Y-61412000D01*
X131417178Y-61478293D01*
X131408934Y-61562000D01*
X131408934Y-61912000D01*
X131417178Y-61995707D01*
X131437289Y-62062000D01*
X131417178Y-62128293D01*
X131408934Y-62212000D01*
X131408934Y-62562000D01*
X131417178Y-62645707D01*
X131437568Y-62712922D01*
X131427409Y-62737449D01*
X131411000Y-62819944D01*
X131411000Y-62842750D01*
X131517750Y-62949500D01*
X131657144Y-62949500D01*
X131673804Y-62958405D01*
X131754293Y-62982822D01*
X131838000Y-62991066D01*
X133338000Y-62991066D01*
X133421707Y-62982822D01*
X133502196Y-62958405D01*
X133518856Y-62949500D01*
X133658250Y-62949500D01*
X133765000Y-62842750D01*
X133765000Y-62819944D01*
X133748591Y-62737449D01*
X133738432Y-62712922D01*
X133741155Y-62703944D01*
X134838000Y-62703944D01*
X134838000Y-63012250D01*
X134944750Y-63119000D01*
X135763000Y-63119000D01*
X135763000Y-62425750D01*
X136017000Y-62425750D01*
X136017000Y-63119000D01*
X136835250Y-63119000D01*
X136942000Y-63012250D01*
X136942000Y-62703944D01*
X136925591Y-62621449D01*
X136893402Y-62543739D01*
X136846672Y-62473803D01*
X136787197Y-62414327D01*
X136717260Y-62367597D01*
X136639551Y-62335409D01*
X136557056Y-62319000D01*
X136123750Y-62319000D01*
X136017000Y-62425750D01*
X135763000Y-62425750D01*
X135656250Y-62319000D01*
X135222944Y-62319000D01*
X135140449Y-62335409D01*
X135062740Y-62367597D01*
X134992803Y-62414327D01*
X134933328Y-62473803D01*
X134886598Y-62543739D01*
X134854409Y-62621449D01*
X134838000Y-62703944D01*
X133741155Y-62703944D01*
X133758822Y-62645707D01*
X133767066Y-62562000D01*
X133767066Y-62212000D01*
X133758822Y-62128293D01*
X133738711Y-62062000D01*
X133758822Y-61995707D01*
X133767066Y-61912000D01*
X133767066Y-61562000D01*
X133758822Y-61478293D01*
X133738711Y-61412000D01*
X133758822Y-61345707D01*
X133767066Y-61262000D01*
X133767066Y-60912000D01*
X133758822Y-60828293D01*
X133740987Y-60769500D01*
X133758822Y-60710707D01*
X133767066Y-60627000D01*
X133767066Y-60277000D01*
X133758822Y-60193293D01*
X133738711Y-60127000D01*
X133758822Y-60060707D01*
X133767066Y-59977000D01*
X133767066Y-59627000D01*
X133758822Y-59543293D01*
X133738711Y-59477000D01*
X133758822Y-59410707D01*
X133767066Y-59327000D01*
X133767066Y-58977000D01*
X133758822Y-58893293D01*
X133738711Y-58827000D01*
X133758822Y-58760707D01*
X133767066Y-58677000D01*
X133767066Y-58533000D01*
X135408547Y-58533000D01*
X135442000Y-58536295D01*
X135475453Y-58533000D01*
X135575499Y-58523146D01*
X135703868Y-58484206D01*
X135822174Y-58420970D01*
X135925870Y-58335870D01*
X135947204Y-58309874D01*
X136873328Y-57383750D01*
X140759000Y-57383750D01*
X140759000Y-58192056D01*
X140775409Y-58274551D01*
X140807598Y-58352261D01*
X140854328Y-58422197D01*
X140913803Y-58481673D01*
X140983740Y-58528403D01*
X141061449Y-58560591D01*
X141143944Y-58577000D01*
X141752250Y-58577000D01*
X141859000Y-58470250D01*
X141859000Y-57277000D01*
X142113000Y-57277000D01*
X142113000Y-58470250D01*
X142219750Y-58577000D01*
X142828056Y-58577000D01*
X142910551Y-58560591D01*
X142988260Y-58528403D01*
X143058197Y-58481673D01*
X143117672Y-58422197D01*
X143164402Y-58352261D01*
X143196591Y-58274551D01*
X143213000Y-58192056D01*
X143213000Y-57383750D01*
X143106250Y-57277000D01*
X142113000Y-57277000D01*
X141859000Y-57277000D01*
X140865750Y-57277000D01*
X140759000Y-57383750D01*
X136873328Y-57383750D01*
X138125889Y-56131191D01*
X138151869Y-56109870D01*
X138153449Y-56107944D01*
X140759000Y-56107944D01*
X140759000Y-56916250D01*
X140865750Y-57023000D01*
X141859000Y-57023000D01*
X141859000Y-55829750D01*
X142113000Y-55829750D01*
X142113000Y-57023000D01*
X143106250Y-57023000D01*
X143213000Y-56916250D01*
X143213000Y-56107944D01*
X143196591Y-56025449D01*
X143164402Y-55947739D01*
X143117672Y-55877803D01*
X143058197Y-55818327D01*
X142988260Y-55771597D01*
X142910551Y-55739409D01*
X142828056Y-55723000D01*
X142219750Y-55723000D01*
X142113000Y-55829750D01*
X141859000Y-55829750D01*
X141752250Y-55723000D01*
X141143944Y-55723000D01*
X141061449Y-55739409D01*
X140983740Y-55771597D01*
X140913803Y-55818327D01*
X140854328Y-55877803D01*
X140807598Y-55947739D01*
X140775409Y-56025449D01*
X140759000Y-56107944D01*
X138153449Y-56107944D01*
X138173191Y-56083889D01*
X138173194Y-56083886D01*
X138236969Y-56006175D01*
X138236970Y-56006174D01*
X138300206Y-55887868D01*
X138339146Y-55759499D01*
X138349000Y-55659453D01*
X138349000Y-55659452D01*
X138352295Y-55626001D01*
X138349000Y-55592550D01*
X138349000Y-50719000D01*
X138448911Y-50719000D01*
X138449178Y-50721707D01*
X138473595Y-50802196D01*
X138513245Y-50876376D01*
X138566605Y-50941395D01*
X138631624Y-50994755D01*
X138705804Y-51034405D01*
X138786293Y-51058822D01*
X138870000Y-51067066D01*
X139483613Y-51067066D01*
X139470131Y-51078130D01*
X139385031Y-51181826D01*
X139335470Y-51274548D01*
X139322435Y-51298934D01*
X139104000Y-51298934D01*
X139020293Y-51307178D01*
X138939804Y-51331595D01*
X138865624Y-51371245D01*
X138800605Y-51424605D01*
X138747245Y-51489624D01*
X138707595Y-51563804D01*
X138683178Y-51644293D01*
X138674934Y-51728000D01*
X138674934Y-53428000D01*
X138683178Y-53511707D01*
X138707595Y-53592196D01*
X138747245Y-53666376D01*
X138800605Y-53731395D01*
X138865624Y-53784755D01*
X138939804Y-53824405D01*
X139020293Y-53848822D01*
X139104000Y-53857066D01*
X140804000Y-53857066D01*
X140887707Y-53848822D01*
X140968196Y-53824405D01*
X141042376Y-53784755D01*
X141107395Y-53731395D01*
X141160755Y-53666376D01*
X141200405Y-53592196D01*
X141224822Y-53511707D01*
X141233066Y-53428000D01*
X141233066Y-52705002D01*
X141330074Y-52705002D01*
X141258836Y-52902214D01*
X141345820Y-53136953D01*
X141476928Y-53350212D01*
X141647122Y-53533795D01*
X141849861Y-53680647D01*
X142077354Y-53785125D01*
X142169787Y-53813158D01*
X142367000Y-53741338D01*
X142367000Y-52705000D01*
X142621000Y-52705000D01*
X142621000Y-53741338D01*
X142818213Y-53813158D01*
X142910646Y-53785125D01*
X143138139Y-53680647D01*
X143340878Y-53533795D01*
X143511072Y-53350212D01*
X143642180Y-53136953D01*
X143729164Y-52902214D01*
X143657925Y-52705000D01*
X142621000Y-52705000D01*
X142367000Y-52705000D01*
X142347000Y-52705000D01*
X142347000Y-52451000D01*
X142367000Y-52451000D01*
X142367000Y-51414662D01*
X142621000Y-51414662D01*
X142621000Y-52451000D01*
X143657925Y-52451000D01*
X143729164Y-52253786D01*
X143642180Y-52019047D01*
X143511072Y-51805788D01*
X143340878Y-51622205D01*
X143138139Y-51475353D01*
X142910646Y-51370875D01*
X142818213Y-51342842D01*
X142621000Y-51414662D01*
X142367000Y-51414662D01*
X142169787Y-51342842D01*
X142077354Y-51370875D01*
X141849861Y-51475353D01*
X141647122Y-51622205D01*
X141476928Y-51805788D01*
X141345820Y-52019047D01*
X141258836Y-52253786D01*
X141330074Y-52450998D01*
X141233066Y-52450998D01*
X141233066Y-51728000D01*
X141224822Y-51644293D01*
X141200405Y-51563804D01*
X141160755Y-51489624D01*
X141107395Y-51424605D01*
X141078328Y-51400750D01*
X141751085Y-50727994D01*
X141773595Y-50802196D01*
X141813245Y-50876376D01*
X141866605Y-50941395D01*
X141931624Y-50994755D01*
X142005804Y-51034405D01*
X142086293Y-51058822D01*
X142170000Y-51067066D01*
X143070000Y-51067066D01*
X143153707Y-51058822D01*
X143234196Y-51034405D01*
X143308376Y-50994755D01*
X143373395Y-50941395D01*
X143426755Y-50876376D01*
X143466405Y-50802196D01*
X143490822Y-50721707D01*
X143499066Y-50638000D01*
X143499066Y-49438000D01*
X143490822Y-49354293D01*
X143466405Y-49273804D01*
X143426755Y-49199624D01*
X143373395Y-49134605D01*
X143308376Y-49081245D01*
X143234196Y-49041595D01*
X143232235Y-49041000D01*
X144532000Y-49041000D01*
X144532000Y-62725355D01*
X144532000Y-62725355D01*
G37*
X144532000Y-62725355D02*
X143919500Y-62112856D01*
X143902211Y-62091789D01*
X143818158Y-62022809D01*
X143722263Y-61971552D01*
X143618211Y-61939988D01*
X143537109Y-61932000D01*
X143537106Y-61932000D01*
X143510000Y-61929330D01*
X143482894Y-61932000D01*
X143215066Y-61932000D01*
X143215066Y-61550000D01*
X143206822Y-61466293D01*
X143182405Y-61385804D01*
X143142755Y-61311624D01*
X143089395Y-61246605D01*
X143024376Y-61193245D01*
X142950196Y-61153595D01*
X142869707Y-61129178D01*
X142786000Y-61120934D01*
X141186000Y-61120934D01*
X141102293Y-61129178D01*
X141021804Y-61153595D01*
X140947624Y-61193245D01*
X140882605Y-61246605D01*
X140829245Y-61311624D01*
X140789595Y-61385804D01*
X140765178Y-61466293D01*
X140756934Y-61550000D01*
X140756934Y-63550000D01*
X140765178Y-63633707D01*
X140789595Y-63714196D01*
X140829245Y-63788376D01*
X140882605Y-63853395D01*
X140947624Y-63906755D01*
X141021804Y-63946405D01*
X141102293Y-63970822D01*
X141186000Y-63979066D01*
X142786000Y-63979066D01*
X142869707Y-63970822D01*
X142950196Y-63946405D01*
X143024376Y-63906755D01*
X143089395Y-63853395D01*
X143142755Y-63788376D01*
X143182405Y-63714196D01*
X143206822Y-63633707D01*
X143215066Y-63550000D01*
X143215066Y-63036000D01*
X143281356Y-63036000D01*
X143720001Y-63474647D01*
X143720001Y-64410664D01*
X143708755Y-64389624D01*
X143655395Y-64324605D01*
X143590376Y-64271245D01*
X143516196Y-64231595D01*
X143435707Y-64207178D01*
X143352000Y-64198934D01*
X142652000Y-64198934D01*
X142568293Y-64207178D01*
X142487804Y-64231595D01*
X142413624Y-64271245D01*
X142348605Y-64324605D01*
X142295245Y-64389624D01*
X142255595Y-64463804D01*
X142231178Y-64544293D01*
X142222934Y-64628000D01*
X142222934Y-65896000D01*
X141881066Y-65896000D01*
X141881066Y-64628000D01*
X141872822Y-64544293D01*
X141848405Y-64463804D01*
X141808755Y-64389624D01*
X141755395Y-64324605D01*
X141690376Y-64271245D01*
X141616196Y-64231595D01*
X141535707Y-64207178D01*
X141452000Y-64198934D01*
X140752000Y-64198934D01*
X140668293Y-64207178D01*
X140587804Y-64231595D01*
X140513624Y-64271245D01*
X140448605Y-64324605D01*
X140395245Y-64389624D01*
X140355595Y-64463804D01*
X140331178Y-64544293D01*
X140322934Y-64628000D01*
X140322934Y-64758000D01*
X139015553Y-64758000D01*
X138925181Y-64667628D01*
X138789731Y-64577123D01*
X138639227Y-64514782D01*
X138479452Y-64483000D01*
X138316548Y-64483000D01*
X138156773Y-64514782D01*
X138006269Y-64577123D01*
X137870819Y-64667628D01*
X137755628Y-64782819D01*
X137665123Y-64918269D01*
X137602782Y-65068773D01*
X137571000Y-65228548D01*
X137571000Y-65391452D01*
X137602782Y-65551227D01*
X137665123Y-65701731D01*
X137755628Y-65837181D01*
X137870819Y-65952372D01*
X138006269Y-66042877D01*
X138156773Y-66105218D01*
X138316548Y-66137000D01*
X138479452Y-66137000D01*
X138639227Y-66105218D01*
X138789731Y-66042877D01*
X138925181Y-65952372D01*
X139015553Y-65862000D01*
X140322934Y-65862000D01*
X140322934Y-65896000D01*
X139478022Y-65896000D01*
X139446000Y-65892846D01*
X139318185Y-65905435D01*
X139266245Y-65921191D01*
X139195283Y-65942717D01*
X139082016Y-66003259D01*
X138982736Y-66084736D01*
X138962320Y-66109613D01*
X137665479Y-67406455D01*
X137657395Y-67396605D01*
X137592376Y-67343245D01*
X137518196Y-67303595D01*
X137437707Y-67279178D01*
X137354000Y-67270934D01*
X136785000Y-67270934D01*
X136785000Y-66076802D01*
X136818395Y-66049395D01*
X136871755Y-65984376D01*
X136911405Y-65910196D01*
X136935822Y-65829707D01*
X136944066Y-65746000D01*
X136944066Y-64746000D01*
X136935822Y-64662293D01*
X136911405Y-64581804D01*
X136871755Y-64507624D01*
X136818395Y-64442605D01*
X136753376Y-64389245D01*
X136679196Y-64349595D01*
X136598707Y-64325178D01*
X136515000Y-64316934D01*
X135924012Y-64316934D01*
X135919204Y-64312126D01*
X135897870Y-64286130D01*
X135794174Y-64201030D01*
X135686026Y-64143224D01*
X135763000Y-64066250D01*
X135763000Y-63373000D01*
X136017000Y-63373000D01*
X136017000Y-64066250D01*
X136123750Y-64173000D01*
X136557056Y-64173000D01*
X136639551Y-64156591D01*
X136717260Y-64124403D01*
X136787197Y-64077673D01*
X136846672Y-64018197D01*
X136893402Y-63948261D01*
X136925591Y-63870551D01*
X136942000Y-63788056D01*
X136942000Y-63479750D01*
X136835250Y-63373000D01*
X136017000Y-63373000D01*
X135763000Y-63373000D01*
X134944750Y-63373000D01*
X134838000Y-63479750D01*
X134838000Y-63788056D01*
X134854409Y-63870551D01*
X134886598Y-63948261D01*
X134933328Y-64018197D01*
X134992803Y-64077673D01*
X135009755Y-64089000D01*
X132362079Y-64089000D01*
X131912079Y-63639000D01*
X132354250Y-63639000D01*
X132461000Y-63532250D01*
X132461000Y-63124500D01*
X132715000Y-63124500D01*
X132715000Y-63532250D01*
X132821750Y-63639000D01*
X133380056Y-63639000D01*
X133462551Y-63622591D01*
X133540261Y-63590402D01*
X133610197Y-63543672D01*
X133669673Y-63484197D01*
X133716403Y-63414260D01*
X133748591Y-63336551D01*
X133765000Y-63254056D01*
X133765000Y-63231250D01*
X133658250Y-63124500D01*
X132715000Y-63124500D01*
X132461000Y-63124500D01*
X131517750Y-63124500D01*
X131457664Y-63184586D01*
X131075010Y-62801932D01*
X131075010Y-60612885D01*
X131285274Y-60823149D01*
X131302559Y-60844211D01*
X131386612Y-60913191D01*
X131408934Y-60925122D01*
X131408934Y-61262000D01*
X131417178Y-61345707D01*
X131437289Y-61412000D01*
X131417178Y-61478293D01*
X131408934Y-61562000D01*
X131408934Y-61912000D01*
X131417178Y-61995707D01*
X131437289Y-62062000D01*
X131417178Y-62128293D01*
X131408934Y-62212000D01*
X131408934Y-62562000D01*
X131417178Y-62645707D01*
X131437568Y-62712922D01*
X131427409Y-62737449D01*
X131411000Y-62819944D01*
X131411000Y-62842750D01*
X131517750Y-62949500D01*
X131657144Y-62949500D01*
X131673804Y-62958405D01*
X131754293Y-62982822D01*
X131838000Y-62991066D01*
X133338000Y-62991066D01*
X133421707Y-62982822D01*
X133502196Y-62958405D01*
X133518856Y-62949500D01*
X133658250Y-62949500D01*
X133765000Y-62842750D01*
X133765000Y-62819944D01*
X133748591Y-62737449D01*
X133738432Y-62712922D01*
X133741155Y-62703944D01*
X134838000Y-62703944D01*
X134838000Y-63012250D01*
X134944750Y-63119000D01*
X135763000Y-63119000D01*
X135763000Y-62425750D01*
X136017000Y-62425750D01*
X136017000Y-63119000D01*
X136835250Y-63119000D01*
X136942000Y-63012250D01*
X136942000Y-62703944D01*
X136925591Y-62621449D01*
X136893402Y-62543739D01*
X136846672Y-62473803D01*
X136787197Y-62414327D01*
X136717260Y-62367597D01*
X136639551Y-62335409D01*
X136557056Y-62319000D01*
X136123750Y-62319000D01*
X136017000Y-62425750D01*
X135763000Y-62425750D01*
X135656250Y-62319000D01*
X135222944Y-62319000D01*
X135140449Y-62335409D01*
X135062740Y-62367597D01*
X134992803Y-62414327D01*
X134933328Y-62473803D01*
X134886598Y-62543739D01*
X134854409Y-62621449D01*
X134838000Y-62703944D01*
X133741155Y-62703944D01*
X133758822Y-62645707D01*
X133767066Y-62562000D01*
X133767066Y-62212000D01*
X133758822Y-62128293D01*
X133738711Y-62062000D01*
X133758822Y-61995707D01*
X133767066Y-61912000D01*
X133767066Y-61562000D01*
X133758822Y-61478293D01*
X133738711Y-61412000D01*
X133758822Y-61345707D01*
X133767066Y-61262000D01*
X133767066Y-60912000D01*
X133758822Y-60828293D01*
X133740987Y-60769500D01*
X133758822Y-60710707D01*
X133767066Y-60627000D01*
X133767066Y-60277000D01*
X133758822Y-60193293D01*
X133738711Y-60127000D01*
X133758822Y-60060707D01*
X133767066Y-59977000D01*
X133767066Y-59627000D01*
X133758822Y-59543293D01*
X133738711Y-59477000D01*
X133758822Y-59410707D01*
X133767066Y-59327000D01*
X133767066Y-58977000D01*
X133758822Y-58893293D01*
X133738711Y-58827000D01*
X133758822Y-58760707D01*
X133767066Y-58677000D01*
X133767066Y-58533000D01*
X135408547Y-58533000D01*
X135442000Y-58536295D01*
X135475453Y-58533000D01*
X135575499Y-58523146D01*
X135703868Y-58484206D01*
X135822174Y-58420970D01*
X135925870Y-58335870D01*
X135947204Y-58309874D01*
X136873328Y-57383750D01*
X140759000Y-57383750D01*
X140759000Y-58192056D01*
X140775409Y-58274551D01*
X140807598Y-58352261D01*
X140854328Y-58422197D01*
X140913803Y-58481673D01*
X140983740Y-58528403D01*
X141061449Y-58560591D01*
X141143944Y-58577000D01*
X141752250Y-58577000D01*
X141859000Y-58470250D01*
X141859000Y-57277000D01*
X142113000Y-57277000D01*
X142113000Y-58470250D01*
X142219750Y-58577000D01*
X142828056Y-58577000D01*
X142910551Y-58560591D01*
X142988260Y-58528403D01*
X143058197Y-58481673D01*
X143117672Y-58422197D01*
X143164402Y-58352261D01*
X143196591Y-58274551D01*
X143213000Y-58192056D01*
X143213000Y-57383750D01*
X143106250Y-57277000D01*
X142113000Y-57277000D01*
X141859000Y-57277000D01*
X140865750Y-57277000D01*
X140759000Y-57383750D01*
X136873328Y-57383750D01*
X138125889Y-56131191D01*
X138151869Y-56109870D01*
X138153449Y-56107944D01*
X140759000Y-56107944D01*
X140759000Y-56916250D01*
X140865750Y-57023000D01*
X141859000Y-57023000D01*
X141859000Y-55829750D01*
X142113000Y-55829750D01*
X142113000Y-57023000D01*
X143106250Y-57023000D01*
X143213000Y-56916250D01*
X143213000Y-56107944D01*
X143196591Y-56025449D01*
X143164402Y-55947739D01*
X143117672Y-55877803D01*
X143058197Y-55818327D01*
X142988260Y-55771597D01*
X142910551Y-55739409D01*
X142828056Y-55723000D01*
X142219750Y-55723000D01*
X142113000Y-55829750D01*
X141859000Y-55829750D01*
X141752250Y-55723000D01*
X141143944Y-55723000D01*
X141061449Y-55739409D01*
X140983740Y-55771597D01*
X140913803Y-55818327D01*
X140854328Y-55877803D01*
X140807598Y-55947739D01*
X140775409Y-56025449D01*
X140759000Y-56107944D01*
X138153449Y-56107944D01*
X138173191Y-56083889D01*
X138173194Y-56083886D01*
X138236969Y-56006175D01*
X138236970Y-56006174D01*
X138300206Y-55887868D01*
X138339146Y-55759499D01*
X138349000Y-55659453D01*
X138349000Y-55659452D01*
X138352295Y-55626001D01*
X138349000Y-55592550D01*
X138349000Y-50719000D01*
X138448911Y-50719000D01*
X138449178Y-50721707D01*
X138473595Y-50802196D01*
X138513245Y-50876376D01*
X138566605Y-50941395D01*
X138631624Y-50994755D01*
X138705804Y-51034405D01*
X138786293Y-51058822D01*
X138870000Y-51067066D01*
X139483613Y-51067066D01*
X139470131Y-51078130D01*
X139385031Y-51181826D01*
X139335470Y-51274548D01*
X139322435Y-51298934D01*
X139104000Y-51298934D01*
X139020293Y-51307178D01*
X138939804Y-51331595D01*
X138865624Y-51371245D01*
X138800605Y-51424605D01*
X138747245Y-51489624D01*
X138707595Y-51563804D01*
X138683178Y-51644293D01*
X138674934Y-51728000D01*
X138674934Y-53428000D01*
X138683178Y-53511707D01*
X138707595Y-53592196D01*
X138747245Y-53666376D01*
X138800605Y-53731395D01*
X138865624Y-53784755D01*
X138939804Y-53824405D01*
X139020293Y-53848822D01*
X139104000Y-53857066D01*
X140804000Y-53857066D01*
X140887707Y-53848822D01*
X140968196Y-53824405D01*
X141042376Y-53784755D01*
X141107395Y-53731395D01*
X141160755Y-53666376D01*
X141200405Y-53592196D01*
X141224822Y-53511707D01*
X141233066Y-53428000D01*
X141233066Y-52705002D01*
X141330074Y-52705002D01*
X141258836Y-52902214D01*
X141345820Y-53136953D01*
X141476928Y-53350212D01*
X141647122Y-53533795D01*
X141849861Y-53680647D01*
X142077354Y-53785125D01*
X142169787Y-53813158D01*
X142367000Y-53741338D01*
X142367000Y-52705000D01*
X142621000Y-52705000D01*
X142621000Y-53741338D01*
X142818213Y-53813158D01*
X142910646Y-53785125D01*
X143138139Y-53680647D01*
X143340878Y-53533795D01*
X143511072Y-53350212D01*
X143642180Y-53136953D01*
X143729164Y-52902214D01*
X143657925Y-52705000D01*
X142621000Y-52705000D01*
X142367000Y-52705000D01*
X142347000Y-52705000D01*
X142347000Y-52451000D01*
X142367000Y-52451000D01*
X142367000Y-51414662D01*
X142621000Y-51414662D01*
X142621000Y-52451000D01*
X143657925Y-52451000D01*
X143729164Y-52253786D01*
X143642180Y-52019047D01*
X143511072Y-51805788D01*
X143340878Y-51622205D01*
X143138139Y-51475353D01*
X142910646Y-51370875D01*
X142818213Y-51342842D01*
X142621000Y-51414662D01*
X142367000Y-51414662D01*
X142169787Y-51342842D01*
X142077354Y-51370875D01*
X141849861Y-51475353D01*
X141647122Y-51622205D01*
X141476928Y-51805788D01*
X141345820Y-52019047D01*
X141258836Y-52253786D01*
X141330074Y-52450998D01*
X141233066Y-52450998D01*
X141233066Y-51728000D01*
X141224822Y-51644293D01*
X141200405Y-51563804D01*
X141160755Y-51489624D01*
X141107395Y-51424605D01*
X141078328Y-51400750D01*
X141751085Y-50727994D01*
X141773595Y-50802196D01*
X141813245Y-50876376D01*
X141866605Y-50941395D01*
X141931624Y-50994755D01*
X142005804Y-51034405D01*
X142086293Y-51058822D01*
X142170000Y-51067066D01*
X143070000Y-51067066D01*
X143153707Y-51058822D01*
X143234196Y-51034405D01*
X143308376Y-50994755D01*
X143373395Y-50941395D01*
X143426755Y-50876376D01*
X143466405Y-50802196D01*
X143490822Y-50721707D01*
X143499066Y-50638000D01*
X143499066Y-49438000D01*
X143490822Y-49354293D01*
X143466405Y-49273804D01*
X143426755Y-49199624D01*
X143373395Y-49134605D01*
X143308376Y-49081245D01*
X143234196Y-49041595D01*
X143232235Y-49041000D01*
X144532000Y-49041000D01*
X144532000Y-62725355D01*
G36*
X123929085Y-57441668D02*
X123991426Y-57592172D01*
X124081931Y-57727622D01*
X124197122Y-57842813D01*
X124332572Y-57933318D01*
X124336842Y-57935087D01*
X124322269Y-57941123D01*
X124186819Y-58031628D01*
X124071628Y-58146819D01*
X123981123Y-58282269D01*
X123918782Y-58432773D01*
X123887000Y-58592548D01*
X123887000Y-58755452D01*
X123918782Y-58915227D01*
X123981123Y-59065731D01*
X124071628Y-59201181D01*
X124120447Y-59250000D01*
X122908108Y-59250000D01*
X122881002Y-59247330D01*
X122853896Y-59250000D01*
X122853893Y-59250000D01*
X122772791Y-59257988D01*
X122668739Y-59289552D01*
X122572844Y-59340809D01*
X122488791Y-59409789D01*
X122471506Y-59430851D01*
X115888988Y-66013370D01*
X115888988Y-65958548D01*
X115857206Y-65798773D01*
X115794865Y-65648269D01*
X115714000Y-65527246D01*
X115714000Y-64417066D01*
X116037000Y-64417066D01*
X116120707Y-64408822D01*
X116201196Y-64384405D01*
X116275376Y-64344755D01*
X116340395Y-64291395D01*
X116393755Y-64226376D01*
X116433405Y-64152196D01*
X116457822Y-64071707D01*
X116466066Y-63988000D01*
X116466066Y-61488000D01*
X116457822Y-61404293D01*
X116433405Y-61323804D01*
X116393755Y-61249624D01*
X116340395Y-61184605D01*
X116275376Y-61131245D01*
X116201196Y-61091595D01*
X116120707Y-61067178D01*
X116037000Y-61058934D01*
X115743000Y-61058934D01*
X115743000Y-59683750D01*
X116937000Y-59683750D01*
X116937000Y-60242056D01*
X116953409Y-60324551D01*
X116985597Y-60402260D01*
X117032327Y-60472197D01*
X117091803Y-60531672D01*
X117161739Y-60578402D01*
X117239449Y-60610591D01*
X117321944Y-60627000D01*
X118130250Y-60627000D01*
X118237000Y-60520250D01*
X118237000Y-59577000D01*
X118491000Y-59577000D01*
X118491000Y-60520250D01*
X118597750Y-60627000D01*
X119406056Y-60627000D01*
X119488551Y-60610591D01*
X119566261Y-60578402D01*
X119636197Y-60531672D01*
X119695673Y-60472197D01*
X119742403Y-60402260D01*
X119774591Y-60324551D01*
X119791000Y-60242056D01*
X119791000Y-59683750D01*
X119684250Y-59577000D01*
X118491000Y-59577000D01*
X118237000Y-59577000D01*
X117043750Y-59577000D01*
X116937000Y-59683750D01*
X115743000Y-59683750D01*
X115743000Y-58956078D01*
X116868080Y-57831000D01*
X116934934Y-57831000D01*
X116934934Y-57900000D01*
X116943178Y-57983707D01*
X116967595Y-58064196D01*
X117007245Y-58138376D01*
X117060605Y-58203395D01*
X117125624Y-58256755D01*
X117199804Y-58296405D01*
X117212939Y-58300390D01*
X117161739Y-58321598D01*
X117091803Y-58368328D01*
X117032327Y-58427803D01*
X116985597Y-58497740D01*
X116953409Y-58575449D01*
X116937000Y-58657944D01*
X116937000Y-59216250D01*
X117043750Y-59323000D01*
X118237000Y-59323000D01*
X118237000Y-59303000D01*
X118491000Y-59303000D01*
X118491000Y-59323000D01*
X119684250Y-59323000D01*
X119791000Y-59216250D01*
X119791000Y-58657944D01*
X119774591Y-58575449D01*
X119742403Y-58497740D01*
X119695673Y-58427803D01*
X119636197Y-58368328D01*
X119566261Y-58321598D01*
X119515061Y-58300390D01*
X119528196Y-58296405D01*
X119602376Y-58256755D01*
X119667395Y-58203395D01*
X119720755Y-58138376D01*
X119760405Y-58064196D01*
X119784822Y-57983707D01*
X119793066Y-57900000D01*
X119793066Y-57831000D01*
X123156547Y-57831000D01*
X123190000Y-57834295D01*
X123223453Y-57831000D01*
X123323499Y-57821146D01*
X123451868Y-57782206D01*
X123570174Y-57718970D01*
X123673870Y-57633870D01*
X123695204Y-57607874D01*
X123917857Y-57385221D01*
X123929085Y-57441668D01*
X123929085Y-57441668D01*
G37*
X123929085Y-57441668D02*
X123991426Y-57592172D01*
X124081931Y-57727622D01*
X124197122Y-57842813D01*
X124332572Y-57933318D01*
X124336842Y-57935087D01*
X124322269Y-57941123D01*
X124186819Y-58031628D01*
X124071628Y-58146819D01*
X123981123Y-58282269D01*
X123918782Y-58432773D01*
X123887000Y-58592548D01*
X123887000Y-58755452D01*
X123918782Y-58915227D01*
X123981123Y-59065731D01*
X124071628Y-59201181D01*
X124120447Y-59250000D01*
X122908108Y-59250000D01*
X122881002Y-59247330D01*
X122853896Y-59250000D01*
X122853893Y-59250000D01*
X122772791Y-59257988D01*
X122668739Y-59289552D01*
X122572844Y-59340809D01*
X122488791Y-59409789D01*
X122471506Y-59430851D01*
X115888988Y-66013370D01*
X115888988Y-65958548D01*
X115857206Y-65798773D01*
X115794865Y-65648269D01*
X115714000Y-65527246D01*
X115714000Y-64417066D01*
X116037000Y-64417066D01*
X116120707Y-64408822D01*
X116201196Y-64384405D01*
X116275376Y-64344755D01*
X116340395Y-64291395D01*
X116393755Y-64226376D01*
X116433405Y-64152196D01*
X116457822Y-64071707D01*
X116466066Y-63988000D01*
X116466066Y-61488000D01*
X116457822Y-61404293D01*
X116433405Y-61323804D01*
X116393755Y-61249624D01*
X116340395Y-61184605D01*
X116275376Y-61131245D01*
X116201196Y-61091595D01*
X116120707Y-61067178D01*
X116037000Y-61058934D01*
X115743000Y-61058934D01*
X115743000Y-59683750D01*
X116937000Y-59683750D01*
X116937000Y-60242056D01*
X116953409Y-60324551D01*
X116985597Y-60402260D01*
X117032327Y-60472197D01*
X117091803Y-60531672D01*
X117161739Y-60578402D01*
X117239449Y-60610591D01*
X117321944Y-60627000D01*
X118130250Y-60627000D01*
X118237000Y-60520250D01*
X118237000Y-59577000D01*
X118491000Y-59577000D01*
X118491000Y-60520250D01*
X118597750Y-60627000D01*
X119406056Y-60627000D01*
X119488551Y-60610591D01*
X119566261Y-60578402D01*
X119636197Y-60531672D01*
X119695673Y-60472197D01*
X119742403Y-60402260D01*
X119774591Y-60324551D01*
X119791000Y-60242056D01*
X119791000Y-59683750D01*
X119684250Y-59577000D01*
X118491000Y-59577000D01*
X118237000Y-59577000D01*
X117043750Y-59577000D01*
X116937000Y-59683750D01*
X115743000Y-59683750D01*
X115743000Y-58956078D01*
X116868080Y-57831000D01*
X116934934Y-57831000D01*
X116934934Y-57900000D01*
X116943178Y-57983707D01*
X116967595Y-58064196D01*
X117007245Y-58138376D01*
X117060605Y-58203395D01*
X117125624Y-58256755D01*
X117199804Y-58296405D01*
X117212939Y-58300390D01*
X117161739Y-58321598D01*
X117091803Y-58368328D01*
X117032327Y-58427803D01*
X116985597Y-58497740D01*
X116953409Y-58575449D01*
X116937000Y-58657944D01*
X116937000Y-59216250D01*
X117043750Y-59323000D01*
X118237000Y-59323000D01*
X118237000Y-59303000D01*
X118491000Y-59303000D01*
X118491000Y-59323000D01*
X119684250Y-59323000D01*
X119791000Y-59216250D01*
X119791000Y-58657944D01*
X119774591Y-58575449D01*
X119742403Y-58497740D01*
X119695673Y-58427803D01*
X119636197Y-58368328D01*
X119566261Y-58321598D01*
X119515061Y-58300390D01*
X119528196Y-58296405D01*
X119602376Y-58256755D01*
X119667395Y-58203395D01*
X119720755Y-58138376D01*
X119760405Y-58064196D01*
X119784822Y-57983707D01*
X119793066Y-57900000D01*
X119793066Y-57831000D01*
X123156547Y-57831000D01*
X123190000Y-57834295D01*
X123223453Y-57831000D01*
X123323499Y-57821146D01*
X123451868Y-57782206D01*
X123570174Y-57718970D01*
X123673870Y-57633870D01*
X123695204Y-57607874D01*
X123917857Y-57385221D01*
X123929085Y-57441668D01*
G36*
X136987000Y-50004547D02*
X136983705Y-50038000D01*
X136987001Y-50071462D01*
X136987000Y-55343920D01*
X135159922Y-57171000D01*
X133767066Y-57171000D01*
X133767066Y-57027000D01*
X133758822Y-56943293D01*
X133734405Y-56862804D01*
X133694755Y-56788624D01*
X133641395Y-56723605D01*
X133576376Y-56670245D01*
X133502196Y-56630595D01*
X133421707Y-56606178D01*
X133338000Y-56597934D01*
X133140000Y-56597934D01*
X133140000Y-56243567D01*
X133230386Y-56153181D01*
X133320891Y-56017731D01*
X133383232Y-55867227D01*
X133415014Y-55707452D01*
X133415014Y-55544548D01*
X133383232Y-55384773D01*
X133320891Y-55234269D01*
X133230386Y-55098819D01*
X133115195Y-54983628D01*
X132979745Y-54893123D01*
X132829241Y-54830782D01*
X132669466Y-54799000D01*
X132506562Y-54799000D01*
X132346787Y-54830782D01*
X132196283Y-54893123D01*
X132060833Y-54983628D01*
X131945642Y-55098819D01*
X131870000Y-55212025D01*
X131870000Y-55092644D01*
X133467154Y-53495492D01*
X133488211Y-53478211D01*
X133557191Y-53394158D01*
X133608448Y-53298263D01*
X133640012Y-53194211D01*
X133648000Y-53113109D01*
X133648000Y-53113108D01*
X133650670Y-53086000D01*
X133648000Y-53058892D01*
X133648000Y-52460924D01*
X133808896Y-52374924D01*
X134003344Y-52215344D01*
X134162924Y-52020896D01*
X134281502Y-51799051D01*
X134354522Y-51558336D01*
X134366669Y-51435002D01*
X134472074Y-51435002D01*
X134400836Y-51632214D01*
X134487820Y-51866953D01*
X134618928Y-52080212D01*
X134789122Y-52263795D01*
X134991861Y-52410647D01*
X135219354Y-52515125D01*
X135311787Y-52543158D01*
X135509000Y-52471338D01*
X135509000Y-51435000D01*
X135763000Y-51435000D01*
X135763000Y-52471338D01*
X135960213Y-52543158D01*
X136052646Y-52515125D01*
X136280139Y-52410647D01*
X136482878Y-52263795D01*
X136653072Y-52080212D01*
X136784180Y-51866953D01*
X136871164Y-51632214D01*
X136799925Y-51435000D01*
X135763000Y-51435000D01*
X135509000Y-51435000D01*
X135489000Y-51435000D01*
X135489000Y-51181000D01*
X135509000Y-51181000D01*
X135509000Y-50144662D01*
X135763000Y-50144662D01*
X135763000Y-51181000D01*
X136799925Y-51181000D01*
X136871164Y-50983786D01*
X136784180Y-50749047D01*
X136653072Y-50535788D01*
X136482878Y-50352205D01*
X136280139Y-50205353D01*
X136052646Y-50100875D01*
X135960213Y-50072842D01*
X135763000Y-50144662D01*
X135509000Y-50144662D01*
X135311787Y-50072842D01*
X135219354Y-50100875D01*
X134991861Y-50205353D01*
X134789122Y-50352205D01*
X134618928Y-50535788D01*
X134487820Y-50749047D01*
X134400836Y-50983786D01*
X134472074Y-51180998D01*
X134366669Y-51180998D01*
X134354522Y-51057664D01*
X134281502Y-50816949D01*
X134162924Y-50595104D01*
X134003344Y-50400656D01*
X133808896Y-50241076D01*
X133587051Y-50122498D01*
X133346336Y-50049478D01*
X133158726Y-50031000D01*
X133033274Y-50031000D01*
X132845664Y-50049478D01*
X132604949Y-50122498D01*
X132383104Y-50241076D01*
X132188656Y-50400656D01*
X132029076Y-50595104D01*
X131910498Y-50816949D01*
X131837478Y-51057664D01*
X131826000Y-51174202D01*
X131814522Y-51057664D01*
X131741502Y-50816949D01*
X131622924Y-50595104D01*
X131463344Y-50400656D01*
X131268896Y-50241076D01*
X131047051Y-50122498D01*
X130806336Y-50049478D01*
X130618726Y-50031000D01*
X130493274Y-50031000D01*
X130305664Y-50049478D01*
X130064949Y-50122498D01*
X129843104Y-50241076D01*
X129648656Y-50400656D01*
X129489076Y-50595104D01*
X129370498Y-50816949D01*
X129297478Y-51057664D01*
X129286000Y-51174202D01*
X129274522Y-51057664D01*
X129201502Y-50816949D01*
X129082924Y-50595104D01*
X128923344Y-50400656D01*
X128728896Y-50241076D01*
X128507051Y-50122498D01*
X128266336Y-50049478D01*
X128078726Y-50031000D01*
X127953274Y-50031000D01*
X127765664Y-50049478D01*
X127524949Y-50122498D01*
X127303104Y-50241076D01*
X127108656Y-50400656D01*
X126949076Y-50595104D01*
X126830498Y-50816949D01*
X126757478Y-51057664D01*
X126746000Y-51174202D01*
X126734522Y-51057664D01*
X126661502Y-50816949D01*
X126542924Y-50595104D01*
X126383344Y-50400656D01*
X126188896Y-50241076D01*
X125967051Y-50122498D01*
X125726336Y-50049478D01*
X125538726Y-50031000D01*
X125413274Y-50031000D01*
X125225664Y-50049478D01*
X124984949Y-50122498D01*
X124763104Y-50241076D01*
X124568656Y-50400656D01*
X124409076Y-50595104D01*
X124290498Y-50816949D01*
X124217478Y-51057664D01*
X124206000Y-51174202D01*
X124194522Y-51057664D01*
X124121502Y-50816949D01*
X124002924Y-50595104D01*
X123843344Y-50400656D01*
X123648896Y-50241076D01*
X123427051Y-50122498D01*
X123186336Y-50049478D01*
X122998726Y-50031000D01*
X122873274Y-50031000D01*
X122685664Y-50049478D01*
X122444949Y-50122498D01*
X122223104Y-50241076D01*
X122028656Y-50400656D01*
X121869076Y-50595104D01*
X121750498Y-50816949D01*
X121677478Y-51057664D01*
X121675066Y-51082153D01*
X121675066Y-50458000D01*
X121666822Y-50374293D01*
X121642405Y-50293804D01*
X121602755Y-50219624D01*
X121549395Y-50154605D01*
X121484376Y-50101245D01*
X121410196Y-50061595D01*
X121329707Y-50037178D01*
X121246000Y-50028934D01*
X119546000Y-50028934D01*
X119462293Y-50037178D01*
X119381804Y-50061595D01*
X119307624Y-50101245D01*
X119242605Y-50154605D01*
X119189245Y-50219624D01*
X119149595Y-50293804D01*
X119125178Y-50374293D01*
X119116934Y-50458000D01*
X119116934Y-52158000D01*
X119125178Y-52241707D01*
X119149595Y-52322196D01*
X119189245Y-52396376D01*
X119242605Y-52461395D01*
X119307624Y-52514755D01*
X119381804Y-52554405D01*
X119462293Y-52578822D01*
X119546000Y-52587066D01*
X121246000Y-52587066D01*
X121329707Y-52578822D01*
X121410196Y-52554405D01*
X121484376Y-52514755D01*
X121549395Y-52461395D01*
X121602755Y-52396376D01*
X121642405Y-52322196D01*
X121666822Y-52241707D01*
X121675066Y-52158000D01*
X121675066Y-51533847D01*
X121677478Y-51558336D01*
X121750498Y-51799051D01*
X121869076Y-52020896D01*
X122028656Y-52215344D01*
X122223104Y-52374924D01*
X122444949Y-52493502D01*
X122685664Y-52566522D01*
X122873274Y-52585000D01*
X122998726Y-52585000D01*
X123186336Y-52566522D01*
X123427051Y-52493502D01*
X123648896Y-52374924D01*
X123843344Y-52215344D01*
X124002924Y-52020896D01*
X124121502Y-51799051D01*
X124194522Y-51558336D01*
X124206000Y-51441798D01*
X124217478Y-51558336D01*
X124290498Y-51799051D01*
X124409076Y-52020896D01*
X124568656Y-52215344D01*
X124763104Y-52374924D01*
X124924000Y-52460924D01*
X124924000Y-53312894D01*
X124921330Y-53340000D01*
X124924000Y-53367106D01*
X124924000Y-53367108D01*
X124931988Y-53448210D01*
X124963552Y-53552262D01*
X125014809Y-53648158D01*
X125083789Y-53732211D01*
X125104857Y-53749501D01*
X126808356Y-55453000D01*
X124239453Y-55453000D01*
X124206000Y-55449705D01*
X124172547Y-55453000D01*
X124072501Y-55462854D01*
X123944132Y-55501794D01*
X123825826Y-55565030D01*
X123722130Y-55650130D01*
X123700800Y-55676121D01*
X122907922Y-56469000D01*
X119793066Y-56469000D01*
X119793066Y-56400000D01*
X119784822Y-56316293D01*
X119760405Y-56235804D01*
X119720755Y-56161624D01*
X119667395Y-56096605D01*
X119602376Y-56043245D01*
X119528196Y-56003595D01*
X119516345Y-56000000D01*
X119528196Y-55996405D01*
X119602376Y-55956755D01*
X119667395Y-55903395D01*
X119720755Y-55838376D01*
X119760405Y-55764196D01*
X119784822Y-55683707D01*
X119793066Y-55600000D01*
X119793066Y-54100000D01*
X119784822Y-54016293D01*
X119760405Y-53935804D01*
X119720755Y-53861624D01*
X119667395Y-53796605D01*
X119602376Y-53743245D01*
X119528196Y-53703595D01*
X119447707Y-53679178D01*
X119364000Y-53670934D01*
X119045000Y-53670934D01*
X119045000Y-51341453D01*
X119048295Y-51308000D01*
X119045000Y-51274547D01*
X119045000Y-50320078D01*
X119408079Y-49957000D01*
X136987000Y-49957000D01*
X136987000Y-50004547D01*
X136987000Y-50004547D01*
G37*
X136987000Y-50004547D02*
X136983705Y-50038000D01*
X136987001Y-50071462D01*
X136987000Y-55343920D01*
X135159922Y-57171000D01*
X133767066Y-57171000D01*
X133767066Y-57027000D01*
X133758822Y-56943293D01*
X133734405Y-56862804D01*
X133694755Y-56788624D01*
X133641395Y-56723605D01*
X133576376Y-56670245D01*
X133502196Y-56630595D01*
X133421707Y-56606178D01*
X133338000Y-56597934D01*
X133140000Y-56597934D01*
X133140000Y-56243567D01*
X133230386Y-56153181D01*
X133320891Y-56017731D01*
X133383232Y-55867227D01*
X133415014Y-55707452D01*
X133415014Y-55544548D01*
X133383232Y-55384773D01*
X133320891Y-55234269D01*
X133230386Y-55098819D01*
X133115195Y-54983628D01*
X132979745Y-54893123D01*
X132829241Y-54830782D01*
X132669466Y-54799000D01*
X132506562Y-54799000D01*
X132346787Y-54830782D01*
X132196283Y-54893123D01*
X132060833Y-54983628D01*
X131945642Y-55098819D01*
X131870000Y-55212025D01*
X131870000Y-55092644D01*
X133467154Y-53495492D01*
X133488211Y-53478211D01*
X133557191Y-53394158D01*
X133608448Y-53298263D01*
X133640012Y-53194211D01*
X133648000Y-53113109D01*
X133648000Y-53113108D01*
X133650670Y-53086000D01*
X133648000Y-53058892D01*
X133648000Y-52460924D01*
X133808896Y-52374924D01*
X134003344Y-52215344D01*
X134162924Y-52020896D01*
X134281502Y-51799051D01*
X134354522Y-51558336D01*
X134366669Y-51435002D01*
X134472074Y-51435002D01*
X134400836Y-51632214D01*
X134487820Y-51866953D01*
X134618928Y-52080212D01*
X134789122Y-52263795D01*
X134991861Y-52410647D01*
X135219354Y-52515125D01*
X135311787Y-52543158D01*
X135509000Y-52471338D01*
X135509000Y-51435000D01*
X135763000Y-51435000D01*
X135763000Y-52471338D01*
X135960213Y-52543158D01*
X136052646Y-52515125D01*
X136280139Y-52410647D01*
X136482878Y-52263795D01*
X136653072Y-52080212D01*
X136784180Y-51866953D01*
X136871164Y-51632214D01*
X136799925Y-51435000D01*
X135763000Y-51435000D01*
X135509000Y-51435000D01*
X135489000Y-51435000D01*
X135489000Y-51181000D01*
X135509000Y-51181000D01*
X135509000Y-50144662D01*
X135763000Y-50144662D01*
X135763000Y-51181000D01*
X136799925Y-51181000D01*
X136871164Y-50983786D01*
X136784180Y-50749047D01*
X136653072Y-50535788D01*
X136482878Y-50352205D01*
X136280139Y-50205353D01*
X136052646Y-50100875D01*
X135960213Y-50072842D01*
X135763000Y-50144662D01*
X135509000Y-50144662D01*
X135311787Y-50072842D01*
X135219354Y-50100875D01*
X134991861Y-50205353D01*
X134789122Y-50352205D01*
X134618928Y-50535788D01*
X134487820Y-50749047D01*
X134400836Y-50983786D01*
X134472074Y-51180998D01*
X134366669Y-51180998D01*
X134354522Y-51057664D01*
X134281502Y-50816949D01*
X134162924Y-50595104D01*
X134003344Y-50400656D01*
X133808896Y-50241076D01*
X133587051Y-50122498D01*
X133346336Y-50049478D01*
X133158726Y-50031000D01*
X133033274Y-50031000D01*
X132845664Y-50049478D01*
X132604949Y-50122498D01*
X132383104Y-50241076D01*
X132188656Y-50400656D01*
X132029076Y-50595104D01*
X131910498Y-50816949D01*
X131837478Y-51057664D01*
X131826000Y-51174202D01*
X131814522Y-51057664D01*
X131741502Y-50816949D01*
X131622924Y-50595104D01*
X131463344Y-50400656D01*
X131268896Y-50241076D01*
X131047051Y-50122498D01*
X130806336Y-50049478D01*
X130618726Y-50031000D01*
X130493274Y-50031000D01*
X130305664Y-50049478D01*
X130064949Y-50122498D01*
X129843104Y-50241076D01*
X129648656Y-50400656D01*
X129489076Y-50595104D01*
X129370498Y-50816949D01*
X129297478Y-51057664D01*
X129286000Y-51174202D01*
X129274522Y-51057664D01*
X129201502Y-50816949D01*
X129082924Y-50595104D01*
X128923344Y-50400656D01*
X128728896Y-50241076D01*
X128507051Y-50122498D01*
X128266336Y-50049478D01*
X128078726Y-50031000D01*
X127953274Y-50031000D01*
X127765664Y-50049478D01*
X127524949Y-50122498D01*
X127303104Y-50241076D01*
X127108656Y-50400656D01*
X126949076Y-50595104D01*
X126830498Y-50816949D01*
X126757478Y-51057664D01*
X126746000Y-51174202D01*
X126734522Y-51057664D01*
X126661502Y-50816949D01*
X126542924Y-50595104D01*
X126383344Y-50400656D01*
X126188896Y-50241076D01*
X125967051Y-50122498D01*
X125726336Y-50049478D01*
X125538726Y-50031000D01*
X125413274Y-50031000D01*
X125225664Y-50049478D01*
X124984949Y-50122498D01*
X124763104Y-50241076D01*
X124568656Y-50400656D01*
X124409076Y-50595104D01*
X124290498Y-50816949D01*
X124217478Y-51057664D01*
X124206000Y-51174202D01*
X124194522Y-51057664D01*
X124121502Y-50816949D01*
X124002924Y-50595104D01*
X123843344Y-50400656D01*
X123648896Y-50241076D01*
X123427051Y-50122498D01*
X123186336Y-50049478D01*
X122998726Y-50031000D01*
X122873274Y-50031000D01*
X122685664Y-50049478D01*
X122444949Y-50122498D01*
X122223104Y-50241076D01*
X122028656Y-50400656D01*
X121869076Y-50595104D01*
X121750498Y-50816949D01*
X121677478Y-51057664D01*
X121675066Y-51082153D01*
X121675066Y-50458000D01*
X121666822Y-50374293D01*
X121642405Y-50293804D01*
X121602755Y-50219624D01*
X121549395Y-50154605D01*
X121484376Y-50101245D01*
X121410196Y-50061595D01*
X121329707Y-50037178D01*
X121246000Y-50028934D01*
X119546000Y-50028934D01*
X119462293Y-50037178D01*
X119381804Y-50061595D01*
X119307624Y-50101245D01*
X119242605Y-50154605D01*
X119189245Y-50219624D01*
X119149595Y-50293804D01*
X119125178Y-50374293D01*
X119116934Y-50458000D01*
X119116934Y-52158000D01*
X119125178Y-52241707D01*
X119149595Y-52322196D01*
X119189245Y-52396376D01*
X119242605Y-52461395D01*
X119307624Y-52514755D01*
X119381804Y-52554405D01*
X119462293Y-52578822D01*
X119546000Y-52587066D01*
X121246000Y-52587066D01*
X121329707Y-52578822D01*
X121410196Y-52554405D01*
X121484376Y-52514755D01*
X121549395Y-52461395D01*
X121602755Y-52396376D01*
X121642405Y-52322196D01*
X121666822Y-52241707D01*
X121675066Y-52158000D01*
X121675066Y-51533847D01*
X121677478Y-51558336D01*
X121750498Y-51799051D01*
X121869076Y-52020896D01*
X122028656Y-52215344D01*
X122223104Y-52374924D01*
X122444949Y-52493502D01*
X122685664Y-52566522D01*
X122873274Y-52585000D01*
X122998726Y-52585000D01*
X123186336Y-52566522D01*
X123427051Y-52493502D01*
X123648896Y-52374924D01*
X123843344Y-52215344D01*
X124002924Y-52020896D01*
X124121502Y-51799051D01*
X124194522Y-51558336D01*
X124206000Y-51441798D01*
X124217478Y-51558336D01*
X124290498Y-51799051D01*
X124409076Y-52020896D01*
X124568656Y-52215344D01*
X124763104Y-52374924D01*
X124924000Y-52460924D01*
X124924000Y-53312894D01*
X124921330Y-53340000D01*
X124924000Y-53367106D01*
X124924000Y-53367108D01*
X124931988Y-53448210D01*
X124963552Y-53552262D01*
X125014809Y-53648158D01*
X125083789Y-53732211D01*
X125104857Y-53749501D01*
X126808356Y-55453000D01*
X124239453Y-55453000D01*
X124206000Y-55449705D01*
X124172547Y-55453000D01*
X124072501Y-55462854D01*
X123944132Y-55501794D01*
X123825826Y-55565030D01*
X123722130Y-55650130D01*
X123700800Y-55676121D01*
X122907922Y-56469000D01*
X119793066Y-56469000D01*
X119793066Y-56400000D01*
X119784822Y-56316293D01*
X119760405Y-56235804D01*
X119720755Y-56161624D01*
X119667395Y-56096605D01*
X119602376Y-56043245D01*
X119528196Y-56003595D01*
X119516345Y-56000000D01*
X119528196Y-55996405D01*
X119602376Y-55956755D01*
X119667395Y-55903395D01*
X119720755Y-55838376D01*
X119760405Y-55764196D01*
X119784822Y-55683707D01*
X119793066Y-55600000D01*
X119793066Y-54100000D01*
X119784822Y-54016293D01*
X119760405Y-53935804D01*
X119720755Y-53861624D01*
X119667395Y-53796605D01*
X119602376Y-53743245D01*
X119528196Y-53703595D01*
X119447707Y-53679178D01*
X119364000Y-53670934D01*
X119045000Y-53670934D01*
X119045000Y-51341453D01*
X119048295Y-51308000D01*
X119045000Y-51274547D01*
X119045000Y-50320078D01*
X119408079Y-49957000D01*
X136987000Y-49957000D01*
X136987000Y-50004547D01*
G04 #@! TD*
M02*
