G04 #@! TF.GenerationSoftware,KiCad,Pcbnew,(5.0.0-3-g5ebb6b6)*
G04 #@! TF.CreationDate,2018-11-09T10:28:32+01:00*
G04 #@! TF.ProjectId,WifiModem_IIC+,576966694D6F64656D5F4949432B2E6B,rev?*
G04 #@! TF.SameCoordinates,Original*
G04 #@! TF.FileFunction,Soldermask,Top*
G04 #@! TF.FilePolarity,Negative*
%FSLAX46Y46*%
G04 Gerber Fmt 4.6, Leading zero omitted, Abs format (unit mm)*
G04 Created by KiCad (PCBNEW (5.0.0-3-g5ebb6b6)) date Friday, 09 November 2018 at 10:28:32*
%MOMM*%
%LPD*%
G01*
G04 APERTURE LIST*
%ADD10R,2.900000X1.400000*%
%ADD11R,1.400000X2.200000*%
%ADD12O,2.100000X2.100000*%
%ADD13R,2.100000X2.100000*%
%ADD14R,1.300000X1.600000*%
%ADD15O,2.000000X2.000000*%
%ADD16R,2.000000X2.000000*%
%ADD17R,2.000000X2.400000*%
%ADD18R,1.900000X0.750000*%
%ADD19R,1.100000X1.700000*%
%ADD20R,2.400000X1.900000*%
%ADD21R,2.400000X4.200000*%
%ADD22R,1.400000X1.650000*%
%ADD23R,2.350000X2.900000*%
%ADD24R,1.650000X1.400000*%
G04 APERTURE END LIST*
D10*
G04 #@! TO.C,U1*
X120904000Y-82200000D03*
X120904000Y-80200000D03*
X120904000Y-78200000D03*
X120904000Y-76200000D03*
X120904000Y-74200000D03*
X120904000Y-72200000D03*
X120904000Y-70200000D03*
X120904000Y-68200000D03*
D11*
X123504000Y-66700000D03*
X125504000Y-66700000D03*
X127504000Y-66700000D03*
X129504000Y-66700000D03*
X131504000Y-66700000D03*
X133504000Y-66700000D03*
D10*
X136104000Y-68200000D03*
X136104000Y-70200000D03*
X136104000Y-72200000D03*
X136104000Y-74200000D03*
X136104000Y-76200000D03*
X136104000Y-78200000D03*
X136104000Y-80200000D03*
X136104000Y-82200000D03*
G04 #@! TD*
D12*
G04 #@! TO.C,J2*
X112268000Y-81534000D03*
X112268000Y-78994000D03*
X112268000Y-76454000D03*
X112268000Y-73914000D03*
X112268000Y-71374000D03*
D13*
X112268000Y-68834000D03*
G04 #@! TD*
D14*
G04 #@! TO.C,D1*
X142620000Y-50038000D03*
X139320000Y-50038000D03*
G04 #@! TD*
D15*
G04 #@! TO.C,SW2*
X141986000Y-81788000D03*
D16*
X141986000Y-74168000D03*
G04 #@! TD*
D17*
G04 #@! TO.C,SW3*
X141986000Y-62550000D03*
X141986000Y-57150000D03*
G04 #@! TD*
D13*
G04 #@! TO.C,J5*
X139954000Y-52578000D03*
D12*
X142494000Y-52578000D03*
G04 #@! TD*
D18*
G04 #@! TO.C,U3*
X126458000Y-57202000D03*
X126458000Y-57852000D03*
X126458000Y-58502000D03*
X126458000Y-59152000D03*
X126458000Y-59802000D03*
X126458000Y-60452000D03*
X126458000Y-61102000D03*
X126458000Y-61752000D03*
X126458000Y-62402000D03*
X126458000Y-63052000D03*
X132588000Y-63037000D03*
X132588000Y-62387000D03*
X132588000Y-61737000D03*
X132588000Y-61087000D03*
X132588000Y-60452000D03*
X132588000Y-59802000D03*
X132588000Y-59152000D03*
X132588000Y-58502000D03*
X132588000Y-57852000D03*
X132588000Y-57202000D03*
G04 #@! TD*
D19*
G04 #@! TO.C,R4*
X143002000Y-70358000D03*
X141102000Y-70358000D03*
G04 #@! TD*
D12*
G04 #@! TO.C,J3*
X135636000Y-51308000D03*
X133096000Y-51308000D03*
X130556000Y-51308000D03*
X128016000Y-51308000D03*
X125476000Y-51308000D03*
X122936000Y-51308000D03*
D13*
X120396000Y-51308000D03*
G04 #@! TD*
D20*
G04 #@! TO.C,U2*
X118364000Y-59450000D03*
X118364000Y-54850000D03*
X118364000Y-57150000D03*
D21*
X112064000Y-57150000D03*
G04 #@! TD*
D22*
G04 #@! TO.C,C5*
X123952000Y-62992000D03*
X121952000Y-62992000D03*
G04 #@! TD*
D23*
G04 #@! TO.C,C6*
X112012000Y-51308000D03*
X115062000Y-51308000D03*
G04 #@! TD*
D24*
G04 #@! TO.C,C7*
X135890000Y-63246000D03*
X135890000Y-65246000D03*
G04 #@! TD*
D23*
G04 #@! TO.C,C8*
X115062000Y-62738000D03*
X112012000Y-62738000D03*
G04 #@! TD*
D19*
G04 #@! TO.C,R1*
X143002000Y-65278000D03*
X141102000Y-65278000D03*
G04 #@! TD*
G04 #@! TO.C,R2*
X143002000Y-67818000D03*
X141102000Y-67818000D03*
G04 #@! TD*
G04 #@! TO.C,R3*
X118110000Y-69850000D03*
X116210000Y-69850000D03*
G04 #@! TD*
G04 #@! TO.C,R5*
X117978000Y-74168000D03*
X116078000Y-74168000D03*
G04 #@! TD*
G04 #@! TO.C,R6*
X118364000Y-80010000D03*
X116464000Y-80010000D03*
G04 #@! TD*
M02*
