G04 #@! TF.GenerationSoftware,KiCad,Pcbnew,(5.0.0-3-g5ebb6b6)*
G04 #@! TF.CreationDate,2018-11-09T10:28:32+01:00*
G04 #@! TF.ProjectId,WifiModem_IIC+,576966694D6F64656D5F4949432B2E6B,rev?*
G04 #@! TF.SameCoordinates,Original*
G04 #@! TF.FileFunction,Copper,L2,Bot,Signal*
G04 #@! TF.FilePolarity,Positive*
%FSLAX46Y46*%
G04 Gerber Fmt 4.6, Leading zero omitted, Abs format (unit mm)*
G04 Created by KiCad (PCBNEW (5.0.0-3-g5ebb6b6)) date Friday, 09 November 2018 at 10:28:32*
%MOMM*%
%LPD*%
G01*
G04 APERTURE LIST*
G04 #@! TA.AperFunction,ComponentPad*
%ADD10O,1.700000X1.700000*%
G04 #@! TD*
G04 #@! TA.AperFunction,ComponentPad*
%ADD11R,1.700000X1.700000*%
G04 #@! TD*
G04 #@! TA.AperFunction,ComponentPad*
%ADD12O,1.600000X1.600000*%
G04 #@! TD*
G04 #@! TA.AperFunction,ComponentPad*
%ADD13R,1.600000X1.600000*%
G04 #@! TD*
G04 #@! TA.AperFunction,ViaPad*
%ADD14C,0.800000*%
G04 #@! TD*
G04 #@! TA.AperFunction,Conductor*
%ADD15C,0.508000*%
G04 #@! TD*
G04 #@! TA.AperFunction,Conductor*
%ADD16C,0.250000*%
G04 #@! TD*
G04 #@! TA.AperFunction,Conductor*
%ADD17C,0.254000*%
G04 #@! TD*
G04 APERTURE END LIST*
D10*
G04 #@! TO.P,J2,6*
G04 #@! TO.N,iDTR*
X112268000Y-81534000D03*
G04 #@! TO.P,J2,5*
G04 #@! TO.N,RESET*
X112268000Y-78994000D03*
G04 #@! TO.P,J2,4*
G04 #@! TO.N,TXD0*
X112268000Y-76454000D03*
G04 #@! TO.P,J2,3*
G04 #@! TO.N,RXD0*
X112268000Y-73914000D03*
G04 #@! TO.P,J2,2*
G04 #@! TO.N,GND*
X112268000Y-71374000D03*
D11*
G04 #@! TO.P,J2,1*
G04 #@! TO.N,+3V3*
X112268000Y-68834000D03*
G04 #@! TD*
D12*
G04 #@! TO.P,SW2,2*
G04 #@! TO.N,GND*
X141986000Y-81788000D03*
D13*
G04 #@! TO.P,SW2,1*
G04 #@! TO.N,GPIO16*
X141986000Y-74168000D03*
G04 #@! TD*
D11*
G04 #@! TO.P,J5,1*
G04 #@! TO.N,Net-(D1-Pad2)*
X139954000Y-52578000D03*
D10*
G04 #@! TO.P,J5,2*
G04 #@! TO.N,GND*
X142494000Y-52578000D03*
G04 #@! TD*
G04 #@! TO.P,J3,7*
G04 #@! TO.N,GND*
X135636000Y-51308000D03*
G04 #@! TO.P,J3,6*
G04 #@! TO.N,DSR*
X133096000Y-51308000D03*
G04 #@! TO.P,J3,5*
G04 #@! TO.N,DTR*
X130556000Y-51308000D03*
G04 #@! TO.P,J3,4*
G04 #@! TO.N,DCD*
X128016000Y-51308000D03*
G04 #@! TO.P,J3,3*
G04 #@! TO.N,Tx*
X125476000Y-51308000D03*
G04 #@! TO.P,J3,2*
G04 #@! TO.N,Rx*
X122936000Y-51308000D03*
D11*
G04 #@! TO.P,J3,1*
G04 #@! TO.N,Net-(J3-Pad1)*
X120396000Y-51308000D03*
G04 #@! TD*
D14*
G04 #@! TO.N,+3V3*
X128016000Y-57852000D03*
X115061988Y-66040000D03*
X119125984Y-66040000D03*
G04 #@! TO.N,GND*
X121412000Y-64770000D03*
X120650000Y-59436000D03*
X112014000Y-54102000D03*
X112014000Y-60198000D03*
X132334000Y-69850000D03*
X118618000Y-61976000D03*
X138684000Y-57150000D03*
X138684000Y-62484000D03*
X125730000Y-80264000D03*
G04 #@! TO.N,iDTR*
X118871998Y-74168000D03*
X114554004Y-80264000D03*
G04 #@! TO.N,DCD*
X132588014Y-55626000D03*
G04 #@! TO.N,Rx*
X126745998Y-53340000D03*
G04 #@! TO.N,Net-(R1-Pad2)*
X138398000Y-78200000D03*
X138398000Y-65310000D03*
G04 #@! TO.N,RESET*
X133603992Y-82296000D03*
G04 #@! TO.N,RXD0*
X115819347Y-77220653D03*
G04 #@! TO.N,GPIO5*
X123952000Y-78232000D03*
X124724303Y-57200441D03*
G04 #@! TO.N,GPIO4*
X124714000Y-58674000D03*
X124714000Y-76200000D03*
G04 #@! TO.N,GPIO14*
X133349994Y-74168000D03*
X129285984Y-60706000D03*
G04 #@! TD*
D15*
G04 #@! TO.N,+3V3*
X115062000Y-66040000D02*
X119125984Y-66040000D01*
D16*
G04 #@! TO.N,iDTR*
X118871998Y-75946006D02*
X114954003Y-79864001D01*
X118871998Y-74168000D02*
X118871998Y-75946006D01*
X114954003Y-79864001D02*
X114554004Y-80264000D01*
G04 #@! TO.N,DCD*
X128016000Y-51054000D02*
X128016000Y-51308000D01*
X130556000Y-55626000D02*
X132588014Y-55626000D01*
X128016000Y-53086000D02*
X130556000Y-55626000D01*
X128016000Y-51308000D02*
X128016000Y-53086000D01*
G04 #@! TO.N,Rx*
X122936000Y-51308000D02*
X122936000Y-51054000D01*
X123952000Y-53340000D02*
X126180313Y-53340000D01*
X126180313Y-53340000D02*
X126745998Y-53340000D01*
X122936000Y-52324000D02*
X123952000Y-53340000D01*
X122936000Y-51308000D02*
X122936000Y-52324000D01*
G04 #@! TO.N,Net-(R1-Pad2)*
X138398000Y-78200000D02*
X138398000Y-65310000D01*
G04 #@! TO.N,RESET*
X133038307Y-82296000D02*
X133603992Y-82296000D01*
X113538000Y-80829004D02*
X115004996Y-82296000D01*
X115004996Y-82296000D02*
X133038307Y-82296000D01*
X113538000Y-80264000D02*
X113538000Y-80829004D01*
X112268000Y-78994000D02*
X113538000Y-80264000D01*
G04 #@! TO.N,RXD0*
X115819347Y-74925347D02*
X114808000Y-73914000D01*
X114808000Y-73914000D02*
X112268000Y-73914000D01*
X115819347Y-77220653D02*
X115819347Y-74925347D01*
G04 #@! TO.N,GPIO5*
X123952000Y-78232000D02*
X123952000Y-57972744D01*
X123952000Y-57972744D02*
X124324304Y-57600440D01*
X124324304Y-57600440D02*
X124724303Y-57200441D01*
G04 #@! TO.N,GPIO4*
X124714000Y-58674000D02*
X124714000Y-76200000D01*
G04 #@! TO.N,GPIO14*
X129685983Y-60706000D02*
X129285984Y-60706000D01*
X131826000Y-60706000D02*
X129685983Y-60706000D01*
X133349994Y-62229994D02*
X131826000Y-60706000D01*
X133349994Y-74168000D02*
X133349994Y-62229994D01*
G04 #@! TD*
D17*
G04 #@! TO.N,GND*
G36*
X144324001Y-82831000D02*
X142931003Y-82831000D01*
X143138389Y-82643134D01*
X143377914Y-82137041D01*
X143256629Y-81915000D01*
X142113000Y-81915000D01*
X142113000Y-81935000D01*
X141859000Y-81935000D01*
X141859000Y-81915000D01*
X140715371Y-81915000D01*
X140594086Y-82137041D01*
X140833611Y-82643134D01*
X141040997Y-82831000D01*
X134502664Y-82831000D01*
X134638992Y-82501874D01*
X134638992Y-82090126D01*
X134481423Y-81709720D01*
X134210662Y-81438959D01*
X140594086Y-81438959D01*
X140715371Y-81661000D01*
X141859000Y-81661000D01*
X141859000Y-80518085D01*
X142113000Y-80518085D01*
X142113000Y-81661000D01*
X143256629Y-81661000D01*
X143377914Y-81438959D01*
X143138389Y-80932866D01*
X142723423Y-80556959D01*
X142335039Y-80396096D01*
X142113000Y-80518085D01*
X141859000Y-80518085D01*
X141636961Y-80396096D01*
X141248577Y-80556959D01*
X140833611Y-80932866D01*
X140594086Y-81438959D01*
X134210662Y-81438959D01*
X134190272Y-81418569D01*
X133809866Y-81261000D01*
X133398118Y-81261000D01*
X133017712Y-81418569D01*
X132900281Y-81536000D01*
X115319798Y-81536000D01*
X114988217Y-81204419D01*
X115140284Y-81141431D01*
X115431435Y-80850280D01*
X115589004Y-80469874D01*
X115589004Y-80303801D01*
X117866679Y-78026126D01*
X122917000Y-78026126D01*
X122917000Y-78437874D01*
X123074569Y-78818280D01*
X123365720Y-79109431D01*
X123746126Y-79267000D01*
X124157874Y-79267000D01*
X124538280Y-79109431D01*
X124829431Y-78818280D01*
X124987000Y-78437874D01*
X124987000Y-78026126D01*
X124829431Y-77645720D01*
X124712000Y-77528289D01*
X124712000Y-77235000D01*
X124919874Y-77235000D01*
X125300280Y-77077431D01*
X125591431Y-76786280D01*
X125749000Y-76405874D01*
X125749000Y-75994126D01*
X125591431Y-75613720D01*
X125474000Y-75496289D01*
X125474000Y-60500126D01*
X128250984Y-60500126D01*
X128250984Y-60911874D01*
X128408553Y-61292280D01*
X128699704Y-61583431D01*
X129080110Y-61741000D01*
X129491858Y-61741000D01*
X129872264Y-61583431D01*
X129989695Y-61466000D01*
X131511199Y-61466000D01*
X132589995Y-62544797D01*
X132589994Y-73464289D01*
X132472563Y-73581720D01*
X132314994Y-73962126D01*
X132314994Y-74373874D01*
X132472563Y-74754280D01*
X132763714Y-75045431D01*
X133144120Y-75203000D01*
X133555868Y-75203000D01*
X133936274Y-75045431D01*
X134227425Y-74754280D01*
X134384994Y-74373874D01*
X134384994Y-73962126D01*
X134227425Y-73581720D01*
X134109994Y-73464289D01*
X134109994Y-65104126D01*
X137363000Y-65104126D01*
X137363000Y-65515874D01*
X137520569Y-65896280D01*
X137638001Y-66013712D01*
X137638000Y-77496289D01*
X137520569Y-77613720D01*
X137363000Y-77994126D01*
X137363000Y-78405874D01*
X137520569Y-78786280D01*
X137811720Y-79077431D01*
X138192126Y-79235000D01*
X138603874Y-79235000D01*
X138984280Y-79077431D01*
X139275431Y-78786280D01*
X139433000Y-78405874D01*
X139433000Y-77994126D01*
X139275431Y-77613720D01*
X139158000Y-77496289D01*
X139158000Y-73368000D01*
X140538560Y-73368000D01*
X140538560Y-74968000D01*
X140587843Y-75215765D01*
X140728191Y-75425809D01*
X140938235Y-75566157D01*
X141186000Y-75615440D01*
X142786000Y-75615440D01*
X143033765Y-75566157D01*
X143243809Y-75425809D01*
X143384157Y-75215765D01*
X143433440Y-74968000D01*
X143433440Y-73368000D01*
X143384157Y-73120235D01*
X143243809Y-72910191D01*
X143033765Y-72769843D01*
X142786000Y-72720560D01*
X141186000Y-72720560D01*
X140938235Y-72769843D01*
X140728191Y-72910191D01*
X140587843Y-73120235D01*
X140538560Y-73368000D01*
X139158000Y-73368000D01*
X139158000Y-66013711D01*
X139275431Y-65896280D01*
X139433000Y-65515874D01*
X139433000Y-65104126D01*
X139275431Y-64723720D01*
X138984280Y-64432569D01*
X138603874Y-64275000D01*
X138192126Y-64275000D01*
X137811720Y-64432569D01*
X137520569Y-64723720D01*
X137363000Y-65104126D01*
X134109994Y-65104126D01*
X134109994Y-62304841D01*
X134124882Y-62229994D01*
X134109994Y-62155147D01*
X134109994Y-62155142D01*
X134065898Y-61933457D01*
X133897923Y-61682065D01*
X133834467Y-61639665D01*
X132416331Y-60221530D01*
X132373929Y-60158071D01*
X132122537Y-59990096D01*
X131900852Y-59946000D01*
X131900847Y-59946000D01*
X131826000Y-59931112D01*
X131751153Y-59946000D01*
X129989695Y-59946000D01*
X129872264Y-59828569D01*
X129491858Y-59671000D01*
X129080110Y-59671000D01*
X128699704Y-59828569D01*
X128408553Y-60119720D01*
X128250984Y-60500126D01*
X125474000Y-60500126D01*
X125474000Y-59377711D01*
X125591431Y-59260280D01*
X125749000Y-58879874D01*
X125749000Y-58468126D01*
X125591431Y-58087720D01*
X125446083Y-57942372D01*
X125601734Y-57786721D01*
X125659970Y-57646126D01*
X126981000Y-57646126D01*
X126981000Y-58057874D01*
X127138569Y-58438280D01*
X127429720Y-58729431D01*
X127810126Y-58887000D01*
X128221874Y-58887000D01*
X128602280Y-58729431D01*
X128893431Y-58438280D01*
X129051000Y-58057874D01*
X129051000Y-57646126D01*
X128893431Y-57265720D01*
X128602280Y-56974569D01*
X128221874Y-56817000D01*
X127810126Y-56817000D01*
X127429720Y-56974569D01*
X127138569Y-57265720D01*
X126981000Y-57646126D01*
X125659970Y-57646126D01*
X125759303Y-57406315D01*
X125759303Y-56994567D01*
X125601734Y-56614161D01*
X125310583Y-56323010D01*
X124930177Y-56165441D01*
X124518429Y-56165441D01*
X124138023Y-56323010D01*
X123846872Y-56614161D01*
X123689303Y-56994567D01*
X123689303Y-57160639D01*
X123467527Y-57382415D01*
X123404072Y-57424815D01*
X123361672Y-57488271D01*
X123361671Y-57488272D01*
X123236097Y-57676207D01*
X123177112Y-57972744D01*
X123192001Y-58047596D01*
X123192000Y-77528289D01*
X123074569Y-77645720D01*
X122917000Y-78026126D01*
X117866679Y-78026126D01*
X119356471Y-76536335D01*
X119419927Y-76493935D01*
X119478768Y-76405874D01*
X119587902Y-76242544D01*
X119599218Y-76185653D01*
X119631998Y-76020858D01*
X119631998Y-76020854D01*
X119646886Y-75946006D01*
X119631998Y-75871158D01*
X119631998Y-74871711D01*
X119749429Y-74754280D01*
X119906998Y-74373874D01*
X119906998Y-73962126D01*
X119749429Y-73581720D01*
X119458278Y-73290569D01*
X119077872Y-73133000D01*
X118666124Y-73133000D01*
X118285718Y-73290569D01*
X117994567Y-73581720D01*
X117836998Y-73962126D01*
X117836998Y-74373874D01*
X117994567Y-74754280D01*
X118111998Y-74871711D01*
X118111999Y-75631203D01*
X116817465Y-76925738D01*
X116696778Y-76634373D01*
X116579347Y-76516942D01*
X116579347Y-75000195D01*
X116594235Y-74925347D01*
X116579347Y-74850499D01*
X116579347Y-74850495D01*
X116535251Y-74628810D01*
X116367276Y-74377418D01*
X116303820Y-74335018D01*
X115398331Y-73429530D01*
X115355929Y-73366071D01*
X115104537Y-73198096D01*
X114882852Y-73154000D01*
X114882847Y-73154000D01*
X114808000Y-73139112D01*
X114733153Y-73154000D01*
X113546178Y-73154000D01*
X113338625Y-72843375D01*
X113019522Y-72630157D01*
X113149358Y-72569183D01*
X113539645Y-72140924D01*
X113709476Y-71730890D01*
X113588155Y-71501000D01*
X112395000Y-71501000D01*
X112395000Y-71521000D01*
X112141000Y-71521000D01*
X112141000Y-71501000D01*
X110947845Y-71501000D01*
X110826524Y-71730890D01*
X110996355Y-72140924D01*
X111386642Y-72569183D01*
X111516478Y-72630157D01*
X111197375Y-72843375D01*
X110869161Y-73334582D01*
X110753908Y-73914000D01*
X110869161Y-74493418D01*
X111197375Y-74984625D01*
X111495761Y-75184000D01*
X111197375Y-75383375D01*
X110869161Y-75874582D01*
X110753908Y-76454000D01*
X110869161Y-77033418D01*
X111197375Y-77524625D01*
X111495761Y-77724000D01*
X111197375Y-77923375D01*
X110869161Y-78414582D01*
X110753908Y-78994000D01*
X110869161Y-79573418D01*
X111197375Y-80064625D01*
X111495761Y-80264000D01*
X111197375Y-80463375D01*
X110869161Y-80954582D01*
X110753908Y-81534000D01*
X110869161Y-82113418D01*
X111197375Y-82604625D01*
X111536169Y-82831000D01*
X110692000Y-82831000D01*
X110692000Y-67984000D01*
X110770560Y-67984000D01*
X110770560Y-69684000D01*
X110819843Y-69931765D01*
X110960191Y-70141809D01*
X111170235Y-70282157D01*
X111273708Y-70302739D01*
X110996355Y-70607076D01*
X110826524Y-71017110D01*
X110947845Y-71247000D01*
X112141000Y-71247000D01*
X112141000Y-71227000D01*
X112395000Y-71227000D01*
X112395000Y-71247000D01*
X113588155Y-71247000D01*
X113709476Y-71017110D01*
X113539645Y-70607076D01*
X113262292Y-70302739D01*
X113365765Y-70282157D01*
X113575809Y-70141809D01*
X113716157Y-69931765D01*
X113765440Y-69684000D01*
X113765440Y-67984000D01*
X113716157Y-67736235D01*
X113575809Y-67526191D01*
X113365765Y-67385843D01*
X113118000Y-67336560D01*
X111418000Y-67336560D01*
X111170235Y-67385843D01*
X110960191Y-67526191D01*
X110819843Y-67736235D01*
X110770560Y-67984000D01*
X110692000Y-67984000D01*
X110692000Y-65834126D01*
X114026988Y-65834126D01*
X114026988Y-66245874D01*
X114184557Y-66626280D01*
X114475708Y-66917431D01*
X114856114Y-67075000D01*
X115267862Y-67075000D01*
X115620338Y-66929000D01*
X118567634Y-66929000D01*
X118920110Y-67075000D01*
X119331858Y-67075000D01*
X119712264Y-66917431D01*
X120003415Y-66626280D01*
X120160984Y-66245874D01*
X120160984Y-65834126D01*
X120003415Y-65453720D01*
X119712264Y-65162569D01*
X119331858Y-65005000D01*
X118920110Y-65005000D01*
X118567634Y-65151000D01*
X115620338Y-65151000D01*
X115267862Y-65005000D01*
X114856114Y-65005000D01*
X114475708Y-65162569D01*
X114184557Y-65453720D01*
X114026988Y-65834126D01*
X110692000Y-65834126D01*
X110692000Y-50458000D01*
X118898560Y-50458000D01*
X118898560Y-52158000D01*
X118947843Y-52405765D01*
X119088191Y-52615809D01*
X119298235Y-52756157D01*
X119546000Y-52805440D01*
X121246000Y-52805440D01*
X121493765Y-52756157D01*
X121703809Y-52615809D01*
X121844157Y-52405765D01*
X121853184Y-52360381D01*
X121865375Y-52378625D01*
X122218974Y-52614892D01*
X122220097Y-52620537D01*
X122334713Y-52792071D01*
X122388072Y-52871929D01*
X122451528Y-52914329D01*
X123361671Y-53824473D01*
X123404071Y-53887929D01*
X123655463Y-54055904D01*
X123877148Y-54100000D01*
X123877153Y-54100000D01*
X123952000Y-54114888D01*
X124026847Y-54100000D01*
X126042287Y-54100000D01*
X126159718Y-54217431D01*
X126540124Y-54375000D01*
X126951872Y-54375000D01*
X127332278Y-54217431D01*
X127623429Y-53926280D01*
X127669721Y-53814522D01*
X129965673Y-56110476D01*
X130008071Y-56173929D01*
X130071524Y-56216327D01*
X130071526Y-56216329D01*
X130196902Y-56300102D01*
X130259463Y-56341904D01*
X130481148Y-56386000D01*
X130481152Y-56386000D01*
X130555999Y-56400888D01*
X130630846Y-56386000D01*
X131884303Y-56386000D01*
X132001734Y-56503431D01*
X132382140Y-56661000D01*
X132793888Y-56661000D01*
X133174294Y-56503431D01*
X133465445Y-56212280D01*
X133623014Y-55831874D01*
X133623014Y-55420126D01*
X133465445Y-55039720D01*
X133174294Y-54748569D01*
X132793888Y-54591000D01*
X132382140Y-54591000D01*
X132001734Y-54748569D01*
X131884303Y-54866000D01*
X130870803Y-54866000D01*
X128776000Y-52771199D01*
X128776000Y-52586178D01*
X129086625Y-52378625D01*
X129286000Y-52080239D01*
X129485375Y-52378625D01*
X129976582Y-52706839D01*
X130409744Y-52793000D01*
X130702256Y-52793000D01*
X131135418Y-52706839D01*
X131626625Y-52378625D01*
X131826000Y-52080239D01*
X132025375Y-52378625D01*
X132516582Y-52706839D01*
X132949744Y-52793000D01*
X133242256Y-52793000D01*
X133675418Y-52706839D01*
X134166625Y-52378625D01*
X134379843Y-52059522D01*
X134440817Y-52189358D01*
X134869076Y-52579645D01*
X135279110Y-52749476D01*
X135509000Y-52628155D01*
X135509000Y-51435000D01*
X135763000Y-51435000D01*
X135763000Y-52628155D01*
X135992890Y-52749476D01*
X136402924Y-52579645D01*
X136831183Y-52189358D01*
X137047848Y-51728000D01*
X138456560Y-51728000D01*
X138456560Y-53428000D01*
X138505843Y-53675765D01*
X138646191Y-53885809D01*
X138856235Y-54026157D01*
X139104000Y-54075440D01*
X140804000Y-54075440D01*
X141051765Y-54026157D01*
X141261809Y-53885809D01*
X141402157Y-53675765D01*
X141422739Y-53572292D01*
X141727076Y-53849645D01*
X142137110Y-54019476D01*
X142367000Y-53898155D01*
X142367000Y-52705000D01*
X142621000Y-52705000D01*
X142621000Y-53898155D01*
X142850890Y-54019476D01*
X143260924Y-53849645D01*
X143689183Y-53459358D01*
X143935486Y-52934892D01*
X143814819Y-52705000D01*
X142621000Y-52705000D01*
X142367000Y-52705000D01*
X142347000Y-52705000D01*
X142347000Y-52451000D01*
X142367000Y-52451000D01*
X142367000Y-51257845D01*
X142621000Y-51257845D01*
X142621000Y-52451000D01*
X143814819Y-52451000D01*
X143935486Y-52221108D01*
X143689183Y-51696642D01*
X143260924Y-51306355D01*
X142850890Y-51136524D01*
X142621000Y-51257845D01*
X142367000Y-51257845D01*
X142137110Y-51136524D01*
X141727076Y-51306355D01*
X141422739Y-51583708D01*
X141402157Y-51480235D01*
X141261809Y-51270191D01*
X141051765Y-51129843D01*
X140804000Y-51080560D01*
X139104000Y-51080560D01*
X138856235Y-51129843D01*
X138646191Y-51270191D01*
X138505843Y-51480235D01*
X138456560Y-51728000D01*
X137047848Y-51728000D01*
X137077486Y-51664892D01*
X136956819Y-51435000D01*
X135763000Y-51435000D01*
X135509000Y-51435000D01*
X135489000Y-51435000D01*
X135489000Y-51181000D01*
X135509000Y-51181000D01*
X135509000Y-49987845D01*
X135763000Y-49987845D01*
X135763000Y-51181000D01*
X136956819Y-51181000D01*
X137077486Y-50951108D01*
X136831183Y-50426642D01*
X136402924Y-50036355D01*
X135992890Y-49866524D01*
X135763000Y-49987845D01*
X135509000Y-49987845D01*
X135279110Y-49866524D01*
X134869076Y-50036355D01*
X134440817Y-50426642D01*
X134379843Y-50556478D01*
X134166625Y-50237375D01*
X133675418Y-49909161D01*
X133242256Y-49823000D01*
X132949744Y-49823000D01*
X132516582Y-49909161D01*
X132025375Y-50237375D01*
X131826000Y-50535761D01*
X131626625Y-50237375D01*
X131135418Y-49909161D01*
X130702256Y-49823000D01*
X130409744Y-49823000D01*
X129976582Y-49909161D01*
X129485375Y-50237375D01*
X129286000Y-50535761D01*
X129086625Y-50237375D01*
X128595418Y-49909161D01*
X128162256Y-49823000D01*
X127869744Y-49823000D01*
X127436582Y-49909161D01*
X126945375Y-50237375D01*
X126746000Y-50535761D01*
X126546625Y-50237375D01*
X126055418Y-49909161D01*
X125622256Y-49823000D01*
X125329744Y-49823000D01*
X124896582Y-49909161D01*
X124405375Y-50237375D01*
X124206000Y-50535761D01*
X124006625Y-50237375D01*
X123515418Y-49909161D01*
X123082256Y-49823000D01*
X122789744Y-49823000D01*
X122356582Y-49909161D01*
X121865375Y-50237375D01*
X121853184Y-50255619D01*
X121844157Y-50210235D01*
X121703809Y-50000191D01*
X121493765Y-49859843D01*
X121246000Y-49810560D01*
X119546000Y-49810560D01*
X119298235Y-49859843D01*
X119088191Y-50000191D01*
X118947843Y-50210235D01*
X118898560Y-50458000D01*
X110692000Y-50458000D01*
X110692000Y-49249000D01*
X144324000Y-49249000D01*
X144324001Y-82831000D01*
X144324001Y-82831000D01*
G37*
X144324001Y-82831000D02*
X142931003Y-82831000D01*
X143138389Y-82643134D01*
X143377914Y-82137041D01*
X143256629Y-81915000D01*
X142113000Y-81915000D01*
X142113000Y-81935000D01*
X141859000Y-81935000D01*
X141859000Y-81915000D01*
X140715371Y-81915000D01*
X140594086Y-82137041D01*
X140833611Y-82643134D01*
X141040997Y-82831000D01*
X134502664Y-82831000D01*
X134638992Y-82501874D01*
X134638992Y-82090126D01*
X134481423Y-81709720D01*
X134210662Y-81438959D01*
X140594086Y-81438959D01*
X140715371Y-81661000D01*
X141859000Y-81661000D01*
X141859000Y-80518085D01*
X142113000Y-80518085D01*
X142113000Y-81661000D01*
X143256629Y-81661000D01*
X143377914Y-81438959D01*
X143138389Y-80932866D01*
X142723423Y-80556959D01*
X142335039Y-80396096D01*
X142113000Y-80518085D01*
X141859000Y-80518085D01*
X141636961Y-80396096D01*
X141248577Y-80556959D01*
X140833611Y-80932866D01*
X140594086Y-81438959D01*
X134210662Y-81438959D01*
X134190272Y-81418569D01*
X133809866Y-81261000D01*
X133398118Y-81261000D01*
X133017712Y-81418569D01*
X132900281Y-81536000D01*
X115319798Y-81536000D01*
X114988217Y-81204419D01*
X115140284Y-81141431D01*
X115431435Y-80850280D01*
X115589004Y-80469874D01*
X115589004Y-80303801D01*
X117866679Y-78026126D01*
X122917000Y-78026126D01*
X122917000Y-78437874D01*
X123074569Y-78818280D01*
X123365720Y-79109431D01*
X123746126Y-79267000D01*
X124157874Y-79267000D01*
X124538280Y-79109431D01*
X124829431Y-78818280D01*
X124987000Y-78437874D01*
X124987000Y-78026126D01*
X124829431Y-77645720D01*
X124712000Y-77528289D01*
X124712000Y-77235000D01*
X124919874Y-77235000D01*
X125300280Y-77077431D01*
X125591431Y-76786280D01*
X125749000Y-76405874D01*
X125749000Y-75994126D01*
X125591431Y-75613720D01*
X125474000Y-75496289D01*
X125474000Y-60500126D01*
X128250984Y-60500126D01*
X128250984Y-60911874D01*
X128408553Y-61292280D01*
X128699704Y-61583431D01*
X129080110Y-61741000D01*
X129491858Y-61741000D01*
X129872264Y-61583431D01*
X129989695Y-61466000D01*
X131511199Y-61466000D01*
X132589995Y-62544797D01*
X132589994Y-73464289D01*
X132472563Y-73581720D01*
X132314994Y-73962126D01*
X132314994Y-74373874D01*
X132472563Y-74754280D01*
X132763714Y-75045431D01*
X133144120Y-75203000D01*
X133555868Y-75203000D01*
X133936274Y-75045431D01*
X134227425Y-74754280D01*
X134384994Y-74373874D01*
X134384994Y-73962126D01*
X134227425Y-73581720D01*
X134109994Y-73464289D01*
X134109994Y-65104126D01*
X137363000Y-65104126D01*
X137363000Y-65515874D01*
X137520569Y-65896280D01*
X137638001Y-66013712D01*
X137638000Y-77496289D01*
X137520569Y-77613720D01*
X137363000Y-77994126D01*
X137363000Y-78405874D01*
X137520569Y-78786280D01*
X137811720Y-79077431D01*
X138192126Y-79235000D01*
X138603874Y-79235000D01*
X138984280Y-79077431D01*
X139275431Y-78786280D01*
X139433000Y-78405874D01*
X139433000Y-77994126D01*
X139275431Y-77613720D01*
X139158000Y-77496289D01*
X139158000Y-73368000D01*
X140538560Y-73368000D01*
X140538560Y-74968000D01*
X140587843Y-75215765D01*
X140728191Y-75425809D01*
X140938235Y-75566157D01*
X141186000Y-75615440D01*
X142786000Y-75615440D01*
X143033765Y-75566157D01*
X143243809Y-75425809D01*
X143384157Y-75215765D01*
X143433440Y-74968000D01*
X143433440Y-73368000D01*
X143384157Y-73120235D01*
X143243809Y-72910191D01*
X143033765Y-72769843D01*
X142786000Y-72720560D01*
X141186000Y-72720560D01*
X140938235Y-72769843D01*
X140728191Y-72910191D01*
X140587843Y-73120235D01*
X140538560Y-73368000D01*
X139158000Y-73368000D01*
X139158000Y-66013711D01*
X139275431Y-65896280D01*
X139433000Y-65515874D01*
X139433000Y-65104126D01*
X139275431Y-64723720D01*
X138984280Y-64432569D01*
X138603874Y-64275000D01*
X138192126Y-64275000D01*
X137811720Y-64432569D01*
X137520569Y-64723720D01*
X137363000Y-65104126D01*
X134109994Y-65104126D01*
X134109994Y-62304841D01*
X134124882Y-62229994D01*
X134109994Y-62155147D01*
X134109994Y-62155142D01*
X134065898Y-61933457D01*
X133897923Y-61682065D01*
X133834467Y-61639665D01*
X132416331Y-60221530D01*
X132373929Y-60158071D01*
X132122537Y-59990096D01*
X131900852Y-59946000D01*
X131900847Y-59946000D01*
X131826000Y-59931112D01*
X131751153Y-59946000D01*
X129989695Y-59946000D01*
X129872264Y-59828569D01*
X129491858Y-59671000D01*
X129080110Y-59671000D01*
X128699704Y-59828569D01*
X128408553Y-60119720D01*
X128250984Y-60500126D01*
X125474000Y-60500126D01*
X125474000Y-59377711D01*
X125591431Y-59260280D01*
X125749000Y-58879874D01*
X125749000Y-58468126D01*
X125591431Y-58087720D01*
X125446083Y-57942372D01*
X125601734Y-57786721D01*
X125659970Y-57646126D01*
X126981000Y-57646126D01*
X126981000Y-58057874D01*
X127138569Y-58438280D01*
X127429720Y-58729431D01*
X127810126Y-58887000D01*
X128221874Y-58887000D01*
X128602280Y-58729431D01*
X128893431Y-58438280D01*
X129051000Y-58057874D01*
X129051000Y-57646126D01*
X128893431Y-57265720D01*
X128602280Y-56974569D01*
X128221874Y-56817000D01*
X127810126Y-56817000D01*
X127429720Y-56974569D01*
X127138569Y-57265720D01*
X126981000Y-57646126D01*
X125659970Y-57646126D01*
X125759303Y-57406315D01*
X125759303Y-56994567D01*
X125601734Y-56614161D01*
X125310583Y-56323010D01*
X124930177Y-56165441D01*
X124518429Y-56165441D01*
X124138023Y-56323010D01*
X123846872Y-56614161D01*
X123689303Y-56994567D01*
X123689303Y-57160639D01*
X123467527Y-57382415D01*
X123404072Y-57424815D01*
X123361672Y-57488271D01*
X123361671Y-57488272D01*
X123236097Y-57676207D01*
X123177112Y-57972744D01*
X123192001Y-58047596D01*
X123192000Y-77528289D01*
X123074569Y-77645720D01*
X122917000Y-78026126D01*
X117866679Y-78026126D01*
X119356471Y-76536335D01*
X119419927Y-76493935D01*
X119478768Y-76405874D01*
X119587902Y-76242544D01*
X119599218Y-76185653D01*
X119631998Y-76020858D01*
X119631998Y-76020854D01*
X119646886Y-75946006D01*
X119631998Y-75871158D01*
X119631998Y-74871711D01*
X119749429Y-74754280D01*
X119906998Y-74373874D01*
X119906998Y-73962126D01*
X119749429Y-73581720D01*
X119458278Y-73290569D01*
X119077872Y-73133000D01*
X118666124Y-73133000D01*
X118285718Y-73290569D01*
X117994567Y-73581720D01*
X117836998Y-73962126D01*
X117836998Y-74373874D01*
X117994567Y-74754280D01*
X118111998Y-74871711D01*
X118111999Y-75631203D01*
X116817465Y-76925738D01*
X116696778Y-76634373D01*
X116579347Y-76516942D01*
X116579347Y-75000195D01*
X116594235Y-74925347D01*
X116579347Y-74850499D01*
X116579347Y-74850495D01*
X116535251Y-74628810D01*
X116367276Y-74377418D01*
X116303820Y-74335018D01*
X115398331Y-73429530D01*
X115355929Y-73366071D01*
X115104537Y-73198096D01*
X114882852Y-73154000D01*
X114882847Y-73154000D01*
X114808000Y-73139112D01*
X114733153Y-73154000D01*
X113546178Y-73154000D01*
X113338625Y-72843375D01*
X113019522Y-72630157D01*
X113149358Y-72569183D01*
X113539645Y-72140924D01*
X113709476Y-71730890D01*
X113588155Y-71501000D01*
X112395000Y-71501000D01*
X112395000Y-71521000D01*
X112141000Y-71521000D01*
X112141000Y-71501000D01*
X110947845Y-71501000D01*
X110826524Y-71730890D01*
X110996355Y-72140924D01*
X111386642Y-72569183D01*
X111516478Y-72630157D01*
X111197375Y-72843375D01*
X110869161Y-73334582D01*
X110753908Y-73914000D01*
X110869161Y-74493418D01*
X111197375Y-74984625D01*
X111495761Y-75184000D01*
X111197375Y-75383375D01*
X110869161Y-75874582D01*
X110753908Y-76454000D01*
X110869161Y-77033418D01*
X111197375Y-77524625D01*
X111495761Y-77724000D01*
X111197375Y-77923375D01*
X110869161Y-78414582D01*
X110753908Y-78994000D01*
X110869161Y-79573418D01*
X111197375Y-80064625D01*
X111495761Y-80264000D01*
X111197375Y-80463375D01*
X110869161Y-80954582D01*
X110753908Y-81534000D01*
X110869161Y-82113418D01*
X111197375Y-82604625D01*
X111536169Y-82831000D01*
X110692000Y-82831000D01*
X110692000Y-67984000D01*
X110770560Y-67984000D01*
X110770560Y-69684000D01*
X110819843Y-69931765D01*
X110960191Y-70141809D01*
X111170235Y-70282157D01*
X111273708Y-70302739D01*
X110996355Y-70607076D01*
X110826524Y-71017110D01*
X110947845Y-71247000D01*
X112141000Y-71247000D01*
X112141000Y-71227000D01*
X112395000Y-71227000D01*
X112395000Y-71247000D01*
X113588155Y-71247000D01*
X113709476Y-71017110D01*
X113539645Y-70607076D01*
X113262292Y-70302739D01*
X113365765Y-70282157D01*
X113575809Y-70141809D01*
X113716157Y-69931765D01*
X113765440Y-69684000D01*
X113765440Y-67984000D01*
X113716157Y-67736235D01*
X113575809Y-67526191D01*
X113365765Y-67385843D01*
X113118000Y-67336560D01*
X111418000Y-67336560D01*
X111170235Y-67385843D01*
X110960191Y-67526191D01*
X110819843Y-67736235D01*
X110770560Y-67984000D01*
X110692000Y-67984000D01*
X110692000Y-65834126D01*
X114026988Y-65834126D01*
X114026988Y-66245874D01*
X114184557Y-66626280D01*
X114475708Y-66917431D01*
X114856114Y-67075000D01*
X115267862Y-67075000D01*
X115620338Y-66929000D01*
X118567634Y-66929000D01*
X118920110Y-67075000D01*
X119331858Y-67075000D01*
X119712264Y-66917431D01*
X120003415Y-66626280D01*
X120160984Y-66245874D01*
X120160984Y-65834126D01*
X120003415Y-65453720D01*
X119712264Y-65162569D01*
X119331858Y-65005000D01*
X118920110Y-65005000D01*
X118567634Y-65151000D01*
X115620338Y-65151000D01*
X115267862Y-65005000D01*
X114856114Y-65005000D01*
X114475708Y-65162569D01*
X114184557Y-65453720D01*
X114026988Y-65834126D01*
X110692000Y-65834126D01*
X110692000Y-50458000D01*
X118898560Y-50458000D01*
X118898560Y-52158000D01*
X118947843Y-52405765D01*
X119088191Y-52615809D01*
X119298235Y-52756157D01*
X119546000Y-52805440D01*
X121246000Y-52805440D01*
X121493765Y-52756157D01*
X121703809Y-52615809D01*
X121844157Y-52405765D01*
X121853184Y-52360381D01*
X121865375Y-52378625D01*
X122218974Y-52614892D01*
X122220097Y-52620537D01*
X122334713Y-52792071D01*
X122388072Y-52871929D01*
X122451528Y-52914329D01*
X123361671Y-53824473D01*
X123404071Y-53887929D01*
X123655463Y-54055904D01*
X123877148Y-54100000D01*
X123877153Y-54100000D01*
X123952000Y-54114888D01*
X124026847Y-54100000D01*
X126042287Y-54100000D01*
X126159718Y-54217431D01*
X126540124Y-54375000D01*
X126951872Y-54375000D01*
X127332278Y-54217431D01*
X127623429Y-53926280D01*
X127669721Y-53814522D01*
X129965673Y-56110476D01*
X130008071Y-56173929D01*
X130071524Y-56216327D01*
X130071526Y-56216329D01*
X130196902Y-56300102D01*
X130259463Y-56341904D01*
X130481148Y-56386000D01*
X130481152Y-56386000D01*
X130555999Y-56400888D01*
X130630846Y-56386000D01*
X131884303Y-56386000D01*
X132001734Y-56503431D01*
X132382140Y-56661000D01*
X132793888Y-56661000D01*
X133174294Y-56503431D01*
X133465445Y-56212280D01*
X133623014Y-55831874D01*
X133623014Y-55420126D01*
X133465445Y-55039720D01*
X133174294Y-54748569D01*
X132793888Y-54591000D01*
X132382140Y-54591000D01*
X132001734Y-54748569D01*
X131884303Y-54866000D01*
X130870803Y-54866000D01*
X128776000Y-52771199D01*
X128776000Y-52586178D01*
X129086625Y-52378625D01*
X129286000Y-52080239D01*
X129485375Y-52378625D01*
X129976582Y-52706839D01*
X130409744Y-52793000D01*
X130702256Y-52793000D01*
X131135418Y-52706839D01*
X131626625Y-52378625D01*
X131826000Y-52080239D01*
X132025375Y-52378625D01*
X132516582Y-52706839D01*
X132949744Y-52793000D01*
X133242256Y-52793000D01*
X133675418Y-52706839D01*
X134166625Y-52378625D01*
X134379843Y-52059522D01*
X134440817Y-52189358D01*
X134869076Y-52579645D01*
X135279110Y-52749476D01*
X135509000Y-52628155D01*
X135509000Y-51435000D01*
X135763000Y-51435000D01*
X135763000Y-52628155D01*
X135992890Y-52749476D01*
X136402924Y-52579645D01*
X136831183Y-52189358D01*
X137047848Y-51728000D01*
X138456560Y-51728000D01*
X138456560Y-53428000D01*
X138505843Y-53675765D01*
X138646191Y-53885809D01*
X138856235Y-54026157D01*
X139104000Y-54075440D01*
X140804000Y-54075440D01*
X141051765Y-54026157D01*
X141261809Y-53885809D01*
X141402157Y-53675765D01*
X141422739Y-53572292D01*
X141727076Y-53849645D01*
X142137110Y-54019476D01*
X142367000Y-53898155D01*
X142367000Y-52705000D01*
X142621000Y-52705000D01*
X142621000Y-53898155D01*
X142850890Y-54019476D01*
X143260924Y-53849645D01*
X143689183Y-53459358D01*
X143935486Y-52934892D01*
X143814819Y-52705000D01*
X142621000Y-52705000D01*
X142367000Y-52705000D01*
X142347000Y-52705000D01*
X142347000Y-52451000D01*
X142367000Y-52451000D01*
X142367000Y-51257845D01*
X142621000Y-51257845D01*
X142621000Y-52451000D01*
X143814819Y-52451000D01*
X143935486Y-52221108D01*
X143689183Y-51696642D01*
X143260924Y-51306355D01*
X142850890Y-51136524D01*
X142621000Y-51257845D01*
X142367000Y-51257845D01*
X142137110Y-51136524D01*
X141727076Y-51306355D01*
X141422739Y-51583708D01*
X141402157Y-51480235D01*
X141261809Y-51270191D01*
X141051765Y-51129843D01*
X140804000Y-51080560D01*
X139104000Y-51080560D01*
X138856235Y-51129843D01*
X138646191Y-51270191D01*
X138505843Y-51480235D01*
X138456560Y-51728000D01*
X137047848Y-51728000D01*
X137077486Y-51664892D01*
X136956819Y-51435000D01*
X135763000Y-51435000D01*
X135509000Y-51435000D01*
X135489000Y-51435000D01*
X135489000Y-51181000D01*
X135509000Y-51181000D01*
X135509000Y-49987845D01*
X135763000Y-49987845D01*
X135763000Y-51181000D01*
X136956819Y-51181000D01*
X137077486Y-50951108D01*
X136831183Y-50426642D01*
X136402924Y-50036355D01*
X135992890Y-49866524D01*
X135763000Y-49987845D01*
X135509000Y-49987845D01*
X135279110Y-49866524D01*
X134869076Y-50036355D01*
X134440817Y-50426642D01*
X134379843Y-50556478D01*
X134166625Y-50237375D01*
X133675418Y-49909161D01*
X133242256Y-49823000D01*
X132949744Y-49823000D01*
X132516582Y-49909161D01*
X132025375Y-50237375D01*
X131826000Y-50535761D01*
X131626625Y-50237375D01*
X131135418Y-49909161D01*
X130702256Y-49823000D01*
X130409744Y-49823000D01*
X129976582Y-49909161D01*
X129485375Y-50237375D01*
X129286000Y-50535761D01*
X129086625Y-50237375D01*
X128595418Y-49909161D01*
X128162256Y-49823000D01*
X127869744Y-49823000D01*
X127436582Y-49909161D01*
X126945375Y-50237375D01*
X126746000Y-50535761D01*
X126546625Y-50237375D01*
X126055418Y-49909161D01*
X125622256Y-49823000D01*
X125329744Y-49823000D01*
X124896582Y-49909161D01*
X124405375Y-50237375D01*
X124206000Y-50535761D01*
X124006625Y-50237375D01*
X123515418Y-49909161D01*
X123082256Y-49823000D01*
X122789744Y-49823000D01*
X122356582Y-49909161D01*
X121865375Y-50237375D01*
X121853184Y-50255619D01*
X121844157Y-50210235D01*
X121703809Y-50000191D01*
X121493765Y-49859843D01*
X121246000Y-49810560D01*
X119546000Y-49810560D01*
X119298235Y-49859843D01*
X119088191Y-50000191D01*
X118947843Y-50210235D01*
X118898560Y-50458000D01*
X110692000Y-50458000D01*
X110692000Y-49249000D01*
X144324000Y-49249000D01*
X144324001Y-82831000D01*
G04 #@! TD*
M02*
